<?xml version="1.0" encoding="utf-8"?>
<svg xmlns="http://www.w3.org/2000/svg" width="750" height="170" viewBox="-144 0 750 170"><rect x="-144" y="0" width="750" height="170" fill="#ffffff" /><g><text x="115.0" y="-20" stroke="none" fill="#000000" stroke-width="0" font-size="24px" font-weight="normal" font-family="Helvetica" text-anchor="middle" alignment-baseline="middle" transform="translate(50.0,60.0)">Address Link Example</text><g transform="translate(50.0,60.0)"><rect x="0" y="0" width="230.0" height="80.0" fill="#ffffff" stroke="#555555" stroke-width="1" /><rect x="0" y="60.0" width="230.0" height="20.0" fill="#e8e8e8" stroke="#555555" stroke-width="1" /><text x="115.0" y="70.0" stroke="none" fill="#000000" stroke-width="0" font-size="13" font-weight="normal" font-family="Helvetica" text-anchor="middle" alignment-baseline="middle">TPIU</text><text x="240.0" y="80.0" stroke="none" fill="#000000" stroke-width="0" font-size="13" font-weight="normal" font-family="Helvetica" text-anchor="start" alignment-baseline="middle">0xe8040000</text><text x="240.0" y="60.0" stroke="none" fill="#000000" stroke-width="0" font-size="13" font-weight="normal" font-family="Helvetica" text-anchor="start" alignment-baseline="middle">0xe8041000</text><text x="2" y="62.0" stroke="none" fill="#000000" stroke-width="0" font-size="12px" font-weight="normal" font-family="Helvetica" text-anchor="start" alignment-baseline="hanging">4 KiB</text><rect x="0" y="40.0" width="230.0" height="20.0" fill="#e8e8e8" stroke="#555555" stroke-width="1" /><text x="115.0" y="50.0" stroke="none" fill="#000000" stroke-width="0" font-size="13" font-weight="normal" font-family="Helvetica" text-anchor="middle" alignment-baseline="middle">ETM</text><text x="240.0" y="60.0" stroke="none" fill="#000000" stroke-width="0" font-size="13" font-weight="normal" font-family="Helvetica" text-anchor="start" alignment-baseline="middle">0xe8041000</text><text x="240.0" y="40.0" stroke="none" fill="#000000" stroke-width="0" font-size="13" font-weight="normal" font-family="Helvetica" text-anchor="start" alignment-baseline="middle">0xe8042000</text><text x="2" y="42.0" stroke="none" fill="#000000" stroke-width="0" font-size="12px" font-weight="normal" font-family="Helvetica" text-anchor="start" alignment-baseline="hanging">4 KiB</text><rect x="0" y="20.0" width="230.0" height="20.0" fill="#e8e8e8" stroke="#555555" stroke-width="1" /><text x="115.0" y="30.0" stroke="none" fill="#000000" stroke-width="0" font-size="13" font-weight="normal" font-family="Helvetica" text-anchor="middle" alignment-baseline="middle">External PPB</text><text x="240.0" y="40.0" stroke="none" fill="#000000" stroke-width="0" font-size="13" font-weight="normal" font-family="Helvetica" text-anchor="start" alignment-baseline="middle">0xe8042000</text><text x="240.0" y="20.0" stroke="none" fill="#000000" stroke-width="0" font-size="13" font-weight="normal" font-family="Helvetica" text-anchor="start" alignment-baseline="middle">0xe8043000</text><text x="2" y="22.0" stroke="none" fill="#000000" stroke-width="0" font-size="12px" font-weight="normal" font-family="Helvetica" text-anchor="start" alignment-baseline="hanging">4 KiB</text><rect x="0" y="0.0" width="230.0" height="20.0" fill="#e8e8e8" stroke="#555555" stroke-width="1" /><text x="115.0" y="10.0" stroke="none" fill="#000000" stroke-width="0" font-size="13" font-weight="normal" font-family="Helvetica" text-anchor="middle" alignment-baseline="middle">ROM Table</text><text x="240.0" y="20.0" stroke="none" fill="#000000" stroke-width="0" font-size="13" font-weight="normal" font-family="Helvetica" text-anchor="start" alignment-baseline="middle">0xe8043000</text><text x="240.0" y="0.0" stroke="none" fill="#000000" stroke-width="0" font-size="13" font-weight="normal" font-family="Helvetica" text-anchor="start" alignment-baseline="middle">0xe8044000</text><text x="2" y="2.0" stroke="none" fill="#000000" stroke-width="0" font-size="12px" font-weight="normal" font-family="Helvetica" text-anchor="start" alignment-baseline="hanging">4 KiB</text></g></g><g><g transform="translate(50.0,60.0)"><g><g transform="translate(230.0,10.0)"><polyline points="0,-10 -5,-10 0,0 5,-10 0,-10" stroke="black" stroke-width="1" fill="black" transform="rotate(90,0,0)" /></g><text x="383.0" y="10.0" stroke="none" fill="#000000" stroke-width="0" font-size="13" font-weight="normal" font-family="Helvetica" text-anchor="start" alignment-baseline="middle">In direction</text><polyline points="230.0,10.0 380.0,10.0" stroke="black" stroke-dasharray="4,2" stroke-width="1" /></g><g><text x="383.0" y="30.0" stroke="none" fill="#000000" stroke-width="0" font-size="13" font-weight="normal" font-family="Helvetica" text-anchor="start" alignment-baseline="middle">No direction</text><polyline points="230.0,30.0 380.0,30.0" stroke="black" stroke-dasharray="4,2" stroke-width="1" /></g><g><g transform="translate(380.0,50.0)"><polyline points="0,-10 -5,-10 0,0 5,-10 0,-10" stroke="black" stroke-width="1" fill="black" transform="rotate(270,0,0)" /></g><text x="383.0" y="50.0" stroke="none" fill="#000000" stroke-width="0" font-size="13" font-weight="normal" font-family="Helvetica" text-anchor="start" alignment-baseline="middle">Out direction</text><polyline points="230.0,50.0 380.0,50.0" stroke="black" stroke-dasharray="4,2" stroke-width="1" /></g><g><g transform="translate(-40,50.0)"><polyline points="0,-10 -5,-10 0,0 5,-10 0,-10" stroke="black" stroke-width="1" fill="black" transform="rotate(90,0,0)" /></g><text x="-43" y="50.0" stroke="none" fill="#000000" stroke-width="0" font-size="13" font-weight="normal" font-family="Helvetica" text-anchor="end" alignment-baseline="middle">Label at left side</text><polyline points="0,50.0 -40,50.0" stroke="black" stroke-dasharray="4,2" stroke-width="1" /></g><g><g transform="translate(230.0,70.0)"><polyline points="0,-10 -5,-10 0,0 5,-10 0,-10" stroke="black" stroke-width="1" fill="black" transform="rotate(90,0,0)" /></g><g transform="translate(380.0,70.0)"><polyline points="0,-10 -5,-10 0,0 5,-10 0,-10" stroke="black" stroke-width="1" fill="black" transform="rotate(270,0,0)" /></g><text x="383.0" y="70.0" stroke="none" fill="#000000" stroke-width="0" font-size="13" font-weight="normal" font-family="Helvetica" text-anchor="start" alignment-baseline="middle">In and Out directions</text><polyline points="230.0,70.0 380.0,70.0" stroke="black" stroke-dasharray="4,2" stroke-width="1" /></g></g></g><g><g transform="translate(50.0,60.0)"><g /><g /><g /><g /></g></g></svg>