<?xml version="1.0" encoding="utf-8"?>
<svg xmlns="http://www.w3.org/2000/svg" width="400" height="700" viewBox="0 0 400 700"><rect x="0" y="0" width="400" height="700" fill="white" /><g /><g><text x="115.0" y="-20" stroke="none" fill="black" stroke-width="0" font-size="24px" font-weight="normal" font-family="Helvetica" text-anchor="middle" alignment-baseline="middle" transform="translate(50.0,60.0)">Address Link Example</text><g transform="translate(50.0,60.0)"><rect x="0" y="0" width="230.0" height="200.0" fill="white" stroke="black" stroke-width="1" /><rect x="0" y="150.0" width="230.0" height="50.0" fill="lightgrey" stroke="black" stroke-width="1" /><text x="115.0" y="175.0" stroke="none" fill="black" stroke-width="0" font-size="16" font-weight="normal" font-family="Helvetica" text-anchor="middle" alignment-baseline="middle">TPIU</text><text x="240.0" y="200.0" stroke="none" fill="black" stroke-width="0" font-size="16" font-weight="normal" font-family="Helvetica" text-anchor="start" alignment-baseline="middle">0xe8040000</text><text x="240.0" y="150.0" stroke="none" fill="black" stroke-width="0" font-size="16" font-weight="normal" font-family="Helvetica" text-anchor="start" alignment-baseline="middle">0xe8041000</text><text x="2" y="152.0" stroke="none" fill="black" stroke-width="0" font-size="12px" font-weight="normal" font-family="Helvetica" text-anchor="start" alignment-baseline="hanging">4 KiB</text><rect x="0" y="100.0" width="230.0" height="50.0" fill="lightgrey" stroke="black" stroke-width="1" /><text x="115.0" y="125.0" stroke="none" fill="black" stroke-width="0" font-size="16" font-weight="normal" font-family="Helvetica" text-anchor="middle" alignment-baseline="middle">ETM</text><text x="240.0" y="150.0" stroke="none" fill="black" stroke-width="0" font-size="16" font-weight="normal" font-family="Helvetica" text-anchor="start" alignment-baseline="middle">0xe8041000</text><text x="240.0" y="100.0" stroke="none" fill="black" stroke-width="0" font-size="16" font-weight="normal" font-family="Helvetica" text-anchor="start" alignment-baseline="middle">0xe8042000</text><text x="2" y="102.0" stroke="none" fill="black" stroke-width="0" font-size="12px" font-weight="normal" font-family="Helvetica" text-anchor="start" alignment-baseline="hanging">4 KiB</text><rect x="0" y="50.0" width="230.0" height="50.0" fill="lightgrey" stroke="black" stroke-width="1" /><text x="115.0" y="75.0" stroke="none" fill="black" stroke-width="0" font-size="16" font-weight="normal" font-family="Helvetica" text-anchor="middle" alignment-baseline="middle">External PPB</text><text x="240.0" y="100.0" stroke="none" fill="black" stroke-width="0" font-size="16" font-weight="normal" font-family="Helvetica" text-anchor="start" alignment-baseline="middle">0xe8042000</text><text x="240.0" y="50.0" stroke="none" fill="black" stroke-width="0" font-size="16" font-weight="normal" font-family="Helvetica" text-anchor="start" alignment-baseline="middle">0xe8043000</text><text x="2" y="52.0" stroke="none" fill="black" stroke-width="0" font-size="12px" font-weight="normal" font-family="Helvetica" text-anchor="start" alignment-baseline="hanging">4 KiB</text><rect x="0" y="0.0" width="230.0" height="50.0" fill="lightgrey" stroke="black" stroke-width="1" /><text x="115.0" y="25.0" stroke="none" fill="black" stroke-width="0" font-size="16" font-weight="normal" font-family="Helvetica" text-anchor="middle" alignment-baseline="middle">ROM Table</text><text x="240.0" y="50.0" stroke="none" fill="black" stroke-width="0" font-size="16" font-weight="normal" font-family="Helvetica" text-anchor="start" alignment-baseline="middle">0xe8043000</text><text x="240.0" y="0.0" stroke="none" fill="black" stroke-width="0" font-size="16" font-weight="normal" font-family="Helvetica" text-anchor="start" alignment-baseline="middle">0xe8044000</text><text x="2" y="2.0" stroke="none" fill="black" stroke-width="0" font-size="12px" font-weight="normal" font-family="Helvetica" text-anchor="start" alignment-baseline="hanging">4 KiB</text></g></g><g><g transform="translate(50.0,60.0)"><g><g transform="translate(230.0,25.0)"><polyline points="0,-10 -5,-10 0,0 5,-10 0,-10" stroke="black" stroke-width="1" fill="black" transform="rotate(90,0,0)" /></g><text x="383.0" y="25.0" stroke="none" fill="black" stroke-width="0" font-size="16" font-weight="normal" font-family="Helvetica" text-anchor="start" alignment-baseline="middle">In direction</text><polyline points="230.0,25.0 380.0,25.0" stroke="black" stroke-dasharray="4,2" stroke-width="1" /></g><g><text x="383.0" y="75.0" stroke="none" fill="black" stroke-width="0" font-size="16" font-weight="normal" font-family="Helvetica" text-anchor="start" alignment-baseline="middle">No direction</text><polyline points="230.0,75.0 380.0,75.0" stroke="black" stroke-dasharray="4,2" stroke-width="1" /></g><g><g transform="translate(380.0,125.0)"><polyline points="0,-10 -5,-10 0,0 5,-10 0,-10" stroke="black" stroke-width="1" fill="black" transform="rotate(270,0,0)" /></g><text x="383.0" y="125.0" stroke="none" fill="black" stroke-width="0" font-size="16" font-weight="normal" font-family="Helvetica" text-anchor="start" alignment-baseline="middle">Out direction</text><polyline points="230.0,125.0 380.0,125.0" stroke="black" stroke-dasharray="4,2" stroke-width="1" /></g><g><g transform="translate(-40,125.0)"><polyline points="0,-10 -5,-10 0,0 5,-10 0,-10" stroke="black" stroke-width="1" fill="black" transform="rotate(90,0,0)" /></g><text x="-43" y="125.0" stroke="none" fill="black" stroke-width="0" font-size="16" font-weight="normal" font-family="Helvetica" text-anchor="end" alignment-baseline="middle">Label at left side</text><polyline points="0,125.0 -40,125.0" stroke="black" stroke-dasharray="4,2" stroke-width="1" /></g><g><g transform="translate(230.0,175.0)"><polyline points="0,-10 -5,-10 0,0 5,-10 0,-10" stroke="black" stroke-width="1" fill="black" transform="rotate(90,0,0)" /></g><g transform="translate(380.0,175.0)"><polyline points="0,-10 -5,-10 0,0 5,-10 0,-10" stroke="black" stroke-width="1" fill="black" transform="rotate(270,0,0)" /></g><text x="383.0" y="175.0" stroke="none" fill="black" stroke-width="0" font-size="16" font-weight="normal" font-family="Helvetica" text-anchor="start" alignment-baseline="middle">In and Out directions</text><polyline points="230.0,175.0 380.0,175.0" stroke="black" stroke-dasharray="4,2" stroke-width="1" /></g></g></g><g><g transform="translate(50.0,60.0)"><g /><g /><g /><g /></g></g></svg>