<?xml version="1.0" encoding="utf-8"?>
<svg xmlns="http://www.w3.org/2000/svg" width="1100" height="1000" viewBox="0 0 1100 1000"><rect x="0" y="0" width="1100" height="1000" fill="#ffffff" /><g><g><path d="M 280.0,160.0 L 310.0,160.0 L 400.0,392.0 L 400.0,60.0 L 310.0,140.0 L 280.0,140.0 Z" fill="#a8c4d4" stroke="none" opacity="0.4" /></g></g><g><g><path d="M 630.0,80.0 L 660.0,80.0 L 750.0,260.0 L 750.0,60.0 L 660.0,60.0 L 630.0,60.0 Z" fill="#a8c4d4" stroke="none" opacity="0.4" /></g><g><path d="M 630.0,352.0 L 660.0,352.0 L 750.0,514.0 L 750.0,310.0 L 660.0,332.0 L 630.0,332.0 Z" fill="#a8c4d4" stroke="none" opacity="0.4" /></g></g><g /><g><text x="115.0" y="-20" stroke="none" fill="#1a2c3d" stroke-width="0" font-size="24px" font-weight="normal" font-family="Helvetica" text-anchor="middle" alignment-baseline="middle" transform="translate(50.0,60.0)">PULPissimo SoC</text><g transform="translate(50.0,220.0)"><rect x="0" y="0" width="230.0" height="52.0" fill="#ffffff" stroke="#7a97b0" stroke-width="1" /><rect x="0" y="0.0" width="230.0" height="52.0" fill="#c4d4a8" stroke="#7a97b0" stroke-width="1" /><text x="115.0" y="26.0" stroke="none" fill="#1a2c3d" stroke-width="0" font-size="12" font-weight="normal" font-family="Helvetica" text-anchor="middle" alignment-baseline="middle">AXI Plug</text><text x="240.0" y="52.0" stroke="none" fill="#1a2c3d" stroke-width="0" font-size="12" font-weight="normal" font-family="Helvetica" text-anchor="start" alignment-baseline="middle">0x10000000</text><text x="240.0" y="0.0" stroke="none" fill="#1a2c3d" stroke-width="0" font-size="12" font-weight="normal" font-family="Helvetica" text-anchor="start" alignment-baseline="middle">0x10400000</text><text x="2" y="2.0" stroke="none" fill="#1a2c3d" stroke-width="0" font-size="12px" font-weight="normal" font-family="Helvetica" text-anchor="start" alignment-baseline="hanging">4 MiB</text></g><g transform="translate(50.0,200.0)"><rect x="0" y="0" width="230.0" height="20" fill="#ffffff" stroke="#7a97b0" stroke-width="1" /><g><rect x="0" y="0.0" width="230.0" height="20.0" fill="#f0f0f0" /><polyline points="0,8.0 0,0.0 230.0,0.0 230.0,8.0" stroke="#7a97b0" stroke-width="1" fill="none" /><polyline points="0,12.0 0,20.0 230.0,20.0 230.0,12.0" stroke="#7a97b0" stroke-width="1" fill="none" /><polyline points="-10.0,6.0 -9.0,5.877582561890373 -8.0,5.54030230586814 -7.0,5.070737201667703 -6.0,4.583853163452858 -5.0,4.198856384453066 -4.0,4.010007503399555 -3.0,4.0635433127092035 -2.0,4.346356379136388 -1.0,4.789204200569221 0.0,5.283662185463227 1.0,5.70866977429126 2.0,5.960170286650366 3.0,5.9765876257280235 4.0,5.753902254343305 5.0,5.346635317835026 6.0,4.854499966191386 7.0,4.397988097315176 8.0,4.088869738115323 9.0,4.0028278438036216" stroke="#7a97b0" stroke-width="1" fill="none" /><polyline points="-10.0,16.0 -9.0,15.877582561890373 -8.0,15.54030230586814 -7.0,15.070737201667702 -6.0,14.583853163452858 -5.0,14.198856384453066 -4.0,14.010007503399555 -3.0,14.063543312709204 -2.0,14.346356379136388 -1.0,14.78920420056922 0.0,15.283662185463227 1.0,15.708669774291259 2.0,15.960170286650365 3.0,15.976587625728023 4.0,15.753902254343304 5.0,15.346635317835025 6.0,14.854499966191387 7.0,14.397988097315176 8.0,14.088869738115323 9.0,14.002827843803622" stroke="#7a97b0" stroke-width="1" fill="none" /><polyline points="220.0,6.0 221.0,5.877582561890373 222.0,5.54030230586814 223.0,5.070737201667703 224.0,4.583853163452858 225.0,4.198856384453066 226.0,4.010007503399555 227.0,4.0635433127092035 228.0,4.346356379136388 229.0,4.789204200569221 230.0,5.283662185463227 231.0,5.70866977429126 232.0,5.960170286650366 233.0,5.9765876257280235 234.0,5.753902254343305 235.0,5.346635317835026 236.0,4.854499966191386 237.0,4.397988097315176 238.0,4.088869738115323 239.0,4.0028278438036216" stroke="#7a97b0" stroke-width="1" fill="none" /><polyline points="220.0,16.0 221.0,15.877582561890373 222.0,15.54030230586814 223.0,15.070737201667702 224.0,14.583853163452858 225.0,14.198856384453066 226.0,14.010007503399555 227.0,14.063543312709204 228.0,14.346356379136388 229.0,14.78920420056922 230.0,15.283662185463227 231.0,15.708669774291259 232.0,15.960170286650365 233.0,15.976587625728023 234.0,15.753902254343304 235.0,15.346635317835025 236.0,14.854499966191387 237.0,14.397988097315176 238.0,14.088869738115323 239.0,14.002827843803622" stroke="#7a97b0" stroke-width="1" fill="none" /></g><text x="115.0" y="10.0" stroke="none" fill="#aaaaaa" stroke-width="0" font-size="12" font-weight="normal" font-family="Helvetica" text-anchor="middle" alignment-baseline="middle">···</text></g><g transform="translate(50.0,180.0)"><rect x="0" y="0" width="230.0" height="20.0" fill="#ffffff" stroke="#7a97b0" stroke-width="1" /><rect x="0" y="0.0" width="230.0" height="20.0" fill="#d4c4a8" stroke="#7a97b0" stroke-width="1" /><text x="115.0" y="10.0" stroke="none" fill="#1a2c3d" stroke-width="0" font-size="12" font-weight="normal" font-family="Helvetica" text-anchor="middle" alignment-baseline="middle">Boot ROM</text><text x="240.0" y="20.0" stroke="none" fill="#1a2c3d" stroke-width="0" font-size="12" font-weight="normal" font-family="Helvetica" text-anchor="start" alignment-baseline="middle">0x1a000000</text><text x="240.0" y="0.0" stroke="none" fill="#1a2c3d" stroke-width="0" font-size="12" font-weight="normal" font-family="Helvetica" text-anchor="start" alignment-baseline="middle">0x1a040000</text></g><g transform="translate(50.0,160.0)"><rect x="0" y="0" width="230.0" height="20" fill="#ffffff" stroke="#7a97b0" stroke-width="1" /><g><rect x="0" y="0.0" width="230.0" height="20.0" fill="#f0f0f0" /><polyline points="0,8.0 0,0.0 230.0,0.0 230.0,8.0" stroke="#7a97b0" stroke-width="1" fill="none" /><polyline points="0,12.0 0,20.0 230.0,20.0 230.0,12.0" stroke="#7a97b0" stroke-width="1" fill="none" /><polyline points="-10.0,6.0 -9.0,5.877582561890373 -8.0,5.54030230586814 -7.0,5.070737201667703 -6.0,4.583853163452858 -5.0,4.198856384453066 -4.0,4.010007503399555 -3.0,4.0635433127092035 -2.0,4.346356379136388 -1.0,4.789204200569221 0.0,5.283662185463227 1.0,5.70866977429126 2.0,5.960170286650366 3.0,5.9765876257280235 4.0,5.753902254343305 5.0,5.346635317835026 6.0,4.854499966191386 7.0,4.397988097315176 8.0,4.088869738115323 9.0,4.0028278438036216" stroke="#7a97b0" stroke-width="1" fill="none" /><polyline points="-10.0,16.0 -9.0,15.877582561890373 -8.0,15.54030230586814 -7.0,15.070737201667702 -6.0,14.583853163452858 -5.0,14.198856384453066 -4.0,14.010007503399555 -3.0,14.063543312709204 -2.0,14.346356379136388 -1.0,14.78920420056922 0.0,15.283662185463227 1.0,15.708669774291259 2.0,15.960170286650365 3.0,15.976587625728023 4.0,15.753902254343304 5.0,15.346635317835025 6.0,14.854499966191387 7.0,14.397988097315176 8.0,14.088869738115323 9.0,14.002827843803622" stroke="#7a97b0" stroke-width="1" fill="none" /><polyline points="220.0,6.0 221.0,5.877582561890373 222.0,5.54030230586814 223.0,5.070737201667703 224.0,4.583853163452858 225.0,4.198856384453066 226.0,4.010007503399555 227.0,4.0635433127092035 228.0,4.346356379136388 229.0,4.789204200569221 230.0,5.283662185463227 231.0,5.70866977429126 232.0,5.960170286650366 233.0,5.9765876257280235 234.0,5.753902254343305 235.0,5.346635317835026 236.0,4.854499966191386 237.0,4.397988097315176 238.0,4.088869738115323 239.0,4.0028278438036216" stroke="#7a97b0" stroke-width="1" fill="none" /><polyline points="220.0,16.0 221.0,15.877582561890373 222.0,15.54030230586814 223.0,15.070737201667702 224.0,14.583853163452858 225.0,14.198856384453066 226.0,14.010007503399555 227.0,14.063543312709204 228.0,14.346356379136388 229.0,14.78920420056922 230.0,15.283662185463227 231.0,15.708669774291259 232.0,15.960170286650365 233.0,15.976587625728023 234.0,15.753902254343304 235.0,15.346635317835025 236.0,14.854499966191387 237.0,14.397988097315176 238.0,14.088869738115323 239.0,14.002827843803622" stroke="#7a97b0" stroke-width="1" fill="none" /></g><text x="115.0" y="10.0" stroke="none" fill="#aaaaaa" stroke-width="0" font-size="12" font-weight="normal" font-family="Helvetica" text-anchor="middle" alignment-baseline="middle">···</text></g><g transform="translate(50.0,140.0)"><rect x="0" y="0" width="230.0" height="20.0" fill="#ffffff" stroke="#7a97b0" stroke-width="1" /><rect x="0" y="0.0" width="230.0" height="20.0" fill="#c9b8d4" stroke="#7a97b0" stroke-width="1" /><text x="115.0" y="10.0" stroke="none" fill="#1a2c3d" stroke-width="0" font-size="12" font-weight="normal" font-family="Helvetica" text-anchor="middle" alignment-baseline="middle">APB Peripheral Bus</text><text x="240.0" y="20.0" stroke="none" fill="#1a2c3d" stroke-width="0" font-size="12" font-weight="normal" font-family="Helvetica" text-anchor="start" alignment-baseline="middle">0x1a100000</text><text x="240.0" y="0.0" stroke="none" fill="#1a2c3d" stroke-width="0" font-size="12" font-weight="normal" font-family="Helvetica" text-anchor="start" alignment-baseline="middle">0x1a140000</text></g><g transform="translate(50.0,120.0)"><rect x="0" y="0" width="230.0" height="20" fill="#ffffff" stroke="#7a97b0" stroke-width="1" /><g><rect x="0" y="0.0" width="230.0" height="20.0" fill="#f0f0f0" /><polyline points="0,8.0 0,0.0 230.0,0.0 230.0,8.0" stroke="#7a97b0" stroke-width="1" fill="none" /><polyline points="0,12.0 0,20.0 230.0,20.0 230.0,12.0" stroke="#7a97b0" stroke-width="1" fill="none" /><polyline points="-10.0,6.0 -9.0,5.877582561890373 -8.0,5.54030230586814 -7.0,5.070737201667703 -6.0,4.583853163452858 -5.0,4.198856384453066 -4.0,4.010007503399555 -3.0,4.0635433127092035 -2.0,4.346356379136388 -1.0,4.789204200569221 0.0,5.283662185463227 1.0,5.70866977429126 2.0,5.960170286650366 3.0,5.9765876257280235 4.0,5.753902254343305 5.0,5.346635317835026 6.0,4.854499966191386 7.0,4.397988097315176 8.0,4.088869738115323 9.0,4.0028278438036216" stroke="#7a97b0" stroke-width="1" fill="none" /><polyline points="-10.0,16.0 -9.0,15.877582561890373 -8.0,15.54030230586814 -7.0,15.070737201667702 -6.0,14.583853163452858 -5.0,14.198856384453066 -4.0,14.010007503399555 -3.0,14.063543312709204 -2.0,14.346356379136388 -1.0,14.78920420056922 0.0,15.283662185463227 1.0,15.708669774291259 2.0,15.960170286650365 3.0,15.976587625728023 4.0,15.753902254343304 5.0,15.346635317835025 6.0,14.854499966191387 7.0,14.397988097315176 8.0,14.088869738115323 9.0,14.002827843803622" stroke="#7a97b0" stroke-width="1" fill="none" /><polyline points="220.0,6.0 221.0,5.877582561890373 222.0,5.54030230586814 223.0,5.070737201667703 224.0,4.583853163452858 225.0,4.198856384453066 226.0,4.010007503399555 227.0,4.0635433127092035 228.0,4.346356379136388 229.0,4.789204200569221 230.0,5.283662185463227 231.0,5.70866977429126 232.0,5.960170286650366 233.0,5.9765876257280235 234.0,5.753902254343305 235.0,5.346635317835026 236.0,4.854499966191386 237.0,4.397988097315176 238.0,4.088869738115323 239.0,4.0028278438036216" stroke="#7a97b0" stroke-width="1" fill="none" /><polyline points="220.0,16.0 221.0,15.877582561890373 222.0,15.54030230586814 223.0,15.070737201667702 224.0,14.583853163452858 225.0,14.198856384453066 226.0,14.010007503399555 227.0,14.063543312709204 228.0,14.346356379136388 229.0,14.78920420056922 230.0,15.283662185463227 231.0,15.708669774291259 232.0,15.960170286650365 233.0,15.976587625728023 234.0,15.753902254343304 235.0,15.346635317835025 236.0,14.854499966191387 237.0,14.397988097315176 238.0,14.088869738115323 239.0,14.002827843803622" stroke="#7a97b0" stroke-width="1" fill="none" /></g><text x="115.0" y="10.0" stroke="none" fill="#aaaaaa" stroke-width="0" font-size="12" font-weight="normal" font-family="Helvetica" text-anchor="middle" alignment-baseline="middle">···</text></g><g transform="translate(50.0,60.0)"><rect x="0" y="0" width="230.0" height="60.0" fill="#ffffff" stroke="#7a97b0" stroke-width="1" /><rect x="0" y="40.0" width="230.0" height="20.0" fill="#b8d4e8" stroke="#7a97b0" stroke-width="1" /><text x="115.0" y="50.0" stroke="none" fill="#1a2c3d" stroke-width="0" font-size="12" font-weight="normal" font-family="Helvetica" text-anchor="middle" alignment-baseline="middle">Private Bank 0</text><text x="240.0" y="60.0" stroke="none" fill="#1a2c3d" stroke-width="0" font-size="12" font-weight="normal" font-family="Helvetica" text-anchor="start" alignment-baseline="middle">0x1c000000</text><text x="240.0" y="40.0" stroke="none" fill="#1a2c3d" stroke-width="0" font-size="12" font-weight="normal" font-family="Helvetica" text-anchor="start" alignment-baseline="middle">0x1c008000</text><rect x="0" y="20.0" width="230.0" height="20.0" fill="#b8d4e8" stroke="#7a97b0" stroke-width="1" /><text x="115.0" y="30.0" stroke="none" fill="#1a2c3d" stroke-width="0" font-size="12" font-weight="normal" font-family="Helvetica" text-anchor="middle" alignment-baseline="middle">Private Bank 1</text><text x="240.0" y="40.0" stroke="none" fill="#1a2c3d" stroke-width="0" font-size="12" font-weight="normal" font-family="Helvetica" text-anchor="start" alignment-baseline="middle">0x1c008000</text><text x="240.0" y="20.0" stroke="none" fill="#1a2c3d" stroke-width="0" font-size="12" font-weight="normal" font-family="Helvetica" text-anchor="start" alignment-baseline="middle">0x1c010000</text><rect x="0" y="0.0" width="230.0" height="20.0" fill="#a8c4d4" stroke="#7a97b0" stroke-width="1" /><text x="115.0" y="10.0" stroke="none" fill="#1a2c3d" stroke-width="0" font-size="12" font-weight="normal" font-family="Helvetica" text-anchor="middle" alignment-baseline="middle">Shared TCDM</text><text x="240.0" y="20.0" stroke="none" fill="#1a2c3d" stroke-width="0" font-size="12" font-weight="normal" font-family="Helvetica" text-anchor="start" alignment-baseline="middle">0x1c010000</text><text x="240.0" y="0.0" stroke="none" fill="#1a2c3d" stroke-width="0" font-size="12" font-weight="normal" font-family="Helvetica" text-anchor="start" alignment-baseline="middle">0x1c090000</text></g></g><g><text x="115.0" y="-20" stroke="none" fill="#1a2c3d" stroke-width="0" font-size="24px" font-weight="normal" font-family="Helvetica" text-anchor="middle" alignment-baseline="middle" transform="translate(400.0,60.0)">APB Peripheral Bus</text><g transform="translate(400.0,272.0)"><rect x="0" y="0" width="230.0" height="120.0" fill="#ffffff" stroke="#7a97b0" stroke-width="1" /><rect x="0" y="100.0" width="230.0" height="20.0" fill="#c9b8d4" stroke="#7a97b0" stroke-width="1" /><text x="115.0" y="110.0" stroke="none" fill="#1a2c3d" stroke-width="0" font-size="12" font-weight="normal" font-family="Helvetica" text-anchor="middle" alignment-baseline="middle">FLL</text><text x="240.0" y="120.0" stroke="none" fill="#1a2c3d" stroke-width="0" font-size="12" font-weight="normal" font-family="Helvetica" text-anchor="start" alignment-baseline="middle">0x1a100000</text><text x="240.0" y="100.0" stroke="none" fill="#1a2c3d" stroke-width="0" font-size="12" font-weight="normal" font-family="Helvetica" text-anchor="start" alignment-baseline="middle">0x1a101000</text><rect x="0" y="80.0" width="230.0" height="20.0" fill="#a8d5ba" stroke="#7a97b0" stroke-width="1" /><text x="115.0" y="90.0" stroke="none" fill="#1a2c3d" stroke-width="0" font-size="12" font-weight="normal" font-family="Helvetica" text-anchor="middle" alignment-baseline="middle">GPIO (48 pins)</text><text x="240.0" y="100.0" stroke="none" fill="#1a2c3d" stroke-width="0" font-size="12" font-weight="normal" font-family="Helvetica" text-anchor="start" alignment-baseline="middle">0x1a101000</text><text x="240.0" y="80.0" stroke="none" fill="#1a2c3d" stroke-width="0" font-size="12" font-weight="normal" font-family="Helvetica" text-anchor="start" alignment-baseline="middle">0x1a102000</text><rect x="0" y="60.0" width="230.0" height="20.0" fill="#b8d4e8" stroke="#7a97b0" stroke-width="1" /><text x="115.0" y="70.0" stroke="none" fill="#1a2c3d" stroke-width="0" font-size="12" font-weight="normal" font-family="Helvetica" text-anchor="middle" alignment-baseline="middle">uDMA</text><text x="240.0" y="80.0" stroke="none" fill="#1a2c3d" stroke-width="0" font-size="12" font-weight="normal" font-family="Helvetica" text-anchor="start" alignment-baseline="middle">0x1a102000</text><text x="240.0" y="60.0" stroke="none" fill="#1a2c3d" stroke-width="0" font-size="12" font-weight="normal" font-family="Helvetica" text-anchor="start" alignment-baseline="middle">0x1a104000</text><rect x="0" y="40.0" width="230.0" height="20.0" fill="#c9b8d4" stroke="#7a97b0" stroke-width="1" /><text x="115.0" y="50.0" stroke="none" fill="#1a2c3d" stroke-width="0" font-size="12" font-weight="normal" font-family="Helvetica" text-anchor="middle" alignment-baseline="middle">SoC Control</text><text x="240.0" y="60.0" stroke="none" fill="#1a2c3d" stroke-width="0" font-size="12" font-weight="normal" font-family="Helvetica" text-anchor="start" alignment-baseline="middle">0x1a104000</text><text x="240.0" y="40.0" stroke="none" fill="#1a2c3d" stroke-width="0" font-size="12" font-weight="normal" font-family="Helvetica" text-anchor="start" alignment-baseline="middle">0x1a105000</text><rect x="0" y="20.0" width="230.0" height="20.0" fill="#d4c4a8" stroke="#7a97b0" stroke-width="1" /><text x="115.0" y="30.0" stroke="none" fill="#1a2c3d" stroke-width="0" font-size="12" font-weight="normal" font-family="Helvetica" text-anchor="middle" alignment-baseline="middle">Adv Timer</text><text x="240.0" y="40.0" stroke="none" fill="#1a2c3d" stroke-width="0" font-size="12" font-weight="normal" font-family="Helvetica" text-anchor="start" alignment-baseline="middle">0x1a105000</text><text x="240.0" y="20.0" stroke="none" fill="#1a2c3d" stroke-width="0" font-size="12" font-weight="normal" font-family="Helvetica" text-anchor="start" alignment-baseline="middle">0x1a106000</text><rect x="0" y="0.0" width="230.0" height="20.0" fill="#d4c4a8" stroke="#7a97b0" stroke-width="1" /><text x="115.0" y="10.0" stroke="none" fill="#1a2c3d" stroke-width="0" font-size="12" font-weight="normal" font-family="Helvetica" text-anchor="middle" alignment-baseline="middle">SoC Event Gen</text><text x="240.0" y="20.0" stroke="none" fill="#1a2c3d" stroke-width="0" font-size="12" font-weight="normal" font-family="Helvetica" text-anchor="start" alignment-baseline="middle">0x1a106000</text><text x="240.0" y="0.0" stroke="none" fill="#1a2c3d" stroke-width="0" font-size="12" font-weight="normal" font-family="Helvetica" text-anchor="start" alignment-baseline="middle">0x1a107000</text></g><g transform="translate(400.0,252.0)"><rect x="0" y="0" width="230.0" height="20" fill="#ffffff" stroke="#7a97b0" stroke-width="1" /><g><rect x="0" y="0.0" width="230.0" height="20.0" fill="#eaecee" /><polyline points="0,8.0 0,0.0 230.0,0.0 230.0,8.0" stroke="#7a97b0" stroke-width="1" fill="none" /><polyline points="0,12.0 0,20.0 230.0,20.0 230.0,12.0" stroke="#7a97b0" stroke-width="1" fill="none" /><polyline points="-10.0,6.0 -9.0,5.877582561890373 -8.0,5.54030230586814 -7.0,5.070737201667703 -6.0,4.583853163452858 -5.0,4.198856384453066 -4.0,4.010007503399555 -3.0,4.0635433127092035 -2.0,4.346356379136388 -1.0,4.789204200569221 0.0,5.283662185463227 1.0,5.70866977429126 2.0,5.960170286650366 3.0,5.9765876257280235 4.0,5.753902254343305 5.0,5.346635317835026 6.0,4.854499966191386 7.0,4.397988097315176 8.0,4.088869738115323 9.0,4.0028278438036216" stroke="#7a97b0" stroke-width="1" fill="none" /><polyline points="-10.0,16.0 -9.0,15.877582561890373 -8.0,15.54030230586814 -7.0,15.070737201667702 -6.0,14.583853163452858 -5.0,14.198856384453066 -4.0,14.010007503399555 -3.0,14.063543312709204 -2.0,14.346356379136388 -1.0,14.78920420056922 0.0,15.283662185463227 1.0,15.708669774291259 2.0,15.960170286650365 3.0,15.976587625728023 4.0,15.753902254343304 5.0,15.346635317835025 6.0,14.854499966191387 7.0,14.397988097315176 8.0,14.088869738115323 9.0,14.002827843803622" stroke="#7a97b0" stroke-width="1" fill="none" /><polyline points="220.0,6.0 221.0,5.877582561890373 222.0,5.54030230586814 223.0,5.070737201667703 224.0,4.583853163452858 225.0,4.198856384453066 226.0,4.010007503399555 227.0,4.0635433127092035 228.0,4.346356379136388 229.0,4.789204200569221 230.0,5.283662185463227 231.0,5.70866977429126 232.0,5.960170286650366 233.0,5.9765876257280235 234.0,5.753902254343305 235.0,5.346635317835026 236.0,4.854499966191386 237.0,4.397988097315176 238.0,4.088869738115323 239.0,4.0028278438036216" stroke="#7a97b0" stroke-width="1" fill="none" /><polyline points="220.0,16.0 221.0,15.877582561890373 222.0,15.54030230586814 223.0,15.070737201667702 224.0,14.583853163452858 225.0,14.198856384453066 226.0,14.010007503399555 227.0,14.063543312709204 228.0,14.346356379136388 229.0,14.78920420056922 230.0,15.283662185463227 231.0,15.708669774291259 232.0,15.960170286650365 233.0,15.976587625728023 234.0,15.753902254343304 235.0,15.346635317835025 236.0,14.854499966191387 237.0,14.397988097315176 238.0,14.088869738115323 239.0,14.002827843803622" stroke="#7a97b0" stroke-width="1" fill="none" /></g><text x="115.0" y="10.0" stroke="none" fill="#9aacb8" stroke-width="0" font-size="12" font-weight="normal" font-family="Helvetica" text-anchor="middle" alignment-baseline="middle">Reserved</text></g><g transform="translate(400.0,192.0)"><rect x="0" y="0" width="230.0" height="60.0" fill="#ffffff" stroke="#7a97b0" stroke-width="1" /><rect x="0" y="40.0" width="230.0" height="20.0" fill="#d4c4a8" stroke="#7a97b0" stroke-width="1" /><text x="115.0" y="50.0" stroke="none" fill="#1a2c3d" stroke-width="0" font-size="12" font-weight="normal" font-family="Helvetica" text-anchor="middle" alignment-baseline="middle">Event Unit</text><text x="240.0" y="60.0" stroke="none" fill="#1a2c3d" stroke-width="0" font-size="12" font-weight="normal" font-family="Helvetica" text-anchor="start" alignment-baseline="middle">0x1a109000</text><text x="240.0" y="40.0" stroke="none" fill="#1a2c3d" stroke-width="0" font-size="12" font-weight="normal" font-family="Helvetica" text-anchor="start" alignment-baseline="middle">0x1a10b000</text><rect x="0" y="20.0" width="230.0" height="20.0" fill="#d4c4a8" stroke="#7a97b0" stroke-width="1" /><text x="115.0" y="30.0" stroke="none" fill="#1a2c3d" stroke-width="0" font-size="12" font-weight="normal" font-family="Helvetica" text-anchor="middle" alignment-baseline="middle">APB Timer</text><text x="240.0" y="40.0" stroke="none" fill="#1a2c3d" stroke-width="0" font-size="12" font-weight="normal" font-family="Helvetica" text-anchor="start" alignment-baseline="middle">0x1a10b000</text><text x="240.0" y="20.0" stroke="none" fill="#1a2c3d" stroke-width="0" font-size="12" font-weight="normal" font-family="Helvetica" text-anchor="start" alignment-baseline="middle">0x1a10c000</text><rect x="0" y="0.0" width="230.0" height="20.0" fill="#a8c4d4" stroke="#7a97b0" stroke-width="1" /><text x="115.0" y="10.0" stroke="none" fill="#1a2c3d" stroke-width="0" font-size="12" font-weight="normal" font-family="Helvetica" text-anchor="middle" alignment-baseline="middle">HWPE</text><text x="240.0" y="20.0" stroke="none" fill="#1a2c3d" stroke-width="0" font-size="12" font-weight="normal" font-family="Helvetica" text-anchor="start" alignment-baseline="middle">0x1a10c000</text><text x="240.0" y="0.0" stroke="none" fill="#1a2c3d" stroke-width="0" font-size="12" font-weight="normal" font-family="Helvetica" text-anchor="start" alignment-baseline="middle">0x1a10d000</text></g><g transform="translate(400.0,172.0)"><rect x="0" y="0" width="230.0" height="20" fill="#ffffff" stroke="#7a97b0" stroke-width="1" /><g><rect x="0" y="0.0" width="230.0" height="20.0" fill="#eaecee" /><polyline points="0,8.0 0,0.0 230.0,0.0 230.0,8.0" stroke="#7a97b0" stroke-width="1" fill="none" /><polyline points="0,12.0 0,20.0 230.0,20.0 230.0,12.0" stroke="#7a97b0" stroke-width="1" fill="none" /><polyline points="-10.0,6.0 -9.0,5.877582561890373 -8.0,5.54030230586814 -7.0,5.070737201667703 -6.0,4.583853163452858 -5.0,4.198856384453066 -4.0,4.010007503399555 -3.0,4.0635433127092035 -2.0,4.346356379136388 -1.0,4.789204200569221 0.0,5.283662185463227 1.0,5.70866977429126 2.0,5.960170286650366 3.0,5.9765876257280235 4.0,5.753902254343305 5.0,5.346635317835026 6.0,4.854499966191386 7.0,4.397988097315176 8.0,4.088869738115323 9.0,4.0028278438036216" stroke="#7a97b0" stroke-width="1" fill="none" /><polyline points="-10.0,16.0 -9.0,15.877582561890373 -8.0,15.54030230586814 -7.0,15.070737201667702 -6.0,14.583853163452858 -5.0,14.198856384453066 -4.0,14.010007503399555 -3.0,14.063543312709204 -2.0,14.346356379136388 -1.0,14.78920420056922 0.0,15.283662185463227 1.0,15.708669774291259 2.0,15.960170286650365 3.0,15.976587625728023 4.0,15.753902254343304 5.0,15.346635317835025 6.0,14.854499966191387 7.0,14.397988097315176 8.0,14.088869738115323 9.0,14.002827843803622" stroke="#7a97b0" stroke-width="1" fill="none" /><polyline points="220.0,6.0 221.0,5.877582561890373 222.0,5.54030230586814 223.0,5.070737201667703 224.0,4.583853163452858 225.0,4.198856384453066 226.0,4.010007503399555 227.0,4.0635433127092035 228.0,4.346356379136388 229.0,4.789204200569221 230.0,5.283662185463227 231.0,5.70866977429126 232.0,5.960170286650366 233.0,5.9765876257280235 234.0,5.753902254343305 235.0,5.346635317835026 236.0,4.854499966191386 237.0,4.397988097315176 238.0,4.088869738115323 239.0,4.0028278438036216" stroke="#7a97b0" stroke-width="1" fill="none" /><polyline points="220.0,16.0 221.0,15.877582561890373 222.0,15.54030230586814 223.0,15.070737201667702 224.0,14.583853163452858 225.0,14.198856384453066 226.0,14.010007503399555 227.0,14.063543312709204 228.0,14.346356379136388 229.0,14.78920420056922 230.0,15.283662185463227 231.0,15.708669774291259 232.0,15.960170286650365 233.0,15.976587625728023 234.0,15.753902254343304 235.0,15.346635317835025 236.0,14.854499966191387 237.0,14.397988097315176 238.0,14.088869738115323 239.0,14.002827843803622" stroke="#7a97b0" stroke-width="1" fill="none" /></g><text x="115.0" y="10.0" stroke="none" fill="#9aacb8" stroke-width="0" font-size="12" font-weight="normal" font-family="Helvetica" text-anchor="middle" alignment-baseline="middle">Reserved</text></g><g transform="translate(400.0,80.0)"><rect x="0" y="0" width="230.0" height="92.0" fill="#ffffff" stroke="#7a97b0" stroke-width="1" /><rect x="0" y="72.0" width="230.0" height="20.0" fill="#e8eedc" stroke="#7a97b0" stroke-width="1" /><text x="115.0" y="82.0" stroke="none" fill="#1a2c3d" stroke-width="0" font-size="12" font-weight="normal" font-family="Helvetica" text-anchor="middle" alignment-baseline="middle">Virtual Stdout</text><text x="240.0" y="92.0" stroke="none" fill="#1a2c3d" stroke-width="0" font-size="12" font-weight="normal" font-family="Helvetica" text-anchor="start" alignment-baseline="middle">0x1a10f000</text><text x="240.0" y="72.0" stroke="none" fill="#1a2c3d" stroke-width="0" font-size="12" font-weight="normal" font-family="Helvetica" text-anchor="start" alignment-baseline="middle">0x1a110000</text><rect x="0" y="0.0" width="230.0" height="72.0" fill="#d4a8b8" stroke="#7a97b0" stroke-width="1" /><text x="115.0" y="36.0" stroke="none" fill="#1a2c3d" stroke-width="0" font-size="12" font-weight="normal" font-family="Helvetica" text-anchor="middle" alignment-baseline="middle">Debug Unit</text><text x="240.0" y="72.0" stroke="none" fill="#1a2c3d" stroke-width="0" font-size="12" font-weight="normal" font-family="Helvetica" text-anchor="start" alignment-baseline="middle">0x1a110000</text><text x="240.0" y="0.0" stroke="none" fill="#1a2c3d" stroke-width="0" font-size="12" font-weight="normal" font-family="Helvetica" text-anchor="start" alignment-baseline="middle">0x1a120000</text><text x="2" y="2.0" stroke="none" fill="#1a2c3d" stroke-width="0" font-size="12px" font-weight="normal" font-family="Helvetica" text-anchor="start" alignment-baseline="hanging">64 KiB</text></g><g transform="translate(400.0,60.0)"><rect x="0" y="0" width="230.0" height="20" fill="#ffffff" stroke="#7a97b0" stroke-width="1" /><rect x="0" y="0.0" width="230.0" height="20.0" fill="#c4b8d8" stroke="#7a97b0" stroke-width="1" /><text x="115.0" y="10.0" stroke="none" fill="#1a2c3d" stroke-width="0" font-size="12" font-weight="normal" font-family="Helvetica" text-anchor="middle" alignment-baseline="middle">Chip Control</text><text x="240.0" y="20.0" stroke="none" fill="#1a2c3d" stroke-width="0" font-size="12" font-weight="normal" font-family="Helvetica" text-anchor="start" alignment-baseline="middle">0x1a120000</text><text x="240.0" y="0.0" stroke="none" fill="#1a2c3d" stroke-width="0" font-size="12" font-weight="normal" font-family="Helvetica" text-anchor="start" alignment-baseline="middle">0x1a140000</text></g></g><g><text x="115.0" y="-20" stroke="none" fill="#1a2c3d" stroke-width="0" font-size="24px" font-weight="normal" font-family="Helvetica" text-anchor="middle" alignment-baseline="middle" transform="translate(750.0,60.0)">Chip Control</text><g transform="translate(750.0,80.0)"><rect x="0" y="0" width="230.0" height="180.0" fill="#ffffff" stroke="#7a97b0" stroke-width="1" /><rect x="0" y="90.0" width="230.0" height="90.0" fill="#dce8f0" stroke="#7a97b0" stroke-width="1" /><text x="115.0" y="135.0" stroke="none" fill="#1a2c3d" stroke-width="0" font-size="12" font-weight="normal" font-family="Helvetica" text-anchor="middle" alignment-baseline="middle">FLL Config</text><text x="240.0" y="180.0" stroke="none" fill="#1a2c3d" stroke-width="0" font-size="12" font-weight="normal" font-family="Helvetica" text-anchor="start" alignment-baseline="middle">0x1a120000</text><text x="240.0" y="90.0" stroke="none" fill="#1a2c3d" stroke-width="0" font-size="12" font-weight="normal" font-family="Helvetica" text-anchor="start" alignment-baseline="middle">0x1a121000</text><text x="2" y="92.0" stroke="none" fill="#1a2c3d" stroke-width="0" font-size="12px" font-weight="normal" font-family="Helvetica" text-anchor="start" alignment-baseline="hanging">4 KiB</text><rect x="0" y="0.0" width="230.0" height="90.0" fill="#dce8f0" stroke="#7a97b0" stroke-width="1" /><text x="115.0" y="45.0" stroke="none" fill="#1a2c3d" stroke-width="0" font-size="12" font-weight="normal" font-family="Helvetica" text-anchor="middle" alignment-baseline="middle">Pad Config</text><text x="240.0" y="90.0" stroke="none" fill="#1a2c3d" stroke-width="0" font-size="12" font-weight="normal" font-family="Helvetica" text-anchor="start" alignment-baseline="middle">0x1a121000</text><text x="240.0" y="0.0" stroke="none" fill="#1a2c3d" stroke-width="0" font-size="12" font-weight="normal" font-family="Helvetica" text-anchor="start" alignment-baseline="middle">0x1a122000</text><text x="2" y="2.0" stroke="none" fill="#1a2c3d" stroke-width="0" font-size="12px" font-weight="normal" font-family="Helvetica" text-anchor="start" alignment-baseline="hanging">4 KiB</text></g><g transform="translate(750.0,60.0)"><rect x="0" y="0" width="230.0" height="20" fill="#ffffff" stroke="#7a97b0" stroke-width="1" /><g><rect x="0" y="0.0" width="230.0" height="20.0" fill="#dce8f0" /><polyline points="0,8.0 0,0.0 230.0,0.0 230.0,8.0" stroke="#7a97b0" stroke-width="1" fill="none" /><polyline points="0,12.0 0,20.0 230.0,20.0 230.0,12.0" stroke="#7a97b0" stroke-width="1" fill="none" /><polyline points="-10.0,6.0 -9.0,5.877582561890373 -8.0,5.54030230586814 -7.0,5.070737201667703 -6.0,4.583853163452858 -5.0,4.198856384453066 -4.0,4.010007503399555 -3.0,4.0635433127092035 -2.0,4.346356379136388 -1.0,4.789204200569221 0.0,5.283662185463227 1.0,5.70866977429126 2.0,5.960170286650366 3.0,5.9765876257280235 4.0,5.753902254343305 5.0,5.346635317835026 6.0,4.854499966191386 7.0,4.397988097315176 8.0,4.088869738115323 9.0,4.0028278438036216" stroke="#7a97b0" stroke-width="1" fill="none" /><polyline points="-10.0,16.0 -9.0,15.877582561890373 -8.0,15.54030230586814 -7.0,15.070737201667702 -6.0,14.583853163452858 -5.0,14.198856384453066 -4.0,14.010007503399555 -3.0,14.063543312709204 -2.0,14.346356379136388 -1.0,14.78920420056922 0.0,15.283662185463227 1.0,15.708669774291259 2.0,15.960170286650365 3.0,15.976587625728023 4.0,15.753902254343304 5.0,15.346635317835025 6.0,14.854499966191387 7.0,14.397988097315176 8.0,14.088869738115323 9.0,14.002827843803622" stroke="#7a97b0" stroke-width="1" fill="none" /><polyline points="220.0,6.0 221.0,5.877582561890373 222.0,5.54030230586814 223.0,5.070737201667703 224.0,4.583853163452858 225.0,4.198856384453066 226.0,4.010007503399555 227.0,4.0635433127092035 228.0,4.346356379136388 229.0,4.789204200569221 230.0,5.283662185463227 231.0,5.70866977429126 232.0,5.960170286650366 233.0,5.9765876257280235 234.0,5.753902254343305 235.0,5.346635317835026 236.0,4.854499966191386 237.0,4.397988097315176 238.0,4.088869738115323 239.0,4.0028278438036216" stroke="#7a97b0" stroke-width="1" fill="none" /><polyline points="220.0,16.0 221.0,15.877582561890373 222.0,15.54030230586814 223.0,15.070737201667702 224.0,14.583853163452858 225.0,14.198856384453066 226.0,14.010007503399555 227.0,14.063543312709204 228.0,14.346356379136388 229.0,14.78920420056922 230.0,15.283662185463227 231.0,15.708669774291259 232.0,15.960170286650365 233.0,15.976587625728023 234.0,15.753902254343304 235.0,15.346635317835025 236.0,14.854499966191387 237.0,14.397988097315176 238.0,14.088869738115323 239.0,14.002827843803622" stroke="#7a97b0" stroke-width="1" fill="none" /></g><text x="115.0" y="10.0" stroke="none" fill="#1a2c3d" stroke-width="0" font-size="12" font-weight="normal" font-family="Helvetica" text-anchor="middle" alignment-baseline="middle">···</text></g></g><g><text x="115.0" y="-20" stroke="none" fill="#1a2c3d" stroke-width="0" font-size="24px" font-weight="normal" font-family="Helvetica" text-anchor="middle" alignment-baseline="middle" transform="translate(750.0,310.0)">uDMA Channels</text><g transform="translate(750.0,330.0)"><rect x="0" y="0" width="230.0" height="184.0" fill="#ffffff" stroke="#7a97b0" stroke-width="1" /><rect x="0" y="161.0" width="230.0" height="23.0" fill="#dce8f0" stroke="#7a97b0" stroke-width="1" /><text x="115.0" y="172.5" stroke="none" fill="#1a2c3d" stroke-width="0" font-size="12" font-weight="normal" font-family="Helvetica" text-anchor="middle" alignment-baseline="middle">Global CG/Event</text><text x="240.0" y="184.0" stroke="none" fill="#1a2c3d" stroke-width="0" font-size="12" font-weight="normal" font-family="Helvetica" text-anchor="start" alignment-baseline="middle">0x1a102000</text><text x="240.0" y="161.0" stroke="none" fill="#1a2c3d" stroke-width="0" font-size="12" font-weight="normal" font-family="Helvetica" text-anchor="start" alignment-baseline="middle">0x1a102080</text><rect x="0" y="138.0" width="230.0" height="23.0" fill="#a8d5ba" stroke="#7a97b0" stroke-width="1" /><text x="115.0" y="149.5" stroke="none" fill="#1a2c3d" stroke-width="0" font-size="12" font-weight="normal" font-family="Helvetica" text-anchor="middle" alignment-baseline="middle">UART</text><text x="240.0" y="161.0" stroke="none" fill="#1a2c3d" stroke-width="0" font-size="12" font-weight="normal" font-family="Helvetica" text-anchor="start" alignment-baseline="middle">0x1a102080</text><text x="240.0" y="138.0" stroke="none" fill="#1a2c3d" stroke-width="0" font-size="12" font-weight="normal" font-family="Helvetica" text-anchor="start" alignment-baseline="middle">0x1a102100</text><rect x="0" y="115.0" width="230.0" height="23.0" fill="#a8d5ba" stroke="#7a97b0" stroke-width="1" /><text x="115.0" y="126.5" stroke="none" fill="#1a2c3d" stroke-width="0" font-size="12" font-weight="normal" font-family="Helvetica" text-anchor="middle" alignment-baseline="middle">QSPI Master</text><text x="240.0" y="138.0" stroke="none" fill="#1a2c3d" stroke-width="0" font-size="12" font-weight="normal" font-family="Helvetica" text-anchor="start" alignment-baseline="middle">0x1a102100</text><text x="240.0" y="115.0" stroke="none" fill="#1a2c3d" stroke-width="0" font-size="12" font-weight="normal" font-family="Helvetica" text-anchor="start" alignment-baseline="middle">0x1a102180</text><rect x="0" y="92.0" width="230.0" height="23.0" fill="#a8d5ba" stroke="#7a97b0" stroke-width="1" /><text x="115.0" y="103.5" stroke="none" fill="#1a2c3d" stroke-width="0" font-size="12" font-weight="normal" font-family="Helvetica" text-anchor="middle" alignment-baseline="middle">I2C0</text><text x="240.0" y="115.0" stroke="none" fill="#1a2c3d" stroke-width="0" font-size="12" font-weight="normal" font-family="Helvetica" text-anchor="start" alignment-baseline="middle">0x1a102180</text><text x="240.0" y="92.0" stroke="none" fill="#1a2c3d" stroke-width="0" font-size="12" font-weight="normal" font-family="Helvetica" text-anchor="start" alignment-baseline="middle">0x1a102200</text><rect x="0" y="69.0" width="230.0" height="23.0" fill="#a8d5ba" stroke="#7a97b0" stroke-width="1" /><text x="115.0" y="80.5" stroke="none" fill="#1a2c3d" stroke-width="0" font-size="12" font-weight="normal" font-family="Helvetica" text-anchor="middle" alignment-baseline="middle">I2C1</text><text x="240.0" y="92.0" stroke="none" fill="#1a2c3d" stroke-width="0" font-size="12" font-weight="normal" font-family="Helvetica" text-anchor="start" alignment-baseline="middle">0x1a102200</text><text x="240.0" y="69.0" stroke="none" fill="#1a2c3d" stroke-width="0" font-size="12" font-weight="normal" font-family="Helvetica" text-anchor="start" alignment-baseline="middle">0x1a102280</text><rect x="0" y="46.0" width="230.0" height="23.0" fill="#eaecee" stroke="#7a97b0" stroke-width="1" /><text x="115.0" y="57.5" stroke="none" fill="#9aacb8" stroke-width="0" font-size="12" font-weight="normal" font-family="Helvetica" text-anchor="middle" alignment-baseline="middle">SDIO (n/a)</text><text x="240.0" y="69.0" stroke="none" fill="#9aacb8" stroke-width="0" font-size="12" font-weight="normal" font-family="Helvetica" text-anchor="start" alignment-baseline="middle">0x1a102280</text><text x="240.0" y="46.0" stroke="none" fill="#9aacb8" stroke-width="0" font-size="12" font-weight="normal" font-family="Helvetica" text-anchor="start" alignment-baseline="middle">0x1a102300</text><rect x="0" y="23.0" width="230.0" height="23.0" fill="#d4a8b8" stroke="#7a97b0" stroke-width="1" /><text x="115.0" y="34.5" stroke="none" fill="#1a2c3d" stroke-width="0" font-size="12" font-weight="normal" font-family="Helvetica" text-anchor="middle" alignment-baseline="middle">I2S</text><text x="240.0" y="46.0" stroke="none" fill="#1a2c3d" stroke-width="0" font-size="12" font-weight="normal" font-family="Helvetica" text-anchor="start" alignment-baseline="middle">0x1a102300</text><text x="240.0" y="23.0" stroke="none" fill="#1a2c3d" stroke-width="0" font-size="12" font-weight="normal" font-family="Helvetica" text-anchor="start" alignment-baseline="middle">0x1a102380</text><rect x="0" y="0.0" width="230.0" height="23.0" fill="#d4a8b8" stroke="#7a97b0" stroke-width="1" /><text x="115.0" y="11.5" stroke="none" fill="#1a2c3d" stroke-width="0" font-size="12" font-weight="normal" font-family="Helvetica" text-anchor="middle" alignment-baseline="middle">Camera (CPI)</text><text x="240.0" y="23.0" stroke="none" fill="#1a2c3d" stroke-width="0" font-size="12" font-weight="normal" font-family="Helvetica" text-anchor="start" alignment-baseline="middle">0x1a102380</text><text x="240.0" y="0.0" stroke="none" fill="#1a2c3d" stroke-width="0" font-size="12" font-weight="normal" font-family="Helvetica" text-anchor="start" alignment-baseline="middle">0x1a102400</text></g><g transform="translate(750.0,310.0)"><rect x="0" y="0" width="230.0" height="20" fill="#ffffff" stroke="#7a97b0" stroke-width="1" /><g><rect x="0" y="0.0" width="230.0" height="20.0" fill="#dce8f0" /><polyline points="0,8.0 0,0.0 230.0,0.0 230.0,8.0" stroke="#7a97b0" stroke-width="1" fill="none" /><polyline points="0,12.0 0,20.0 230.0,20.0 230.0,12.0" stroke="#7a97b0" stroke-width="1" fill="none" /><polyline points="-10.0,6.0 -9.0,5.877582561890373 -8.0,5.54030230586814 -7.0,5.070737201667703 -6.0,4.583853163452858 -5.0,4.198856384453066 -4.0,4.010007503399555 -3.0,4.0635433127092035 -2.0,4.346356379136388 -1.0,4.789204200569221 0.0,5.283662185463227 1.0,5.70866977429126 2.0,5.960170286650366 3.0,5.9765876257280235 4.0,5.753902254343305 5.0,5.346635317835026 6.0,4.854499966191386 7.0,4.397988097315176 8.0,4.088869738115323 9.0,4.0028278438036216" stroke="#7a97b0" stroke-width="1" fill="none" /><polyline points="-10.0,16.0 -9.0,15.877582561890373 -8.0,15.54030230586814 -7.0,15.070737201667702 -6.0,14.583853163452858 -5.0,14.198856384453066 -4.0,14.010007503399555 -3.0,14.063543312709204 -2.0,14.346356379136388 -1.0,14.78920420056922 0.0,15.283662185463227 1.0,15.708669774291259 2.0,15.960170286650365 3.0,15.976587625728023 4.0,15.753902254343304 5.0,15.346635317835025 6.0,14.854499966191387 7.0,14.397988097315176 8.0,14.088869738115323 9.0,14.002827843803622" stroke="#7a97b0" stroke-width="1" fill="none" /><polyline points="220.0,6.0 221.0,5.877582561890373 222.0,5.54030230586814 223.0,5.070737201667703 224.0,4.583853163452858 225.0,4.198856384453066 226.0,4.010007503399555 227.0,4.0635433127092035 228.0,4.346356379136388 229.0,4.789204200569221 230.0,5.283662185463227 231.0,5.70866977429126 232.0,5.960170286650366 233.0,5.9765876257280235 234.0,5.753902254343305 235.0,5.346635317835026 236.0,4.854499966191386 237.0,4.397988097315176 238.0,4.088869738115323 239.0,4.0028278438036216" stroke="#7a97b0" stroke-width="1" fill="none" /><polyline points="220.0,16.0 221.0,15.877582561890373 222.0,15.54030230586814 223.0,15.070737201667702 224.0,14.583853163452858 225.0,14.198856384453066 226.0,14.010007503399555 227.0,14.063543312709204 228.0,14.346356379136388 229.0,14.78920420056922 230.0,15.283662185463227 231.0,15.708669774291259 232.0,15.960170286650365 233.0,15.976587625728023 234.0,15.753902254343304 235.0,15.346635317835025 236.0,14.854499966191387 237.0,14.397988097315176 238.0,14.088869738115323 239.0,14.002827843803622" stroke="#7a97b0" stroke-width="1" fill="none" /></g><text x="115.0" y="10.0" stroke="none" fill="#1a2c3d" stroke-width="0" font-size="12" font-weight="normal" font-family="Helvetica" text-anchor="middle" alignment-baseline="middle">···</text></g></g><g><g transform="translate(50.0,220.0)" /><g transform="translate(50.0,200.0)" /><g transform="translate(50.0,180.0)" /><g transform="translate(50.0,160.0)" /><g transform="translate(50.0,140.0)" /><g transform="translate(50.0,120.0)" /><g transform="translate(50.0,60.0)" /><g transform="translate(400.0,272.0)" /><g transform="translate(400.0,252.0)" /><g transform="translate(400.0,192.0)" /><g transform="translate(400.0,172.0)" /><g transform="translate(400.0,80.0)" /><g transform="translate(400.0,60.0)" /><g transform="translate(750.0,80.0)" /><g transform="translate(750.0,60.0)" /><g transform="translate(750.0,330.0)" /><g transform="translate(750.0,310.0)" /></g><g><g transform="translate(50.0,220.0)"><g /></g><g transform="translate(50.0,200.0)"><g /></g><g transform="translate(50.0,180.0)"><g /></g><g transform="translate(50.0,160.0)"><g /></g><g transform="translate(50.0,140.0)"><g /></g><g transform="translate(50.0,120.0)"><g /></g><g transform="translate(50.0,60.0)"><g /><g /><g /></g><g transform="translate(400.0,272.0)"><g /><g /><g /><g /><g /><g /></g><g transform="translate(400.0,252.0)"><g /></g><g transform="translate(400.0,192.0)"><g /><g /><g /></g><g transform="translate(400.0,172.0)"><g /></g><g transform="translate(400.0,80.0)"><g /><g /></g><g transform="translate(400.0,60.0)"><g /></g><g transform="translate(750.0,80.0)"><g /><g /></g><g transform="translate(750.0,60.0)"><g /></g><g transform="translate(750.0,330.0)"><g /><g /><g /><g /><g /><g /><g /><g /></g><g transform="translate(750.0,310.0)"><g /></g></g></svg>