<?xml version="1.0" encoding="utf-8"?>
<svg xmlns="http://www.w3.org/2000/svg" width="1100" height="1000" viewBox="0 0 1100 1000"><rect x="0" y="0" width="1100" height="1000" fill="#ffffff" /><g><g><path d="M 250,540.0 L 280,540.0 L 400,960.0 L 400,80.0 L 280,460.0 L 250,460.0 Z" fill="#a8c4d4" stroke="none" opacity="0.4" /></g></g><g><g><path d="M 600,100.0 L 630,100.0 L 760,280.0 L 760,80.0 L 630,80.0 L 600,80.0 Z" fill="#a8c4d4" stroke="none" opacity="0.4" /></g><g><path d="M 600,874.2857142857142 L 630,874.2857142857142 L 760,660.0 L 760,340.0 L 630,788.5714285714286 L 600,788.5714285714286 Z" fill="#a8c4d4" stroke="none" opacity="0.4" /></g></g><g /><g><text x="95.0" y="-20" stroke="none" fill="#1a2c3d" stroke-width="0" font-size="24px" font-weight="normal" font-family="Helvetica" text-anchor="middle" alignment-baseline="middle" transform="translate(60,80)">PULPissimo SoC</text><g transform="translate(60,660)"><rect x="0" y="0" width="200" height="300" fill="#ffffff" stroke="#7a97b0" stroke-width="1" /><rect x="0" y="0.0" width="200" height="300.0" fill="#c4d4a8" stroke="#7a97b0" stroke-width="1" /><text x="100.0" y="150.0" stroke="none" fill="#1a2c3d" stroke-width="0" font-size="12" font-weight="normal" font-family="Helvetica" text-anchor="middle" alignment-baseline="middle">AXI Plug</text><text x="210" y="300.0" stroke="none" fill="#1a2c3d" stroke-width="0" font-size="12" font-weight="normal" font-family="Helvetica" text-anchor="start" alignment-baseline="middle">0x10000000</text><text x="210" y="0.0" stroke="none" fill="#1a2c3d" stroke-width="0" font-size="12" font-weight="normal" font-family="Helvetica" text-anchor="start" alignment-baseline="middle">0x10400000</text><text x="2" y="2.0" stroke="none" fill="#1a2c3d" stroke-width="0" font-size="12px" font-weight="normal" font-family="Helvetica" text-anchor="start" alignment-baseline="hanging">4 MiB</text></g><g transform="translate(60,640)"><rect x="0" y="0" width="200" height="20" fill="#ffffff" stroke="#7a97b0" stroke-width="1" /><g><rect x="0" y="0.0" width="200" height="20.0" fill="#f0f0f0" /><polyline points="0,8.0 0,0.0 200,0.0 200,8.0" stroke="#7a97b0" stroke-width="1" fill="none" /><polyline points="0,12.0 0,20.0 200,20.0 200,12.0" stroke="#7a97b0" stroke-width="1" fill="none" /><polyline points="-10.0,6.0 -9.0,5.877582561890373 -8.0,5.54030230586814 -7.0,5.070737201667703 -6.0,4.583853163452858 -5.0,4.198856384453066 -4.0,4.010007503399555 -3.0,4.0635433127092035 -2.0,4.346356379136388 -1.0,4.789204200569221 0.0,5.283662185463227 1.0,5.70866977429126 2.0,5.960170286650366 3.0,5.9765876257280235 4.0,5.753902254343305 5.0,5.346635317835026 6.0,4.854499966191386 7.0,4.397988097315176 8.0,4.088869738115323 9.0,4.0028278438036216" stroke="#7a97b0" stroke-width="1" fill="none" /><polyline points="-10.0,16.0 -9.0,15.877582561890373 -8.0,15.54030230586814 -7.0,15.070737201667702 -6.0,14.583853163452858 -5.0,14.198856384453066 -4.0,14.010007503399555 -3.0,14.063543312709204 -2.0,14.346356379136388 -1.0,14.78920420056922 0.0,15.283662185463227 1.0,15.708669774291259 2.0,15.960170286650365 3.0,15.976587625728023 4.0,15.753902254343304 5.0,15.346635317835025 6.0,14.854499966191387 7.0,14.397988097315176 8.0,14.088869738115323 9.0,14.002827843803622" stroke="#7a97b0" stroke-width="1" fill="none" /><polyline points="190.0,6.0 191.0,5.877582561890373 192.0,5.54030230586814 193.0,5.070737201667703 194.0,4.583853163452858 195.0,4.198856384453066 196.0,4.010007503399555 197.0,4.0635433127092035 198.0,4.346356379136388 199.0,4.789204200569221 200.0,5.283662185463227 201.0,5.70866977429126 202.0,5.960170286650366 203.0,5.9765876257280235 204.0,5.753902254343305 205.0,5.346635317835026 206.0,4.854499966191386 207.0,4.397988097315176 208.0,4.088869738115323 209.0,4.0028278438036216" stroke="#7a97b0" stroke-width="1" fill="none" /><polyline points="190.0,16.0 191.0,15.877582561890373 192.0,15.54030230586814 193.0,15.070737201667702 194.0,14.583853163452858 195.0,14.198856384453066 196.0,14.010007503399555 197.0,14.063543312709204 198.0,14.346356379136388 199.0,14.78920420056922 200.0,15.283662185463227 201.0,15.708669774291259 202.0,15.960170286650365 203.0,15.976587625728023 204.0,15.753902254343304 205.0,15.346635317835025 206.0,14.854499966191387 207.0,14.397988097315176 208.0,14.088869738115323 209.0,14.002827843803622" stroke="#7a97b0" stroke-width="1" fill="none" /></g><text x="100.0" y="10.0" stroke="none" fill="#aaaaaa" stroke-width="0" font-size="12" font-weight="normal" font-family="Helvetica" text-anchor="middle" alignment-baseline="middle">···</text></g><g transform="translate(60,560.0)"><rect x="0" y="0" width="200" height="80.0" fill="#ffffff" stroke="#7a97b0" stroke-width="1" /><rect x="0" y="0.0" width="200" height="80.0" fill="#d4c4a8" stroke="#7a97b0" stroke-width="1" /><text x="100.0" y="40.0" stroke="none" fill="#1a2c3d" stroke-width="0" font-size="12" font-weight="normal" font-family="Helvetica" text-anchor="middle" alignment-baseline="middle">Boot ROM</text><text x="210" y="80.0" stroke="none" fill="#1a2c3d" stroke-width="0" font-size="12" font-weight="normal" font-family="Helvetica" text-anchor="start" alignment-baseline="middle">0x1a000000</text><text x="210" y="0.0" stroke="none" fill="#1a2c3d" stroke-width="0" font-size="12" font-weight="normal" font-family="Helvetica" text-anchor="start" alignment-baseline="middle">0x1a040000</text><text x="2" y="2.0" stroke="none" fill="#1a2c3d" stroke-width="0" font-size="12px" font-weight="normal" font-family="Helvetica" text-anchor="start" alignment-baseline="hanging">256 KiB</text></g><g transform="translate(60,540.0)"><rect x="0" y="0" width="200" height="20" fill="#ffffff" stroke="#7a97b0" stroke-width="1" /><g><rect x="0" y="0.0" width="200" height="20.0" fill="#f0f0f0" /><polyline points="0,8.0 0,0.0 200,0.0 200,8.0" stroke="#7a97b0" stroke-width="1" fill="none" /><polyline points="0,12.0 0,20.0 200,20.0 200,12.0" stroke="#7a97b0" stroke-width="1" fill="none" /><polyline points="-10.0,6.0 -9.0,5.877582561890373 -8.0,5.54030230586814 -7.0,5.070737201667703 -6.0,4.583853163452858 -5.0,4.198856384453066 -4.0,4.010007503399555 -3.0,4.0635433127092035 -2.0,4.346356379136388 -1.0,4.789204200569221 0.0,5.283662185463227 1.0,5.70866977429126 2.0,5.960170286650366 3.0,5.9765876257280235 4.0,5.753902254343305 5.0,5.346635317835026 6.0,4.854499966191386 7.0,4.397988097315176 8.0,4.088869738115323 9.0,4.0028278438036216" stroke="#7a97b0" stroke-width="1" fill="none" /><polyline points="-10.0,16.0 -9.0,15.877582561890373 -8.0,15.54030230586814 -7.0,15.070737201667702 -6.0,14.583853163452858 -5.0,14.198856384453066 -4.0,14.010007503399555 -3.0,14.063543312709204 -2.0,14.346356379136388 -1.0,14.78920420056922 0.0,15.283662185463227 1.0,15.708669774291259 2.0,15.960170286650365 3.0,15.976587625728023 4.0,15.753902254343304 5.0,15.346635317835025 6.0,14.854499966191387 7.0,14.397988097315176 8.0,14.088869738115323 9.0,14.002827843803622" stroke="#7a97b0" stroke-width="1" fill="none" /><polyline points="190.0,6.0 191.0,5.877582561890373 192.0,5.54030230586814 193.0,5.070737201667703 194.0,4.583853163452858 195.0,4.198856384453066 196.0,4.010007503399555 197.0,4.0635433127092035 198.0,4.346356379136388 199.0,4.789204200569221 200.0,5.283662185463227 201.0,5.70866977429126 202.0,5.960170286650366 203.0,5.9765876257280235 204.0,5.753902254343305 205.0,5.346635317835026 206.0,4.854499966191386 207.0,4.397988097315176 208.0,4.088869738115323 209.0,4.0028278438036216" stroke="#7a97b0" stroke-width="1" fill="none" /><polyline points="190.0,16.0 191.0,15.877582561890373 192.0,15.54030230586814 193.0,15.070737201667702 194.0,14.583853163452858 195.0,14.198856384453066 196.0,14.010007503399555 197.0,14.063543312709204 198.0,14.346356379136388 199.0,14.78920420056922 200.0,15.283662185463227 201.0,15.708669774291259 202.0,15.960170286650365 203.0,15.976587625728023 204.0,15.753902254343304 205.0,15.346635317835025 206.0,14.854499966191387 207.0,14.397988097315176 208.0,14.088869738115323 209.0,14.002827843803622" stroke="#7a97b0" stroke-width="1" fill="none" /></g><text x="100.0" y="10.0" stroke="none" fill="#aaaaaa" stroke-width="0" font-size="12" font-weight="normal" font-family="Helvetica" text-anchor="middle" alignment-baseline="middle">···</text></g><g transform="translate(60,460.0)"><rect x="0" y="0" width="200" height="80.0" fill="#ffffff" stroke="#7a97b0" stroke-width="1" /><rect x="0" y="0.0" width="200" height="80.0" fill="#c9b8d4" stroke="#7a97b0" stroke-width="1" /><text x="100.0" y="40.0" stroke="none" fill="#1a2c3d" stroke-width="0" font-size="12" font-weight="normal" font-family="Helvetica" text-anchor="middle" alignment-baseline="middle">APB Peripheral Bus</text><text x="210" y="80.0" stroke="none" fill="#1a2c3d" stroke-width="0" font-size="12" font-weight="normal" font-family="Helvetica" text-anchor="start" alignment-baseline="middle">0x1a100000</text><text x="210" y="0.0" stroke="none" fill="#1a2c3d" stroke-width="0" font-size="12" font-weight="normal" font-family="Helvetica" text-anchor="start" alignment-baseline="middle">0x1a140000</text><text x="2" y="2.0" stroke="none" fill="#1a2c3d" stroke-width="0" font-size="12px" font-weight="normal" font-family="Helvetica" text-anchor="start" alignment-baseline="hanging">256 KiB</text></g><g transform="translate(60,440.0)"><rect x="0" y="0" width="200" height="20" fill="#ffffff" stroke="#7a97b0" stroke-width="1" /><g><rect x="0" y="0.0" width="200" height="20.0" fill="#f0f0f0" /><polyline points="0,8.0 0,0.0 200,0.0 200,8.0" stroke="#7a97b0" stroke-width="1" fill="none" /><polyline points="0,12.0 0,20.0 200,20.0 200,12.0" stroke="#7a97b0" stroke-width="1" fill="none" /><polyline points="-10.0,6.0 -9.0,5.877582561890373 -8.0,5.54030230586814 -7.0,5.070737201667703 -6.0,4.583853163452858 -5.0,4.198856384453066 -4.0,4.010007503399555 -3.0,4.0635433127092035 -2.0,4.346356379136388 -1.0,4.789204200569221 0.0,5.283662185463227 1.0,5.70866977429126 2.0,5.960170286650366 3.0,5.9765876257280235 4.0,5.753902254343305 5.0,5.346635317835026 6.0,4.854499966191386 7.0,4.397988097315176 8.0,4.088869738115323 9.0,4.0028278438036216" stroke="#7a97b0" stroke-width="1" fill="none" /><polyline points="-10.0,16.0 -9.0,15.877582561890373 -8.0,15.54030230586814 -7.0,15.070737201667702 -6.0,14.583853163452858 -5.0,14.198856384453066 -4.0,14.010007503399555 -3.0,14.063543312709204 -2.0,14.346356379136388 -1.0,14.78920420056922 0.0,15.283662185463227 1.0,15.708669774291259 2.0,15.960170286650365 3.0,15.976587625728023 4.0,15.753902254343304 5.0,15.346635317835025 6.0,14.854499966191387 7.0,14.397988097315176 8.0,14.088869738115323 9.0,14.002827843803622" stroke="#7a97b0" stroke-width="1" fill="none" /><polyline points="190.0,6.0 191.0,5.877582561890373 192.0,5.54030230586814 193.0,5.070737201667703 194.0,4.583853163452858 195.0,4.198856384453066 196.0,4.010007503399555 197.0,4.0635433127092035 198.0,4.346356379136388 199.0,4.789204200569221 200.0,5.283662185463227 201.0,5.70866977429126 202.0,5.960170286650366 203.0,5.9765876257280235 204.0,5.753902254343305 205.0,5.346635317835026 206.0,4.854499966191386 207.0,4.397988097315176 208.0,4.088869738115323 209.0,4.0028278438036216" stroke="#7a97b0" stroke-width="1" fill="none" /><polyline points="190.0,16.0 191.0,15.877582561890373 192.0,15.54030230586814 193.0,15.070737201667702 194.0,14.583853163452858 195.0,14.198856384453066 196.0,14.010007503399555 197.0,14.063543312709204 198.0,14.346356379136388 199.0,14.78920420056922 200.0,15.283662185463227 201.0,15.708669774291259 202.0,15.960170286650365 203.0,15.976587625728023 204.0,15.753902254343304 205.0,15.346635317835025 206.0,14.854499966191387 207.0,14.397988097315176 208.0,14.088869738115323 209.0,14.002827843803622" stroke="#7a97b0" stroke-width="1" fill="none" /></g><text x="100.0" y="10.0" stroke="none" fill="#aaaaaa" stroke-width="0" font-size="12" font-weight="normal" font-family="Helvetica" text-anchor="middle" alignment-baseline="middle">···</text></g><g transform="translate(60,80.0)"><rect x="0" y="0" width="200" height="360.0" fill="#ffffff" stroke="#7a97b0" stroke-width="1" /><rect x="0" y="340.0" width="200" height="20.0" fill="#b8d4e8" stroke="#7a97b0" stroke-width="1" /><text x="100.0" y="350.0" stroke="none" fill="#1a2c3d" stroke-width="0" font-size="12" font-weight="normal" font-family="Helvetica" text-anchor="middle" alignment-baseline="middle">Private Bank 0</text><text x="210" y="360.0" stroke="none" fill="#1a2c3d" stroke-width="0" font-size="12" font-weight="normal" font-family="Helvetica" text-anchor="start" alignment-baseline="middle">0x1c000000</text><text x="210" y="340.0" stroke="none" fill="#1a2c3d" stroke-width="0" font-size="12" font-weight="normal" font-family="Helvetica" text-anchor="start" alignment-baseline="middle">0x1c008000</text><text x="2" y="342.0" stroke="none" fill="#1a2c3d" stroke-width="0" font-size="12px" font-weight="normal" font-family="Helvetica" text-anchor="start" alignment-baseline="hanging">32 KiB</text><rect x="0" y="320.0" width="200" height="20.0" fill="#b8d4e8" stroke="#7a97b0" stroke-width="1" /><text x="100.0" y="330.0" stroke="none" fill="#1a2c3d" stroke-width="0" font-size="12" font-weight="normal" font-family="Helvetica" text-anchor="middle" alignment-baseline="middle">Private Bank 1</text><text x="210" y="340.0" stroke="none" fill="#1a2c3d" stroke-width="0" font-size="12" font-weight="normal" font-family="Helvetica" text-anchor="start" alignment-baseline="middle">0x1c008000</text><text x="210" y="320.0" stroke="none" fill="#1a2c3d" stroke-width="0" font-size="12" font-weight="normal" font-family="Helvetica" text-anchor="start" alignment-baseline="middle">0x1c010000</text><text x="2" y="322.0" stroke="none" fill="#1a2c3d" stroke-width="0" font-size="12px" font-weight="normal" font-family="Helvetica" text-anchor="start" alignment-baseline="hanging">32 KiB</text><rect x="0" y="0.0" width="200" height="320.0" fill="#a8c4d4" stroke="#7a97b0" stroke-width="1" /><text x="100.0" y="160.0" stroke="none" fill="#1a2c3d" stroke-width="0" font-size="12" font-weight="normal" font-family="Helvetica" text-anchor="middle" alignment-baseline="middle">Shared TCDM</text><text x="210" y="320.0" stroke="none" fill="#1a2c3d" stroke-width="0" font-size="12" font-weight="normal" font-family="Helvetica" text-anchor="start" alignment-baseline="middle">0x1c010000</text><text x="210" y="0.0" stroke="none" fill="#1a2c3d" stroke-width="0" font-size="12" font-weight="normal" font-family="Helvetica" text-anchor="start" alignment-baseline="middle">0x1c090000</text><text x="2" y="2.0" stroke="none" fill="#1a2c3d" stroke-width="0" font-size="12px" font-weight="normal" font-family="Helvetica" text-anchor="start" alignment-baseline="hanging">512 KiB</text></g></g><g><text x="100.0" y="-20" stroke="none" fill="#1a2c3d" stroke-width="0" font-size="24px" font-weight="normal" font-family="Helvetica" text-anchor="middle" alignment-baseline="middle" transform="translate(400,80)">APB Peripheral Bus</text><g transform="translate(400,660)"><rect x="0" y="0" width="200" height="300" fill="#ffffff" stroke="#7a97b0" stroke-width="1" /><rect x="0" y="257.1428571428571" width="200" height="42.857142857142854" fill="#c9b8d4" stroke="#7a97b0" stroke-width="1" /><text x="100.0" y="278.57142857142856" stroke="none" fill="#1a2c3d" stroke-width="0" font-size="12" font-weight="normal" font-family="Helvetica" text-anchor="middle" alignment-baseline="middle">FLL</text><text x="210" y="299.99999999999994" stroke="none" fill="#1a2c3d" stroke-width="0" font-size="12" font-weight="normal" font-family="Helvetica" text-anchor="start" alignment-baseline="middle">0x1a100000</text><text x="210" y="257.1428571428571" stroke="none" fill="#1a2c3d" stroke-width="0" font-size="12" font-weight="normal" font-family="Helvetica" text-anchor="start" alignment-baseline="middle">0x1a101000</text><text x="2" y="259.1428571428571" stroke="none" fill="#1a2c3d" stroke-width="0" font-size="12px" font-weight="normal" font-family="Helvetica" text-anchor="start" alignment-baseline="hanging">4 KiB</text><rect x="0" y="214.28571428571428" width="200" height="42.857142857142854" fill="#a8d5ba" stroke="#7a97b0" stroke-width="1" /><text x="100.0" y="235.7142857142857" stroke="none" fill="#1a2c3d" stroke-width="0" font-size="12" font-weight="normal" font-family="Helvetica" text-anchor="middle" alignment-baseline="middle">GPIO (48 pins)</text><text x="210" y="257.1428571428571" stroke="none" fill="#1a2c3d" stroke-width="0" font-size="12" font-weight="normal" font-family="Helvetica" text-anchor="start" alignment-baseline="middle">0x1a101000</text><text x="210" y="214.28571428571428" stroke="none" fill="#1a2c3d" stroke-width="0" font-size="12" font-weight="normal" font-family="Helvetica" text-anchor="start" alignment-baseline="middle">0x1a102000</text><text x="2" y="216.28571428571428" stroke="none" fill="#1a2c3d" stroke-width="0" font-size="12px" font-weight="normal" font-family="Helvetica" text-anchor="start" alignment-baseline="hanging">4 KiB</text><rect x="0" y="128.57142857142856" width="200" height="85.71428571428571" fill="#b8d4e8" stroke="#7a97b0" stroke-width="1" /><text x="100.0" y="171.42857142857142" stroke="none" fill="#1a2c3d" stroke-width="0" font-size="12" font-weight="normal" font-family="Helvetica" text-anchor="middle" alignment-baseline="middle">uDMA</text><text x="210" y="214.28571428571428" stroke="none" fill="#1a2c3d" stroke-width="0" font-size="12" font-weight="normal" font-family="Helvetica" text-anchor="start" alignment-baseline="middle">0x1a102000</text><text x="210" y="128.57142857142856" stroke="none" fill="#1a2c3d" stroke-width="0" font-size="12" font-weight="normal" font-family="Helvetica" text-anchor="start" alignment-baseline="middle">0x1a104000</text><text x="2" y="130.57142857142856" stroke="none" fill="#1a2c3d" stroke-width="0" font-size="12px" font-weight="normal" font-family="Helvetica" text-anchor="start" alignment-baseline="hanging">8 KiB</text><rect x="0" y="85.71428571428571" width="200" height="42.857142857142854" fill="#c9b8d4" stroke="#7a97b0" stroke-width="1" /><text x="100.0" y="107.14285714285714" stroke="none" fill="#1a2c3d" stroke-width="0" font-size="12" font-weight="normal" font-family="Helvetica" text-anchor="middle" alignment-baseline="middle">SoC Control</text><text x="210" y="128.57142857142856" stroke="none" fill="#1a2c3d" stroke-width="0" font-size="12" font-weight="normal" font-family="Helvetica" text-anchor="start" alignment-baseline="middle">0x1a104000</text><text x="210" y="85.71428571428571" stroke="none" fill="#1a2c3d" stroke-width="0" font-size="12" font-weight="normal" font-family="Helvetica" text-anchor="start" alignment-baseline="middle">0x1a105000</text><text x="2" y="87.71428571428571" stroke="none" fill="#1a2c3d" stroke-width="0" font-size="12px" font-weight="normal" font-family="Helvetica" text-anchor="start" alignment-baseline="hanging">4 KiB</text><rect x="0" y="42.857142857142854" width="200" height="42.857142857142854" fill="#d4c4a8" stroke="#7a97b0" stroke-width="1" /><text x="100.0" y="64.28571428571428" stroke="none" fill="#1a2c3d" stroke-width="0" font-size="12" font-weight="normal" font-family="Helvetica" text-anchor="middle" alignment-baseline="middle">Adv Timer</text><text x="210" y="85.71428571428571" stroke="none" fill="#1a2c3d" stroke-width="0" font-size="12" font-weight="normal" font-family="Helvetica" text-anchor="start" alignment-baseline="middle">0x1a105000</text><text x="210" y="42.857142857142854" stroke="none" fill="#1a2c3d" stroke-width="0" font-size="12" font-weight="normal" font-family="Helvetica" text-anchor="start" alignment-baseline="middle">0x1a106000</text><text x="2" y="44.857142857142854" stroke="none" fill="#1a2c3d" stroke-width="0" font-size="12px" font-weight="normal" font-family="Helvetica" text-anchor="start" alignment-baseline="hanging">4 KiB</text><rect x="0" y="0.0" width="200" height="42.857142857142854" fill="#d4c4a8" stroke="#7a97b0" stroke-width="1" /><text x="100.0" y="21.428571428571427" stroke="none" fill="#1a2c3d" stroke-width="0" font-size="12" font-weight="normal" font-family="Helvetica" text-anchor="middle" alignment-baseline="middle">SoC Event Gen</text><text x="210" y="42.857142857142854" stroke="none" fill="#1a2c3d" stroke-width="0" font-size="12" font-weight="normal" font-family="Helvetica" text-anchor="start" alignment-baseline="middle">0x1a106000</text><text x="210" y="0.0" stroke="none" fill="#1a2c3d" stroke-width="0" font-size="12" font-weight="normal" font-family="Helvetica" text-anchor="start" alignment-baseline="middle">0x1a107000</text><text x="2" y="2.0" stroke="none" fill="#1a2c3d" stroke-width="0" font-size="12px" font-weight="normal" font-family="Helvetica" text-anchor="start" alignment-baseline="hanging">4 KiB</text></g><g transform="translate(400,640)"><rect x="0" y="0" width="200" height="20" fill="#ffffff" stroke="#7a97b0" stroke-width="1" /><g><rect x="0" y="0.0" width="200" height="20.0" fill="#eaecee" /><polyline points="0,8.0 0,0.0 200,0.0 200,8.0" stroke="#7a97b0" stroke-width="1" fill="none" /><polyline points="0,12.0 0,20.0 200,20.0 200,12.0" stroke="#7a97b0" stroke-width="1" fill="none" /><polyline points="-10.0,6.0 -9.0,5.877582561890373 -8.0,5.54030230586814 -7.0,5.070737201667703 -6.0,4.583853163452858 -5.0,4.198856384453066 -4.0,4.010007503399555 -3.0,4.0635433127092035 -2.0,4.346356379136388 -1.0,4.789204200569221 0.0,5.283662185463227 1.0,5.70866977429126 2.0,5.960170286650366 3.0,5.9765876257280235 4.0,5.753902254343305 5.0,5.346635317835026 6.0,4.854499966191386 7.0,4.397988097315176 8.0,4.088869738115323 9.0,4.0028278438036216" stroke="#7a97b0" stroke-width="1" fill="none" /><polyline points="-10.0,16.0 -9.0,15.877582561890373 -8.0,15.54030230586814 -7.0,15.070737201667702 -6.0,14.583853163452858 -5.0,14.198856384453066 -4.0,14.010007503399555 -3.0,14.063543312709204 -2.0,14.346356379136388 -1.0,14.78920420056922 0.0,15.283662185463227 1.0,15.708669774291259 2.0,15.960170286650365 3.0,15.976587625728023 4.0,15.753902254343304 5.0,15.346635317835025 6.0,14.854499966191387 7.0,14.397988097315176 8.0,14.088869738115323 9.0,14.002827843803622" stroke="#7a97b0" stroke-width="1" fill="none" /><polyline points="190.0,6.0 191.0,5.877582561890373 192.0,5.54030230586814 193.0,5.070737201667703 194.0,4.583853163452858 195.0,4.198856384453066 196.0,4.010007503399555 197.0,4.0635433127092035 198.0,4.346356379136388 199.0,4.789204200569221 200.0,5.283662185463227 201.0,5.70866977429126 202.0,5.960170286650366 203.0,5.9765876257280235 204.0,5.753902254343305 205.0,5.346635317835026 206.0,4.854499966191386 207.0,4.397988097315176 208.0,4.088869738115323 209.0,4.0028278438036216" stroke="#7a97b0" stroke-width="1" fill="none" /><polyline points="190.0,16.0 191.0,15.877582561890373 192.0,15.54030230586814 193.0,15.070737201667702 194.0,14.583853163452858 195.0,14.198856384453066 196.0,14.010007503399555 197.0,14.063543312709204 198.0,14.346356379136388 199.0,14.78920420056922 200.0,15.283662185463227 201.0,15.708669774291259 202.0,15.960170286650365 203.0,15.976587625728023 204.0,15.753902254343304 205.0,15.346635317835025 206.0,14.854499966191387 207.0,14.397988097315176 208.0,14.088869738115323 209.0,14.002827843803622" stroke="#7a97b0" stroke-width="1" fill="none" /></g><text x="100.0" y="10.0" stroke="none" fill="#9aacb8" stroke-width="0" font-size="12" font-weight="normal" font-family="Helvetica" text-anchor="middle" alignment-baseline="middle">Reserved</text></g><g transform="translate(400,460.0)"><rect x="0" y="0" width="200" height="180.0" fill="#ffffff" stroke="#7a97b0" stroke-width="1" /><rect x="0" y="90.0" width="200" height="90.0" fill="#d4c4a8" stroke="#7a97b0" stroke-width="1" /><text x="100.0" y="135.0" stroke="none" fill="#1a2c3d" stroke-width="0" font-size="12" font-weight="normal" font-family="Helvetica" text-anchor="middle" alignment-baseline="middle">Event Unit</text><text x="210" y="180.0" stroke="none" fill="#1a2c3d" stroke-width="0" font-size="12" font-weight="normal" font-family="Helvetica" text-anchor="start" alignment-baseline="middle">0x1a109000</text><text x="210" y="90.0" stroke="none" fill="#1a2c3d" stroke-width="0" font-size="12" font-weight="normal" font-family="Helvetica" text-anchor="start" alignment-baseline="middle">0x1a10b000</text><text x="2" y="92.0" stroke="none" fill="#1a2c3d" stroke-width="0" font-size="12px" font-weight="normal" font-family="Helvetica" text-anchor="start" alignment-baseline="hanging">8 KiB</text><rect x="0" y="45.0" width="200" height="45.0" fill="#d4c4a8" stroke="#7a97b0" stroke-width="1" /><text x="100.0" y="67.5" stroke="none" fill="#1a2c3d" stroke-width="0" font-size="12" font-weight="normal" font-family="Helvetica" text-anchor="middle" alignment-baseline="middle">APB Timer</text><text x="210" y="90.0" stroke="none" fill="#1a2c3d" stroke-width="0" font-size="12" font-weight="normal" font-family="Helvetica" text-anchor="start" alignment-baseline="middle">0x1a10b000</text><text x="210" y="45.0" stroke="none" fill="#1a2c3d" stroke-width="0" font-size="12" font-weight="normal" font-family="Helvetica" text-anchor="start" alignment-baseline="middle">0x1a10c000</text><text x="2" y="47.0" stroke="none" fill="#1a2c3d" stroke-width="0" font-size="12px" font-weight="normal" font-family="Helvetica" text-anchor="start" alignment-baseline="hanging">4 KiB</text><rect x="0" y="0.0" width="200" height="45.0" fill="#a8c4d4" stroke="#7a97b0" stroke-width="1" /><text x="100.0" y="22.5" stroke="none" fill="#1a2c3d" stroke-width="0" font-size="12" font-weight="normal" font-family="Helvetica" text-anchor="middle" alignment-baseline="middle">HWPE</text><text x="210" y="45.0" stroke="none" fill="#1a2c3d" stroke-width="0" font-size="12" font-weight="normal" font-family="Helvetica" text-anchor="start" alignment-baseline="middle">0x1a10c000</text><text x="210" y="0.0" stroke="none" fill="#1a2c3d" stroke-width="0" font-size="12" font-weight="normal" font-family="Helvetica" text-anchor="start" alignment-baseline="middle">0x1a10d000</text><text x="2" y="2.0" stroke="none" fill="#1a2c3d" stroke-width="0" font-size="12px" font-weight="normal" font-family="Helvetica" text-anchor="start" alignment-baseline="hanging">4 KiB</text></g><g transform="translate(400,440.0)"><rect x="0" y="0" width="200" height="20" fill="#ffffff" stroke="#7a97b0" stroke-width="1" /><g><rect x="0" y="0.0" width="200" height="20.0" fill="#eaecee" /><polyline points="0,8.0 0,0.0 200,0.0 200,8.0" stroke="#7a97b0" stroke-width="1" fill="none" /><polyline points="0,12.0 0,20.0 200,20.0 200,12.0" stroke="#7a97b0" stroke-width="1" fill="none" /><polyline points="-10.0,6.0 -9.0,5.877582561890373 -8.0,5.54030230586814 -7.0,5.070737201667703 -6.0,4.583853163452858 -5.0,4.198856384453066 -4.0,4.010007503399555 -3.0,4.0635433127092035 -2.0,4.346356379136388 -1.0,4.789204200569221 0.0,5.283662185463227 1.0,5.70866977429126 2.0,5.960170286650366 3.0,5.9765876257280235 4.0,5.753902254343305 5.0,5.346635317835026 6.0,4.854499966191386 7.0,4.397988097315176 8.0,4.088869738115323 9.0,4.0028278438036216" stroke="#7a97b0" stroke-width="1" fill="none" /><polyline points="-10.0,16.0 -9.0,15.877582561890373 -8.0,15.54030230586814 -7.0,15.070737201667702 -6.0,14.583853163452858 -5.0,14.198856384453066 -4.0,14.010007503399555 -3.0,14.063543312709204 -2.0,14.346356379136388 -1.0,14.78920420056922 0.0,15.283662185463227 1.0,15.708669774291259 2.0,15.960170286650365 3.0,15.976587625728023 4.0,15.753902254343304 5.0,15.346635317835025 6.0,14.854499966191387 7.0,14.397988097315176 8.0,14.088869738115323 9.0,14.002827843803622" stroke="#7a97b0" stroke-width="1" fill="none" /><polyline points="190.0,6.0 191.0,5.877582561890373 192.0,5.54030230586814 193.0,5.070737201667703 194.0,4.583853163452858 195.0,4.198856384453066 196.0,4.010007503399555 197.0,4.0635433127092035 198.0,4.346356379136388 199.0,4.789204200569221 200.0,5.283662185463227 201.0,5.70866977429126 202.0,5.960170286650366 203.0,5.9765876257280235 204.0,5.753902254343305 205.0,5.346635317835026 206.0,4.854499966191386 207.0,4.397988097315176 208.0,4.088869738115323 209.0,4.0028278438036216" stroke="#7a97b0" stroke-width="1" fill="none" /><polyline points="190.0,16.0 191.0,15.877582561890373 192.0,15.54030230586814 193.0,15.070737201667702 194.0,14.583853163452858 195.0,14.198856384453066 196.0,14.010007503399555 197.0,14.063543312709204 198.0,14.346356379136388 199.0,14.78920420056922 200.0,15.283662185463227 201.0,15.708669774291259 202.0,15.960170286650365 203.0,15.976587625728023 204.0,15.753902254343304 205.0,15.346635317835025 206.0,14.854499966191387 207.0,14.397988097315176 208.0,14.088869738115323 209.0,14.002827843803622" stroke="#7a97b0" stroke-width="1" fill="none" /></g><text x="100.0" y="10.0" stroke="none" fill="#9aacb8" stroke-width="0" font-size="12" font-weight="normal" font-family="Helvetica" text-anchor="middle" alignment-baseline="middle">Reserved</text></g><g transform="translate(400,100.0)"><rect x="0" y="0" width="200" height="340.0" fill="#ffffff" stroke="#7a97b0" stroke-width="1" /><rect x="0" y="320.0" width="200" height="20.0" fill="#e8eedc" stroke="#7a97b0" stroke-width="1" /><text x="100.0" y="330.0" stroke="none" fill="#1a2c3d" stroke-width="0" font-size="12" font-weight="normal" font-family="Helvetica" text-anchor="middle" alignment-baseline="middle">Virtual Stdout</text><text x="210" y="340.0" stroke="none" fill="#1a2c3d" stroke-width="0" font-size="12" font-weight="normal" font-family="Helvetica" text-anchor="start" alignment-baseline="middle">0x1a10f000</text><text x="210" y="320.0" stroke="none" fill="#1a2c3d" stroke-width="0" font-size="12" font-weight="normal" font-family="Helvetica" text-anchor="start" alignment-baseline="middle">0x1a110000</text><text x="2" y="322.0" stroke="none" fill="#1a2c3d" stroke-width="0" font-size="12px" font-weight="normal" font-family="Helvetica" text-anchor="start" alignment-baseline="hanging">4 KiB</text><rect x="0" y="0.0" width="200" height="320.0" fill="#d4a8b8" stroke="#7a97b0" stroke-width="1" /><text x="100.0" y="160.0" stroke="none" fill="#1a2c3d" stroke-width="0" font-size="12" font-weight="normal" font-family="Helvetica" text-anchor="middle" alignment-baseline="middle">Debug Unit</text><text x="210" y="320.0" stroke="none" fill="#1a2c3d" stroke-width="0" font-size="12" font-weight="normal" font-family="Helvetica" text-anchor="start" alignment-baseline="middle">0x1a110000</text><text x="210" y="0.0" stroke="none" fill="#1a2c3d" stroke-width="0" font-size="12" font-weight="normal" font-family="Helvetica" text-anchor="start" alignment-baseline="middle">0x1a120000</text><text x="2" y="2.0" stroke="none" fill="#1a2c3d" stroke-width="0" font-size="12px" font-weight="normal" font-family="Helvetica" text-anchor="start" alignment-baseline="hanging">64 KiB</text></g><g transform="translate(400,80.0)"><rect x="0" y="0" width="200" height="20" fill="#ffffff" stroke="#7a97b0" stroke-width="1" /><rect x="0" y="0.0" width="200" height="20.0" fill="#c4b8d8" stroke="#7a97b0" stroke-width="1" /><text x="100.0" y="10.0" stroke="none" fill="#1a2c3d" stroke-width="0" font-size="12" font-weight="normal" font-family="Helvetica" text-anchor="middle" alignment-baseline="middle">Chip Control</text><text x="210" y="20.0" stroke="none" fill="#1a2c3d" stroke-width="0" font-size="12" font-weight="normal" font-family="Helvetica" text-anchor="start" alignment-baseline="middle">0x1a120000</text><text x="210" y="0.0" stroke="none" fill="#1a2c3d" stroke-width="0" font-size="12" font-weight="normal" font-family="Helvetica" text-anchor="start" alignment-baseline="middle">0x1a140000</text><text x="2" y="2.0" stroke="none" fill="#1a2c3d" stroke-width="0" font-size="12px" font-weight="normal" font-family="Helvetica" text-anchor="start" alignment-baseline="hanging">128 KiB</text></g></g><g><text x="100.0" y="-20" stroke="none" fill="#1a2c3d" stroke-width="0" font-size="24px" font-weight="normal" font-family="Helvetica" text-anchor="middle" alignment-baseline="middle" transform="translate(760,80)">Chip Control</text><g transform="translate(760,100.0)"><rect x="0" y="0" width="200" height="180.0" fill="#ffffff" stroke="#7a97b0" stroke-width="1" /><rect x="0" y="90.0" width="200" height="90.0" fill="#dce8f0" stroke="#7a97b0" stroke-width="1" /><text x="100.0" y="135.0" stroke="none" fill="#1a2c3d" stroke-width="0" font-size="12" font-weight="normal" font-family="Helvetica" text-anchor="middle" alignment-baseline="middle">FLL Config</text><text x="210" y="180.0" stroke="none" fill="#1a2c3d" stroke-width="0" font-size="12" font-weight="normal" font-family="Helvetica" text-anchor="start" alignment-baseline="middle">0x1a120000</text><text x="210" y="90.0" stroke="none" fill="#1a2c3d" stroke-width="0" font-size="12" font-weight="normal" font-family="Helvetica" text-anchor="start" alignment-baseline="middle">0x1a121000</text><text x="2" y="92.0" stroke="none" fill="#1a2c3d" stroke-width="0" font-size="12px" font-weight="normal" font-family="Helvetica" text-anchor="start" alignment-baseline="hanging">4 KiB</text><rect x="0" y="0.0" width="200" height="90.0" fill="#dce8f0" stroke="#7a97b0" stroke-width="1" /><text x="100.0" y="45.0" stroke="none" fill="#1a2c3d" stroke-width="0" font-size="12" font-weight="normal" font-family="Helvetica" text-anchor="middle" alignment-baseline="middle">Pad Config</text><text x="210" y="90.0" stroke="none" fill="#1a2c3d" stroke-width="0" font-size="12" font-weight="normal" font-family="Helvetica" text-anchor="start" alignment-baseline="middle">0x1a121000</text><text x="210" y="0.0" stroke="none" fill="#1a2c3d" stroke-width="0" font-size="12" font-weight="normal" font-family="Helvetica" text-anchor="start" alignment-baseline="middle">0x1a122000</text><text x="2" y="2.0" stroke="none" fill="#1a2c3d" stroke-width="0" font-size="12px" font-weight="normal" font-family="Helvetica" text-anchor="start" alignment-baseline="hanging">4 KiB</text></g><g transform="translate(760,80.0)"><rect x="0" y="0" width="200" height="20" fill="#ffffff" stroke="#7a97b0" stroke-width="1" /><g><rect x="0" y="0.0" width="200" height="20.0" fill="#dce8f0" /><polyline points="0,8.0 0,0.0 200,0.0 200,8.0" stroke="#7a97b0" stroke-width="1" fill="none" /><polyline points="0,12.0 0,20.0 200,20.0 200,12.0" stroke="#7a97b0" stroke-width="1" fill="none" /><polyline points="-10.0,6.0 -9.0,5.877582561890373 -8.0,5.54030230586814 -7.0,5.070737201667703 -6.0,4.583853163452858 -5.0,4.198856384453066 -4.0,4.010007503399555 -3.0,4.0635433127092035 -2.0,4.346356379136388 -1.0,4.789204200569221 0.0,5.283662185463227 1.0,5.70866977429126 2.0,5.960170286650366 3.0,5.9765876257280235 4.0,5.753902254343305 5.0,5.346635317835026 6.0,4.854499966191386 7.0,4.397988097315176 8.0,4.088869738115323 9.0,4.0028278438036216" stroke="#7a97b0" stroke-width="1" fill="none" /><polyline points="-10.0,16.0 -9.0,15.877582561890373 -8.0,15.54030230586814 -7.0,15.070737201667702 -6.0,14.583853163452858 -5.0,14.198856384453066 -4.0,14.010007503399555 -3.0,14.063543312709204 -2.0,14.346356379136388 -1.0,14.78920420056922 0.0,15.283662185463227 1.0,15.708669774291259 2.0,15.960170286650365 3.0,15.976587625728023 4.0,15.753902254343304 5.0,15.346635317835025 6.0,14.854499966191387 7.0,14.397988097315176 8.0,14.088869738115323 9.0,14.002827843803622" stroke="#7a97b0" stroke-width="1" fill="none" /><polyline points="190.0,6.0 191.0,5.877582561890373 192.0,5.54030230586814 193.0,5.070737201667703 194.0,4.583853163452858 195.0,4.198856384453066 196.0,4.010007503399555 197.0,4.0635433127092035 198.0,4.346356379136388 199.0,4.789204200569221 200.0,5.283662185463227 201.0,5.70866977429126 202.0,5.960170286650366 203.0,5.9765876257280235 204.0,5.753902254343305 205.0,5.346635317835026 206.0,4.854499966191386 207.0,4.397988097315176 208.0,4.088869738115323 209.0,4.0028278438036216" stroke="#7a97b0" stroke-width="1" fill="none" /><polyline points="190.0,16.0 191.0,15.877582561890373 192.0,15.54030230586814 193.0,15.070737201667702 194.0,14.583853163452858 195.0,14.198856384453066 196.0,14.010007503399555 197.0,14.063543312709204 198.0,14.346356379136388 199.0,14.78920420056922 200.0,15.283662185463227 201.0,15.708669774291259 202.0,15.960170286650365 203.0,15.976587625728023 204.0,15.753902254343304 205.0,15.346635317835025 206.0,14.854499966191387 207.0,14.397988097315176 208.0,14.088869738115323 209.0,14.002827843803622" stroke="#7a97b0" stroke-width="1" fill="none" /></g><text x="100.0" y="10.0" stroke="none" fill="#1a2c3d" stroke-width="0" font-size="12" font-weight="normal" font-family="Helvetica" text-anchor="middle" alignment-baseline="middle">···</text></g></g><g><text x="100.0" y="-20" stroke="none" fill="#1a2c3d" stroke-width="0" font-size="24px" font-weight="normal" font-family="Helvetica" text-anchor="middle" alignment-baseline="middle" transform="translate(760,330)">uDMA Channels</text><g transform="translate(760,360)"><rect x="0" y="0" width="200" height="300" fill="#ffffff" stroke="#7a97b0" stroke-width="1" /><rect x="0" y="262.5" width="200" height="37.5" fill="#dce8f0" stroke="#7a97b0" stroke-width="1" /><text x="100.0" y="281.25" stroke="none" fill="#1a2c3d" stroke-width="0" font-size="12" font-weight="normal" font-family="Helvetica" text-anchor="middle" alignment-baseline="middle">Global CG/Event</text><text x="210" y="300.0" stroke="none" fill="#1a2c3d" stroke-width="0" font-size="12" font-weight="normal" font-family="Helvetica" text-anchor="start" alignment-baseline="middle">0x1a102000</text><text x="210" y="262.5" stroke="none" fill="#1a2c3d" stroke-width="0" font-size="12" font-weight="normal" font-family="Helvetica" text-anchor="start" alignment-baseline="middle">0x1a102080</text><text x="2" y="264.5" stroke="none" fill="#1a2c3d" stroke-width="0" font-size="12px" font-weight="normal" font-family="Helvetica" text-anchor="start" alignment-baseline="hanging">128 B</text><rect x="0" y="224.99999999999997" width="200" height="37.5" fill="#a8d5ba" stroke="#7a97b0" stroke-width="1" /><text x="100.0" y="243.74999999999997" stroke="none" fill="#1a2c3d" stroke-width="0" font-size="12" font-weight="normal" font-family="Helvetica" text-anchor="middle" alignment-baseline="middle">UART</text><text x="210" y="262.5" stroke="none" fill="#1a2c3d" stroke-width="0" font-size="12" font-weight="normal" font-family="Helvetica" text-anchor="start" alignment-baseline="middle">0x1a102080</text><text x="210" y="224.99999999999997" stroke="none" fill="#1a2c3d" stroke-width="0" font-size="12" font-weight="normal" font-family="Helvetica" text-anchor="start" alignment-baseline="middle">0x1a102100</text><text x="2" y="226.99999999999997" stroke="none" fill="#1a2c3d" stroke-width="0" font-size="12px" font-weight="normal" font-family="Helvetica" text-anchor="start" alignment-baseline="hanging">128 B</text><rect x="0" y="187.5" width="200" height="37.5" fill="#a8d5ba" stroke="#7a97b0" stroke-width="1" /><text x="100.0" y="206.25" stroke="none" fill="#1a2c3d" stroke-width="0" font-size="12" font-weight="normal" font-family="Helvetica" text-anchor="middle" alignment-baseline="middle">QSPI Master</text><text x="210" y="225.0" stroke="none" fill="#1a2c3d" stroke-width="0" font-size="12" font-weight="normal" font-family="Helvetica" text-anchor="start" alignment-baseline="middle">0x1a102100</text><text x="210" y="187.5" stroke="none" fill="#1a2c3d" stroke-width="0" font-size="12" font-weight="normal" font-family="Helvetica" text-anchor="start" alignment-baseline="middle">0x1a102180</text><text x="2" y="189.5" stroke="none" fill="#1a2c3d" stroke-width="0" font-size="12px" font-weight="normal" font-family="Helvetica" text-anchor="start" alignment-baseline="hanging">128 B</text><rect x="0" y="150.0" width="200" height="37.5" fill="#a8d5ba" stroke="#7a97b0" stroke-width="1" /><text x="100.0" y="168.75" stroke="none" fill="#1a2c3d" stroke-width="0" font-size="12" font-weight="normal" font-family="Helvetica" text-anchor="middle" alignment-baseline="middle">I2C0</text><text x="210" y="187.5" stroke="none" fill="#1a2c3d" stroke-width="0" font-size="12" font-weight="normal" font-family="Helvetica" text-anchor="start" alignment-baseline="middle">0x1a102180</text><text x="210" y="150.0" stroke="none" fill="#1a2c3d" stroke-width="0" font-size="12" font-weight="normal" font-family="Helvetica" text-anchor="start" alignment-baseline="middle">0x1a102200</text><text x="2" y="152.0" stroke="none" fill="#1a2c3d" stroke-width="0" font-size="12px" font-weight="normal" font-family="Helvetica" text-anchor="start" alignment-baseline="hanging">128 B</text><rect x="0" y="112.49999999999999" width="200" height="37.5" fill="#a8d5ba" stroke="#7a97b0" stroke-width="1" /><text x="100.0" y="131.25" stroke="none" fill="#1a2c3d" stroke-width="0" font-size="12" font-weight="normal" font-family="Helvetica" text-anchor="middle" alignment-baseline="middle">I2C1</text><text x="210" y="150.0" stroke="none" fill="#1a2c3d" stroke-width="0" font-size="12" font-weight="normal" font-family="Helvetica" text-anchor="start" alignment-baseline="middle">0x1a102200</text><text x="210" y="112.49999999999999" stroke="none" fill="#1a2c3d" stroke-width="0" font-size="12" font-weight="normal" font-family="Helvetica" text-anchor="start" alignment-baseline="middle">0x1a102280</text><text x="2" y="114.49999999999999" stroke="none" fill="#1a2c3d" stroke-width="0" font-size="12px" font-weight="normal" font-family="Helvetica" text-anchor="start" alignment-baseline="hanging">128 B</text><rect x="0" y="75.0" width="200" height="37.5" fill="#eaecee" stroke="#7a97b0" stroke-width="1" /><text x="100.0" y="93.75" stroke="none" fill="#9aacb8" stroke-width="0" font-size="12" font-weight="normal" font-family="Helvetica" text-anchor="middle" alignment-baseline="middle">SDIO (n/a)</text><text x="210" y="112.5" stroke="none" fill="#9aacb8" stroke-width="0" font-size="12" font-weight="normal" font-family="Helvetica" text-anchor="start" alignment-baseline="middle">0x1a102280</text><text x="210" y="75.0" stroke="none" fill="#9aacb8" stroke-width="0" font-size="12" font-weight="normal" font-family="Helvetica" text-anchor="start" alignment-baseline="middle">0x1a102300</text><text x="2" y="77.0" stroke="none" fill="#9aacb8" stroke-width="0" font-size="12px" font-weight="normal" font-family="Helvetica" text-anchor="start" alignment-baseline="hanging">128 B</text><rect x="0" y="37.5" width="200" height="37.5" fill="#d4a8b8" stroke="#7a97b0" stroke-width="1" /><text x="100.0" y="56.25" stroke="none" fill="#1a2c3d" stroke-width="0" font-size="12" font-weight="normal" font-family="Helvetica" text-anchor="middle" alignment-baseline="middle">I2S</text><text x="210" y="75.0" stroke="none" fill="#1a2c3d" stroke-width="0" font-size="12" font-weight="normal" font-family="Helvetica" text-anchor="start" alignment-baseline="middle">0x1a102300</text><text x="210" y="37.5" stroke="none" fill="#1a2c3d" stroke-width="0" font-size="12" font-weight="normal" font-family="Helvetica" text-anchor="start" alignment-baseline="middle">0x1a102380</text><text x="2" y="39.5" stroke="none" fill="#1a2c3d" stroke-width="0" font-size="12px" font-weight="normal" font-family="Helvetica" text-anchor="start" alignment-baseline="hanging">128 B</text><rect x="0" y="0.0" width="200" height="37.5" fill="#d4a8b8" stroke="#7a97b0" stroke-width="1" /><text x="100.0" y="18.75" stroke="none" fill="#1a2c3d" stroke-width="0" font-size="12" font-weight="normal" font-family="Helvetica" text-anchor="middle" alignment-baseline="middle">Camera (CPI)</text><text x="210" y="37.5" stroke="none" fill="#1a2c3d" stroke-width="0" font-size="12" font-weight="normal" font-family="Helvetica" text-anchor="start" alignment-baseline="middle">0x1a102380</text><text x="210" y="0.0" stroke="none" fill="#1a2c3d" stroke-width="0" font-size="12" font-weight="normal" font-family="Helvetica" text-anchor="start" alignment-baseline="middle">0x1a102400</text><text x="2" y="2.0" stroke="none" fill="#1a2c3d" stroke-width="0" font-size="12px" font-weight="normal" font-family="Helvetica" text-anchor="start" alignment-baseline="hanging">128 B</text></g><g transform="translate(760,340)"><rect x="0" y="0" width="200" height="20" fill="#ffffff" stroke="#7a97b0" stroke-width="1" /><g><rect x="0" y="0.0" width="200" height="20.0" fill="#dce8f0" /><polyline points="0,8.0 0,0.0 200,0.0 200,8.0" stroke="#7a97b0" stroke-width="1" fill="none" /><polyline points="0,12.0 0,20.0 200,20.0 200,12.0" stroke="#7a97b0" stroke-width="1" fill="none" /><polyline points="-10.0,6.0 -9.0,5.877582561890373 -8.0,5.54030230586814 -7.0,5.070737201667703 -6.0,4.583853163452858 -5.0,4.198856384453066 -4.0,4.010007503399555 -3.0,4.0635433127092035 -2.0,4.346356379136388 -1.0,4.789204200569221 0.0,5.283662185463227 1.0,5.70866977429126 2.0,5.960170286650366 3.0,5.9765876257280235 4.0,5.753902254343305 5.0,5.346635317835026 6.0,4.854499966191386 7.0,4.397988097315176 8.0,4.088869738115323 9.0,4.0028278438036216" stroke="#7a97b0" stroke-width="1" fill="none" /><polyline points="-10.0,16.0 -9.0,15.877582561890373 -8.0,15.54030230586814 -7.0,15.070737201667702 -6.0,14.583853163452858 -5.0,14.198856384453066 -4.0,14.010007503399555 -3.0,14.063543312709204 -2.0,14.346356379136388 -1.0,14.78920420056922 0.0,15.283662185463227 1.0,15.708669774291259 2.0,15.960170286650365 3.0,15.976587625728023 4.0,15.753902254343304 5.0,15.346635317835025 6.0,14.854499966191387 7.0,14.397988097315176 8.0,14.088869738115323 9.0,14.002827843803622" stroke="#7a97b0" stroke-width="1" fill="none" /><polyline points="190.0,6.0 191.0,5.877582561890373 192.0,5.54030230586814 193.0,5.070737201667703 194.0,4.583853163452858 195.0,4.198856384453066 196.0,4.010007503399555 197.0,4.0635433127092035 198.0,4.346356379136388 199.0,4.789204200569221 200.0,5.283662185463227 201.0,5.70866977429126 202.0,5.960170286650366 203.0,5.9765876257280235 204.0,5.753902254343305 205.0,5.346635317835026 206.0,4.854499966191386 207.0,4.397988097315176 208.0,4.088869738115323 209.0,4.0028278438036216" stroke="#7a97b0" stroke-width="1" fill="none" /><polyline points="190.0,16.0 191.0,15.877582561890373 192.0,15.54030230586814 193.0,15.070737201667702 194.0,14.583853163452858 195.0,14.198856384453066 196.0,14.010007503399555 197.0,14.063543312709204 198.0,14.346356379136388 199.0,14.78920420056922 200.0,15.283662185463227 201.0,15.708669774291259 202.0,15.960170286650365 203.0,15.976587625728023 204.0,15.753902254343304 205.0,15.346635317835025 206.0,14.854499966191387 207.0,14.397988097315176 208.0,14.088869738115323 209.0,14.002827843803622" stroke="#7a97b0" stroke-width="1" fill="none" /></g><text x="100.0" y="10.0" stroke="none" fill="#1a2c3d" stroke-width="0" font-size="12" font-weight="normal" font-family="Helvetica" text-anchor="middle" alignment-baseline="middle">···</text></g></g><g><g transform="translate(60,660)" /><g transform="translate(60,640)" /><g transform="translate(60,560.0)" /><g transform="translate(60,540.0)" /><g transform="translate(60,460.0)" /><g transform="translate(60,440.0)" /><g transform="translate(60,80.0)" /><g transform="translate(400,660)" /><g transform="translate(400,640)" /><g transform="translate(400,460.0)" /><g transform="translate(400,440.0)" /><g transform="translate(400,100.0)" /><g transform="translate(400,80.0)" /><g transform="translate(760,100.0)" /><g transform="translate(760,80.0)" /><g transform="translate(760,360)" /><g transform="translate(760,340)" /></g><g><g transform="translate(60,660)"><g /></g><g transform="translate(60,640)"><g /></g><g transform="translate(60,560.0)"><g /></g><g transform="translate(60,540.0)"><g /></g><g transform="translate(60,460.0)"><g /></g><g transform="translate(60,440.0)"><g /></g><g transform="translate(60,80.0)"><g /><g /><g /></g><g transform="translate(400,660)"><g /><g /><g /><g /><g /><g /></g><g transform="translate(400,640)"><g /></g><g transform="translate(400,460.0)"><g /><g /><g /></g><g transform="translate(400,440.0)"><g /></g><g transform="translate(400,100.0)"><g /><g /></g><g transform="translate(400,80.0)"><g /></g><g transform="translate(760,100.0)"><g /><g /></g><g transform="translate(760,80.0)"><g /></g><g transform="translate(760,360)"><g /><g /><g /><g /><g /><g /><g /><g /></g><g transform="translate(760,340)"><g /></g></g></svg>