<?xml version="1.0" encoding="utf-8"?>
<svg xmlns="http://www.w3.org/2000/svg" width="1100" height="1100" viewBox="0 0 1100 1100"><rect x="0" y="0" width="1100" height="1100" fill="#212b38" /><g><polyline points="300,563.2847095597812 330,563.2847095597812 720,1050.0 750,1050.0 750,49.999999999999375 720,49.999999999999375 330,563.259602313428 300,563.259602313428" stroke="lightgrey" stroke-width="0" fill="#F6F6F6" opacity="0.2" /><polyline points="300,96.49648345923413 330,96.49648345923413 420,250.0 450,250.0 450,50.0 420,50.0 330,93.57905704610573 300,93.57905704610573" stroke="lightgrey" stroke-width="0" fill="#F6F6F6" opacity="0.2" /><polyline points="300,726.6605886949726 330,726.6605886949726 420,800.0 450,800.0 450,700.0 420,700.0 330,726.6377964750122 300,726.6377964750122" stroke="lightgrey" stroke-width="0" fill="#F6F6F6" opacity="0.2" /><polyline points="300,656.6430670421985 330,656.6430670421985 420,650.0 450,650.0 450,550.7270964614639 420,550.7270964614639 330,656.6427109110446 300,656.6427109110446" stroke="lightgrey" stroke-width="0" fill="#F6F6F6" opacity="0.2" /></g><g /><g><text x="100.0" y="-20" stroke="black" fill="white" stroke-width="0.1" font-size="24px" font-weight="normal" font-family="Helvetica" text-anchor="middle" alignment-baseline="middle" transform="translate(100,50)">STM32F103 Memory Space</text><g transform="translate(100,50)"><rect x="0" y="0" width="200" height="700" fill="#212b38" stroke="black" stroke-width="0" /><rect x="0" y="676.6605886949727" width="200" height="23.33941130502735" fill="#08c6ab" stroke="black" stroke-width="0" /><text x="100.0" y="688.3302943474864" stroke="black" fill="white" stroke-width="0.1" font-size="12" font-weight="normal" font-family="Helvetica" text-anchor="middle" alignment-baseline="middle">Aliased</text><text x="210" y="700.0000000000001" stroke="black" fill="white" stroke-width="0.1" font-size="12" font-weight="normal" font-family="Helvetica" text-anchor="start" alignment-baseline="middle">0x0</text><rect x="0" y="676.6377964750122" width="200" height="0.02279221996040076" fill="#08c6ab" stroke="black" stroke-width="0" /><rect x="0" y="584.7410010744986" width="200" height="91.89679540051368" fill="#08c6ab" stroke="black" stroke-width="0" /><text x="100.0" y="630.6893987747554" stroke="black" fill="white" stroke-width="0.1" font-size="12" font-weight="normal" font-family="Helvetica" text-anchor="middle" alignment-baseline="middle">Reserved0</text><text x="210" y="676.6377964750124" stroke="black" fill="white" stroke-width="0.1" font-size="12" font-weight="normal" font-family="Helvetica" text-anchor="start" alignment-baseline="middle">0x801ffff</text><rect x="0" y="606.6427109110446" width="200" height="0.0003561311539463402" fill="#08c6ab" stroke="black" stroke-width="0" /><rect x="0" y="606.6427083026621" width="200" height="2.6083824751929214e-06" fill="#08c6ab" stroke="black" stroke-width="0" /><rect x="0" y="606.6423521715082" width="200" height="0.0003561311539463402" fill="#08c6ab" stroke="black" stroke-width="0" /><rect x="0" y="606.6423547798906" width="200" height="93.3576452201094" fill="#37465b" stroke="black" stroke-width="0" /><text x="210" y="700.0" stroke="black" fill="white" stroke-width="0.1" font-size="12" font-weight="normal" font-family="Helvetica" text-anchor="start" alignment-baseline="middle">0x0</text><rect x="0" y="513.2847095597813" width="200" height="93.3576452201094" fill="#37465b" stroke="black" stroke-width="0" /><text x="210" y="606.6423547798906" stroke="black" fill="white" stroke-width="0.1" font-size="12" font-weight="normal" font-family="Helvetica" text-anchor="start" alignment-baseline="middle">0x20000000</text><rect x="0" y="419.9270643396718" width="200" height="93.3576452201094" fill="#37465b" stroke="black" stroke-width="0" /><text x="210" y="513.2847095597812" stroke="black" fill="white" stroke-width="0.1" font-size="12" font-weight="normal" font-family="Helvetica" text-anchor="start" alignment-baseline="middle">0x40000000</text><rect x="0" y="326.5694191195624" width="200" height="93.3576452201094" fill="#37465b" stroke="black" stroke-width="0" /><text x="210" y="419.9270643396718" stroke="black" fill="white" stroke-width="0.1" font-size="12" font-weight="normal" font-family="Helvetica" text-anchor="start" alignment-baseline="middle">0x60000000</text><rect x="0" y="233.211773899453" width="200" height="93.3576452201094" fill="#37465b" stroke="black" stroke-width="0" /><text x="210" y="326.5694191195624" stroke="black" fill="white" stroke-width="0.1" font-size="12" font-weight="normal" font-family="Helvetica" text-anchor="start" alignment-baseline="middle">0x80000000</text><rect x="0" y="139.85412867934357" width="200" height="93.3576452201094" fill="#37465b" stroke="black" stroke-width="0" /><text x="210" y="233.21177389945296" stroke="black" fill="white" stroke-width="0.1" font-size="12" font-weight="normal" font-family="Helvetica" text-anchor="start" alignment-baseline="middle">0xa0000000</text><rect x="0" y="46.49648345923418" width="200" height="93.3576452201094" fill="#37465b" stroke="black" stroke-width="0" /><text x="210" y="139.85412867934357" stroke="black" fill="white" stroke-width="0.1" font-size="12" font-weight="normal" font-family="Helvetica" text-anchor="start" alignment-baseline="middle">0xc0000000</text><rect x="0" y="0.0" width="200" height="46.31414430841365" fill="#37465b" stroke="black" stroke-width="0" /><text x="210" y="46.31414430841365" stroke="black" fill="white" stroke-width="0.1" font-size="12" font-weight="normal" font-family="Helvetica" text-anchor="start" alignment-baseline="middle">0xe0100000</text><rect x="0" y="583.3029434748632" width="200" height="23.33941130502735" fill="#08c6ab" stroke="black" stroke-width="0" /><text x="100.0" y="594.9726491273769" stroke="black" fill="white" stroke-width="0.1" font-size="12" font-weight="normal" font-family="Helvetica" text-anchor="middle" alignment-baseline="middle">SRAM</text><text x="210" y="606.6423547798906" stroke="black" fill="white" stroke-width="0.1" font-size="12" font-weight="normal" font-family="Helvetica" text-anchor="start" alignment-baseline="middle">0x20000000</text><rect x="0" y="489.9452982547539" width="200" height="23.33941130502735" fill="#08c6ab" stroke="black" stroke-width="0" /><text x="100.0" y="501.6150039072676" stroke="black" fill="white" stroke-width="0.1" font-size="12" font-weight="normal" font-family="Helvetica" text-anchor="middle" alignment-baseline="middle">Peripherals</text><text x="210" y="513.2847095597813" stroke="black" fill="white" stroke-width="0.1" font-size="12" font-weight="normal" font-family="Helvetica" text-anchor="start" alignment-baseline="middle">0x40000000</text><rect x="0" y="43.57905704610576" width="200" height="2.917426413128419" fill="#08c6ab" stroke="black" stroke-width="0" /><rect x="0" y="513.2845314942042" width="200" height="0.0001780655769731701" fill="#08c6ab" stroke="black" stroke-width="0" /><rect x="0" y="513.2843534286272" width="200" height="0.0001780655769731701" fill="#08c6ab" stroke="black" stroke-width="0" /><rect x="0" y="513.2841753630503" width="200" height="0.0001780655769731701" fill="#08c6ab" stroke="black" stroke-width="0" /><rect x="0" y="513.2829289040114" width="200" height="0.0012464590388121908" fill="#08c6ab" stroke="black" stroke-width="0" /><rect x="0" y="513.2827508384345" width="200" height="0.0001780655769731701" fill="#08c6ab" stroke="black" stroke-width="0" /><rect x="0" y="513.2825727728575" width="200" height="0.0001780655769731701" fill="#08c6ab" stroke="black" stroke-width="0" /><rect x="0" y="513.2823947072806" width="200" height="0.0001780655769731701" fill="#08c6ab" stroke="black" stroke-width="0" /><rect x="0" y="513.2822166417036" width="200" height="0.0001780655769731701" fill="#08c6ab" stroke="black" stroke-width="0" /><rect x="0" y="513.2820385761266" width="200" height="0.0001780655769731701" fill="#08c6ab" stroke="black" stroke-width="0" /><rect x="0" y="513.2816824449727" width="200" height="0.0003561311539463402" fill="#08c6ab" stroke="black" stroke-width="0" /><rect x="0" y="513.2815043793958" width="200" height="0.0001780655769731701" fill="#08c6ab" stroke="black" stroke-width="0" /><rect x="0" y="513.2813263138187" width="200" height="0.0001780655769731701" fill="#08c6ab" stroke="black" stroke-width="0" /><rect x="0" y="513.2809701826648" width="200" height="0.0003561311539463402" fill="#08c6ab" stroke="black" stroke-width="0" /><rect x="0" y="513.2807921170878" width="200" height="0.0001780655769731701" fill="#08c6ab" stroke="black" stroke-width="0" /><rect x="0" y="513.2806140515108" width="200" height="0.0001780655769731701" fill="#08c6ab" stroke="black" stroke-width="0" /><rect x="0" y="513.2804359859339" width="200" height="0.0001780655769731701" fill="#08c6ab" stroke="black" stroke-width="0" /><rect x="0" y="513.2802579203569" width="200" height="0.0001780655769731701" fill="#08c6ab" stroke="black" stroke-width="0" /><rect x="0" y="513.28007985478" width="200" height="0.0001780655769731701" fill="#08c6ab" stroke="black" stroke-width="0" /><rect x="0" y="513.279901789203" width="200" height="0.0001780655769731701" fill="#08c6ab" stroke="black" stroke-width="0" /><rect x="0" y="513.2797237236259" width="200" height="0.0001780655769731701" fill="#08c6ab" stroke="black" stroke-width="0" /><rect x="0" y="513.279545658049" width="200" height="0.0001780655769731701" fill="#08c6ab" stroke="black" stroke-width="0" /><rect x="0" y="513.273313362855" width="200" height="0.006232295194060954" fill="#08c6ab" stroke="black" stroke-width="0" /><rect x="0" y="513.2731352972779" width="200" height="0.0001780655769731701" fill="#08c6ab" stroke="black" stroke-width="0" /><rect x="0" y="513.272957231701" width="200" height="0.0001780655769731701" fill="#08c6ab" stroke="black" stroke-width="0" /><rect x="0" y="513.272779166124" width="200" height="0.0001780655769731701" fill="#08c6ab" stroke="black" stroke-width="0" /><rect x="0" y="513.272601100547" width="200" height="0.0001780655769731701" fill="#08c6ab" stroke="black" stroke-width="0" /><rect x="0" y="513.2724230349701" width="200" height="0.0001780655769731701" fill="#08c6ab" stroke="black" stroke-width="0" /><rect x="0" y="513.2722449693931" width="200" height="0.0001780655769731701" fill="#08c6ab" stroke="black" stroke-width="0" /><rect x="0" y="513.2720669038162" width="200" height="0.0001780655769731701" fill="#08c6ab" stroke="black" stroke-width="0" /><rect x="0" y="513.2717107726622" width="200" height="0.0003561311539463402" fill="#08c6ab" stroke="black" stroke-width="0" /><rect x="0" y="513.2715327070852" width="200" height="0.0001780655769731701" fill="#08c6ab" stroke="black" stroke-width="0" /><rect x="0" y="513.2713546415082" width="200" height="0.0001780655769731701" fill="#08c6ab" stroke="black" stroke-width="0" /><rect x="0" y="513.2711765759312" width="200" height="0.0001780655769731701" fill="#08c6ab" stroke="black" stroke-width="0" /><rect x="0" y="513.2709985103543" width="200" height="0.0001780655769731701" fill="#08c6ab" stroke="black" stroke-width="0" /><rect x="0" y="513.2708204447773" width="200" height="0.0001780655769731701" fill="#08c6ab" stroke="black" stroke-width="0" /><rect x="0" y="513.2706423792004" width="200" height="0.0001780655769731701" fill="#08c6ab" stroke="black" stroke-width="0" /><rect x="0" y="513.2619171659287" width="200" height="0.008725213271685335" fill="#08c6ab" stroke="black" stroke-width="0" /><rect x="0" y="513.2617391003516" width="200" height="0.0001780655769731701" fill="#08c6ab" stroke="black" stroke-width="0" /><rect x="0" y="513.2612049036208" width="200" height="0.0005341967309195103" fill="#08c6ab" stroke="black" stroke-width="0" /><rect x="0" y="513.2610268380438" width="200" height="0.0001780655769731701" fill="#08c6ab" stroke="black" stroke-width="0" /><rect x="0" y="513.2604926413129" width="200" height="0.0005341967309195103" fill="#08c6ab" stroke="black" stroke-width="0" /><rect x="0" y="513.260314575736" width="200" height="0.0001780655769731701" fill="#08c6ab" stroke="black" stroke-width="0" /><rect x="0" y="513.259780379005" width="200" height="0.0005341967309195103" fill="#08c6ab" stroke="black" stroke-width="0" /><rect x="0" y="513.259602313428" width="200" height="0.0001780655769731701" fill="#08c6ab" stroke="black" stroke-width="0" /></g></g><g><text x="100.0" y="-20" stroke="black" fill="white" stroke-width="0.1" font-size="24px" font-weight="normal" font-family="Helvetica" text-anchor="middle" alignment-baseline="middle" transform="translate(450,700)" /><g transform="translate(450,700)"><rect x="0" y="0" width="200" height="100" fill="#212b38" stroke="black" stroke-width="0" /><rect x="0" y="0.0" width="200" height="100.0" fill="#726eff" stroke="black" stroke-width="0" /><text x="100.0" y="50.0" stroke="black" fill="white" stroke-width="0.1" font-size="12" font-weight="normal" font-family="Helvetica" text-anchor="middle" alignment-baseline="middle">Flash Memory</text><text x="210" y="100.0" stroke="black" fill="white" stroke-width="0.1" font-size="12" font-weight="normal" font-family="Helvetica" text-anchor="start" alignment-baseline="middle">0x8000000</text><text x="2" y="2.0" stroke="black" fill="white" stroke-width="0.1" font-size="12px" font-weight="normal" font-family="Helvetica" text-anchor="start" alignment-baseline="hanging">0x1ffff</text></g></g><g><text x="100.0" y="-20" stroke="black" fill="white" stroke-width="0.1" font-size="24px" font-weight="normal" font-family="Helvetica" text-anchor="middle" alignment-baseline="middle" transform="translate(450,550)" /><g transform="translate(450,550)"><rect x="0" y="0" width="200" height="100" fill="#212b38" stroke="black" stroke-width="0" /><rect x="0" y="0.7270964614638876" width="200" height="99.27290353853611" fill="#4aefd7" stroke="black" stroke-width="0" /><text x="100.0" y="50.36354823073194" stroke="black" fill="white" stroke-width="0.1" font-size="12" font-weight="normal" font-family="Helvetica" text-anchor="middle" alignment-baseline="middle">System Memory</text><text x="210" y="100.0" stroke="black" fill="white" stroke-width="0.1" font-size="12" font-weight="normal" font-family="Helvetica" text-anchor="start" alignment-baseline="middle">0x1ffff000</text><text x="2" y="2.7270964614638875" stroke="black" fill="white" stroke-width="0.1" font-size="12px" font-weight="normal" font-family="Helvetica" text-anchor="start" alignment-baseline="hanging">0x800</text><rect x="0" y="0.0" width="200" height="0.7270964614638876" fill="#08c6ab" stroke="black" stroke-width="0" /><text x="2" y="2.0" stroke="black" fill="white" stroke-width="0.1" font-size="12px" font-weight="normal" font-family="Helvetica" text-anchor="start" alignment-baseline="hanging">0xf</text></g></g><g><text x="100.0" y="-20" stroke="black" fill="white" stroke-width="0.1" font-size="24px" font-weight="normal" font-family="Helvetica" text-anchor="middle" alignment-baseline="middle" transform="translate(450,50)" /><g transform="translate(450,50)"><rect x="0" y="0" width="200" height="200" fill="#212b38" stroke="black" stroke-width="0" /><rect x="0" y="0.0" width="200" height="200.0" fill="#08c6ab" stroke="black" stroke-width="0" /><text x="100.0" y="100.0" stroke="black" fill="white" stroke-width="0.1" font-size="12" font-weight="normal" font-family="Helvetica" text-anchor="middle" alignment-baseline="middle">M3 Cortex Internal Peripherals</text><text x="210" y="200.0" stroke="black" fill="white" stroke-width="0.1" font-size="12" font-weight="normal" font-family="Helvetica" text-anchor="start" alignment-baseline="middle">0xe0000000</text><text x="2" y="2.0" stroke="black" fill="white" stroke-width="0.1" font-size="12px" font-weight="normal" font-family="Helvetica" text-anchor="start" alignment-baseline="hanging">0x1000000</text></g></g><g><text x="100.0" y="-20" stroke="black" fill="white" stroke-width="0.1" font-size="24px" font-weight="normal" font-family="Helvetica" text-anchor="middle" alignment-baseline="middle" transform="translate(750,50)">APB memory space</text><g transform="translate(750,984.3749999999999)"><rect x="0" y="0" width="200" height="65.62500000000007" fill="#212b38" stroke="black" stroke-width="0" /><rect x="0" y="43.75000000000005" width="200" height="21.875000000000025" fill="#08c6ab" stroke="black" stroke-width="0" /><text x="100.0" y="54.687500000000064" stroke="black" fill="white" stroke-width="0.1" font-size="12" font-weight="normal" font-family="Helvetica" text-anchor="middle" alignment-baseline="middle">TIM2</text><text x="210" y="65.62500000000007" stroke="black" fill="white" stroke-width="0.1" font-size="12" font-weight="normal" font-family="Helvetica" text-anchor="start" alignment-baseline="middle">0x40000000</text><rect x="0" y="21.875000000000025" width="200" height="21.875000000000025" fill="#08c6ab" stroke="black" stroke-width="0" /><text x="100.0" y="32.812500000000036" stroke="black" fill="white" stroke-width="0.1" font-size="12" font-weight="normal" font-family="Helvetica" text-anchor="middle" alignment-baseline="middle">TIM3</text><text x="210" y="43.75000000000005" stroke="black" fill="white" stroke-width="0.1" font-size="12" font-weight="normal" font-family="Helvetica" text-anchor="start" alignment-baseline="middle">0x40000400</text><rect x="0" y="0.0" width="200" height="21.875000000000025" fill="#08c6ab" stroke="black" stroke-width="0" /><text x="100.0" y="10.937500000000012" stroke="black" fill="white" stroke-width="0.1" font-size="12" font-weight="normal" font-family="Helvetica" text-anchor="middle" alignment-baseline="middle">TIM4</text><text x="210" y="21.875000000000025" stroke="black" fill="white" stroke-width="0.1" font-size="12" font-weight="normal" font-family="Helvetica" text-anchor="start" alignment-baseline="middle">0x40000800</text></g><g transform="translate(750,959.3749999999999)"><rect x="0" y="0" width="200" height="25" fill="#212b38" stroke="black" stroke-width="0" /><g><rect x="0" y="0.0" width="200" height="24.999999999999996" fill="#37465b" /><polyline points="0,9.999999999999998 0,0.0 200,0.0 200,9.999999999999998" stroke="black" stroke-width="0" fill="none" /><polyline points="0,14.999999999999996 0,24.999999999999996 200,24.999999999999996 200,14.999999999999996" stroke="black" stroke-width="0" fill="none" /><polyline points="-10.0,8.499999999999998 -9.0,8.377582561890371 -8.0,8.040302305868138 -7.0,7.5707372016677015 -6.0,7.083853163452856 -5.0,6.698856384453064 -4.0,6.510007503399553 -3.0,6.563543312709202 -2.0,6.846356379136386 -1.0,7.289204200569219 0.0,7.783662185463225 1.0,8.208669774291259 2.0,8.460170286650364 3.0,8.476587625728023 4.0,8.253902254343302 5.0,7.846635317835024 6.0,7.354499966191384 7.0,6.897988097315174 8.0,6.588869738115322 9.0,6.50282784380362" stroke="black" stroke-width="0" fill="none" /><polyline points="-10.0,18.5 -9.0,18.37758256189037 -8.0,18.04030230586814 -7.0,17.570737201667704 -6.0,17.083853163452858 -5.0,16.698856384453066 -4.0,16.510007503399553 -3.0,16.563543312709204 -2.0,16.846356379136388 -1.0,17.28920420056922 0.0,17.783662185463225 1.0,18.20866977429126 2.0,18.460170286650367 3.0,18.476587625728023 4.0,18.253902254343306 5.0,17.846635317835027 6.0,17.354499966191387 7.0,16.897988097315178 8.0,16.588869738115324 9.0,16.502827843803622" stroke="black" stroke-width="0" fill="none" /><polyline points="190.0,8.499999999999998 191.0,8.377582561890371 192.0,8.040302305868138 193.0,7.5707372016677015 194.0,7.083853163452856 195.0,6.698856384453064 196.0,6.510007503399553 197.0,6.563543312709202 198.0,6.846356379136386 199.0,7.289204200569219 200.0,7.783662185463225 201.0,8.208669774291259 202.0,8.460170286650364 203.0,8.476587625728023 204.0,8.253902254343302 205.0,7.846635317835024 206.0,7.354499966191384 207.0,6.897988097315174 208.0,6.588869738115322 209.0,6.50282784380362" stroke="black" stroke-width="0" fill="none" /><polyline points="190.0,18.5 191.0,18.37758256189037 192.0,18.04030230586814 193.0,17.570737201667704 194.0,17.083853163452858 195.0,16.698856384453066 196.0,16.510007503399553 197.0,16.563543312709204 198.0,16.846356379136388 199.0,17.28920420056922 200.0,17.783662185463225 201.0,18.20866977429126 202.0,18.460170286650367 203.0,18.476587625728023 204.0,18.253902254343306 205.0,17.846635317835027 206.0,17.354499966191387 207.0,16.897988097315178 208.0,16.588869738115324 209.0,16.502827843803622" stroke="black" stroke-width="0" fill="none" /></g></g><g transform="translate(750,893.7499999999998)"><rect x="0" y="0" width="200" height="65.62500000000007" fill="#212b38" stroke="black" stroke-width="0" /><rect x="0" y="43.75000000000005" width="200" height="21.875000000000025" fill="#08c6ab" stroke="black" stroke-width="0" /><text x="100.0" y="54.687500000000064" stroke="black" fill="white" stroke-width="0.1" font-size="12" font-weight="normal" font-family="Helvetica" text-anchor="middle" alignment-baseline="middle">RTC</text><text x="210" y="65.62500000000007" stroke="black" fill="white" stroke-width="0.1" font-size="12" font-weight="normal" font-family="Helvetica" text-anchor="start" alignment-baseline="middle">0x40002800</text><rect x="0" y="21.875000000000025" width="200" height="21.875000000000025" fill="#08c6ab" stroke="black" stroke-width="0" /><text x="100.0" y="32.812500000000036" stroke="black" fill="white" stroke-width="0.1" font-size="12" font-weight="normal" font-family="Helvetica" text-anchor="middle" alignment-baseline="middle">WWDG</text><text x="210" y="43.75000000000005" stroke="black" fill="white" stroke-width="0.1" font-size="12" font-weight="normal" font-family="Helvetica" text-anchor="start" alignment-baseline="middle">0x40002c00</text><rect x="0" y="0.0" width="200" height="21.875000000000025" fill="#08c6ab" stroke="black" stroke-width="0" /><text x="100.0" y="10.937500000000012" stroke="black" fill="white" stroke-width="0.1" font-size="12" font-weight="normal" font-family="Helvetica" text-anchor="middle" alignment-baseline="middle">IWDG</text><text x="210" y="21.875000000000025" stroke="black" fill="white" stroke-width="0.1" font-size="12" font-weight="normal" font-family="Helvetica" text-anchor="start" alignment-baseline="middle">0x40003000</text></g><g transform="translate(750,868.7499999999998)"><rect x="0" y="0" width="200" height="25" fill="#212b38" stroke="black" stroke-width="0" /><g><rect x="0" y="0.0" width="200" height="25.0" fill="#37465b" /><polyline points="0,10.0 0,0.0 200,0.0 200,10.0" stroke="black" stroke-width="0" fill="none" /><polyline points="0,15.0 0,25.0 200,25.0 200,15.0" stroke="black" stroke-width="0" fill="none" /><polyline points="-10.0,8.5 -9.0,8.377582561890373 -8.0,8.04030230586814 -7.0,7.570737201667703 -6.0,7.083853163452858 -5.0,6.698856384453066 -4.0,6.510007503399555 -3.0,6.5635433127092035 -2.0,6.846356379136388 -1.0,7.289204200569221 0.0,7.783662185463227 1.0,8.208669774291259 2.0,8.460170286650365 3.0,8.476587625728023 4.0,8.253902254343304 5.0,7.846635317835026 6.0,7.354499966191386 7.0,6.897988097315176 8.0,6.588869738115323 9.0,6.5028278438036216" stroke="black" stroke-width="0" fill="none" /><polyline points="-10.0,18.5 -9.0,18.37758256189037 -8.0,18.04030230586814 -7.0,17.570737201667704 -6.0,17.083853163452858 -5.0,16.698856384453066 -4.0,16.510007503399553 -3.0,16.563543312709204 -2.0,16.846356379136388 -1.0,17.28920420056922 0.0,17.783662185463225 1.0,18.20866977429126 2.0,18.460170286650367 3.0,18.476587625728023 4.0,18.253902254343306 5.0,17.846635317835027 6.0,17.354499966191387 7.0,16.897988097315178 8.0,16.588869738115324 9.0,16.502827843803622" stroke="black" stroke-width="0" fill="none" /><polyline points="190.0,8.5 191.0,8.377582561890373 192.0,8.04030230586814 193.0,7.570737201667703 194.0,7.083853163452858 195.0,6.698856384453066 196.0,6.510007503399555 197.0,6.5635433127092035 198.0,6.846356379136388 199.0,7.289204200569221 200.0,7.783662185463227 201.0,8.208669774291259 202.0,8.460170286650365 203.0,8.476587625728023 204.0,8.253902254343304 205.0,7.846635317835026 206.0,7.354499966191386 207.0,6.897988097315176 208.0,6.588869738115323 209.0,6.5028278438036216" stroke="black" stroke-width="0" fill="none" /><polyline points="190.0,18.5 191.0,18.37758256189037 192.0,18.04030230586814 193.0,17.570737201667704 194.0,17.083853163452858 195.0,16.698856384453066 196.0,16.510007503399553 197.0,16.563543312709204 198.0,16.846356379136388 199.0,17.28920420056922 200.0,17.783662185463225 201.0,18.20866977429126 202.0,18.460170286650367 203.0,18.476587625728023 204.0,18.253902254343306 205.0,17.846635317835027 206.0,17.354499966191387 207.0,16.897988097315178 208.0,16.588869738115324 209.0,16.502827843803622" stroke="black" stroke-width="0" fill="none" /></g></g><g transform="translate(750,846.8749999999998)"><rect x="0" y="0" width="200" height="21.875000000000018" fill="#212b38" stroke="black" stroke-width="0" /><rect x="0" y="0.0" width="200" height="21.875000000000018" fill="#08c6ab" stroke="black" stroke-width="0" /><text x="100.0" y="10.937500000000009" stroke="black" fill="white" stroke-width="0.1" font-size="12" font-weight="normal" font-family="Helvetica" text-anchor="middle" alignment-baseline="middle">SPI2</text><text x="210" y="21.875000000000018" stroke="black" fill="white" stroke-width="0.1" font-size="12" font-weight="normal" font-family="Helvetica" text-anchor="start" alignment-baseline="middle">0x40003800</text></g><g transform="translate(750,821.8749999999998)"><rect x="0" y="0" width="200" height="25" fill="#212b38" stroke="black" stroke-width="0" /><g><rect x="0" y="0.0" width="200" height="25.0" fill="#37465b" /><polyline points="0,10.0 0,0.0 200,0.0 200,10.0" stroke="black" stroke-width="0" fill="none" /><polyline points="0,15.0 0,25.0 200,25.0 200,15.0" stroke="black" stroke-width="0" fill="none" /><polyline points="-10.0,8.5 -9.0,8.377582561890373 -8.0,8.04030230586814 -7.0,7.570737201667703 -6.0,7.083853163452858 -5.0,6.698856384453066 -4.0,6.510007503399555 -3.0,6.5635433127092035 -2.0,6.846356379136388 -1.0,7.289204200569221 0.0,7.783662185463227 1.0,8.208669774291259 2.0,8.460170286650365 3.0,8.476587625728023 4.0,8.253902254343304 5.0,7.846635317835026 6.0,7.354499966191386 7.0,6.897988097315176 8.0,6.588869738115323 9.0,6.5028278438036216" stroke="black" stroke-width="0" fill="none" /><polyline points="-10.0,18.5 -9.0,18.37758256189037 -8.0,18.04030230586814 -7.0,17.570737201667704 -6.0,17.083853163452858 -5.0,16.698856384453066 -4.0,16.510007503399553 -3.0,16.563543312709204 -2.0,16.846356379136388 -1.0,17.28920420056922 0.0,17.783662185463225 1.0,18.20866977429126 2.0,18.460170286650367 3.0,18.476587625728023 4.0,18.253902254343306 5.0,17.846635317835027 6.0,17.354499966191387 7.0,16.897988097315178 8.0,16.588869738115324 9.0,16.502827843803622" stroke="black" stroke-width="0" fill="none" /><polyline points="190.0,8.5 191.0,8.377582561890373 192.0,8.04030230586814 193.0,7.570737201667703 194.0,7.083853163452858 195.0,6.698856384453066 196.0,6.510007503399555 197.0,6.5635433127092035 198.0,6.846356379136388 199.0,7.289204200569221 200.0,7.783662185463227 201.0,8.208669774291259 202.0,8.460170286650365 203.0,8.476587625728023 204.0,8.253902254343304 205.0,7.846635317835026 206.0,7.354499966191386 207.0,6.897988097315176 208.0,6.588869738115323 209.0,6.5028278438036216" stroke="black" stroke-width="0" fill="none" /><polyline points="190.0,18.5 191.0,18.37758256189037 192.0,18.04030230586814 193.0,17.570737201667704 194.0,17.083853163452858 195.0,16.698856384453066 196.0,16.510007503399553 197.0,16.563543312709204 198.0,16.846356379136388 199.0,17.28920420056922 200.0,17.783662185463225 201.0,18.20866977429126 202.0,18.460170286650367 203.0,18.476587625728023 204.0,18.253902254343306 205.0,17.846635317835027 206.0,17.354499966191387 207.0,16.897988097315178 208.0,16.588869738115324 209.0,16.502827843803622" stroke="black" stroke-width="0" fill="none" /></g></g><g transform="translate(750,778.1249999999998)"><rect x="0" y="0" width="200" height="43.750000000000036" fill="#212b38" stroke="black" stroke-width="0" /><rect x="0" y="21.875000000000018" width="200" height="21.875000000000018" fill="#08c6ab" stroke="black" stroke-width="0" /><text x="100.0" y="32.81250000000003" stroke="black" fill="white" stroke-width="0.1" font-size="12" font-weight="normal" font-family="Helvetica" text-anchor="middle" alignment-baseline="middle">USART2</text><text x="210" y="43.750000000000036" stroke="black" fill="white" stroke-width="0.1" font-size="12" font-weight="normal" font-family="Helvetica" text-anchor="start" alignment-baseline="middle">0x40004400</text><rect x="0" y="0.0" width="200" height="21.875000000000018" fill="#08c6ab" stroke="black" stroke-width="0" /><text x="100.0" y="10.937500000000009" stroke="black" fill="white" stroke-width="0.1" font-size="12" font-weight="normal" font-family="Helvetica" text-anchor="middle" alignment-baseline="middle">USART3</text><text x="210" y="21.875000000000018" stroke="black" fill="white" stroke-width="0.1" font-size="12" font-weight="normal" font-family="Helvetica" text-anchor="start" alignment-baseline="middle">0x40004800</text></g><g transform="translate(750,753.1249999999998)"><rect x="0" y="0" width="200" height="25" fill="#212b38" stroke="black" stroke-width="0" /><g><rect x="0" y="0.0" width="200" height="25.0" fill="#37465b" /><polyline points="0,10.0 0,0.0 200,0.0 200,10.0" stroke="black" stroke-width="0" fill="none" /><polyline points="0,15.0 0,25.0 200,25.0 200,15.0" stroke="black" stroke-width="0" fill="none" /><polyline points="-10.0,8.5 -9.0,8.377582561890373 -8.0,8.04030230586814 -7.0,7.570737201667703 -6.0,7.083853163452858 -5.0,6.698856384453066 -4.0,6.510007503399555 -3.0,6.5635433127092035 -2.0,6.846356379136388 -1.0,7.289204200569221 0.0,7.783662185463227 1.0,8.208669774291259 2.0,8.460170286650365 3.0,8.476587625728023 4.0,8.253902254343304 5.0,7.846635317835026 6.0,7.354499966191386 7.0,6.897988097315176 8.0,6.588869738115323 9.0,6.5028278438036216" stroke="black" stroke-width="0" fill="none" /><polyline points="-10.0,18.5 -9.0,18.37758256189037 -8.0,18.04030230586814 -7.0,17.570737201667704 -6.0,17.083853163452858 -5.0,16.698856384453066 -4.0,16.510007503399553 -3.0,16.563543312709204 -2.0,16.846356379136388 -1.0,17.28920420056922 0.0,17.783662185463225 1.0,18.20866977429126 2.0,18.460170286650367 3.0,18.476587625728023 4.0,18.253902254343306 5.0,17.846635317835027 6.0,17.354499966191387 7.0,16.897988097315178 8.0,16.588869738115324 9.0,16.502827843803622" stroke="black" stroke-width="0" fill="none" /><polyline points="190.0,8.5 191.0,8.377582561890373 192.0,8.04030230586814 193.0,7.570737201667703 194.0,7.083853163452858 195.0,6.698856384453066 196.0,6.510007503399555 197.0,6.5635433127092035 198.0,6.846356379136388 199.0,7.289204200569221 200.0,7.783662185463227 201.0,8.208669774291259 202.0,8.460170286650365 203.0,8.476587625728023 204.0,8.253902254343304 205.0,7.846635317835026 206.0,7.354499966191386 207.0,6.897988097315176 208.0,6.588869738115323 209.0,6.5028278438036216" stroke="black" stroke-width="0" fill="none" /><polyline points="190.0,18.5 191.0,18.37758256189037 192.0,18.04030230586814 193.0,17.570737201667704 194.0,17.083853163452858 195.0,16.698856384453066 196.0,16.510007503399553 197.0,16.563543312709204 198.0,16.846356379136388 199.0,17.28920420056922 200.0,17.783662185463225 201.0,18.20866977429126 202.0,18.460170286650367 203.0,18.476587625728023 204.0,18.253902254343306 205.0,17.846635317835027 206.0,17.354499966191387 207.0,16.897988097315178 208.0,16.588869738115324 209.0,16.502827843803622" stroke="black" stroke-width="0" fill="none" /></g></g><g transform="translate(750,643.7499999999997)"><rect x="0" y="0" width="200" height="109.3750000000001" fill="#212b38" stroke="black" stroke-width="0" /><rect x="0" y="87.50000000000009" width="200" height="21.87500000000002" fill="#08c6ab" stroke="black" stroke-width="0" /><text x="100.0" y="98.4375000000001" stroke="black" fill="white" stroke-width="0.1" font-size="12" font-weight="normal" font-family="Helvetica" text-anchor="middle" alignment-baseline="middle">I2C1</text><text x="210" y="109.37500000000011" stroke="black" fill="white" stroke-width="0.1" font-size="12" font-weight="normal" font-family="Helvetica" text-anchor="start" alignment-baseline="middle">0x40005400</text><rect x="0" y="65.62500000000006" width="200" height="21.87500000000002" fill="#08c6ab" stroke="black" stroke-width="0" /><text x="100.0" y="76.56250000000007" stroke="black" fill="white" stroke-width="0.1" font-size="12" font-weight="normal" font-family="Helvetica" text-anchor="middle" alignment-baseline="middle">I2C2</text><text x="210" y="87.50000000000009" stroke="black" fill="white" stroke-width="0.1" font-size="12" font-weight="normal" font-family="Helvetica" text-anchor="start" alignment-baseline="middle">0x40005800</text><rect x="0" y="43.75000000000004" width="200" height="21.87500000000002" fill="#08c6ab" stroke="black" stroke-width="0" /><text x="100.0" y="54.68750000000006" stroke="black" fill="white" stroke-width="0.1" font-size="12" font-weight="normal" font-family="Helvetica" text-anchor="middle" alignment-baseline="middle">USB Registers</text><text x="210" y="65.62500000000006" stroke="black" fill="white" stroke-width="0.1" font-size="12" font-weight="normal" font-family="Helvetica" text-anchor="start" alignment-baseline="middle">0x40005c00</text><rect x="0" y="21.87500000000002" width="200" height="21.87500000000002" fill="#08c6ab" stroke="black" stroke-width="0" /><text x="100.0" y="32.81250000000003" stroke="black" fill="white" stroke-width="0.1" font-size="12" font-weight="normal" font-family="Helvetica" text-anchor="middle" alignment-baseline="middle">USB/CAN SRAM</text><text x="210" y="43.75000000000004" stroke="black" fill="white" stroke-width="0.1" font-size="12" font-weight="normal" font-family="Helvetica" text-anchor="start" alignment-baseline="middle">0x40006000</text><rect x="0" y="0.0" width="200" height="21.87500000000002" fill="#08c6ab" stroke="black" stroke-width="0" /><text x="100.0" y="10.93750000000001" stroke="black" fill="white" stroke-width="0.1" font-size="12" font-weight="normal" font-family="Helvetica" text-anchor="middle" alignment-baseline="middle">BXCAN</text><text x="210" y="21.87500000000002" stroke="black" fill="white" stroke-width="0.1" font-size="12" font-weight="normal" font-family="Helvetica" text-anchor="start" alignment-baseline="middle">0x40006400</text></g><g transform="translate(750,618.7499999999997)"><rect x="0" y="0" width="200" height="25" fill="#212b38" stroke="black" stroke-width="0" /><g><rect x="0" y="0.0" width="200" height="25.0" fill="#37465b" /><polyline points="0,10.0 0,0.0 200,0.0 200,10.0" stroke="black" stroke-width="0" fill="none" /><polyline points="0,15.0 0,25.0 200,25.0 200,15.0" stroke="black" stroke-width="0" fill="none" /><polyline points="-10.0,8.5 -9.0,8.377582561890373 -8.0,8.04030230586814 -7.0,7.570737201667703 -6.0,7.083853163452858 -5.0,6.698856384453066 -4.0,6.510007503399555 -3.0,6.5635433127092035 -2.0,6.846356379136388 -1.0,7.289204200569221 0.0,7.783662185463227 1.0,8.208669774291259 2.0,8.460170286650365 3.0,8.476587625728023 4.0,8.253902254343304 5.0,7.846635317835026 6.0,7.354499966191386 7.0,6.897988097315176 8.0,6.588869738115323 9.0,6.5028278438036216" stroke="black" stroke-width="0" fill="none" /><polyline points="-10.0,18.5 -9.0,18.37758256189037 -8.0,18.04030230586814 -7.0,17.570737201667704 -6.0,17.083853163452858 -5.0,16.698856384453066 -4.0,16.510007503399553 -3.0,16.563543312709204 -2.0,16.846356379136388 -1.0,17.28920420056922 0.0,17.783662185463225 1.0,18.20866977429126 2.0,18.460170286650367 3.0,18.476587625728023 4.0,18.253902254343306 5.0,17.846635317835027 6.0,17.354499966191387 7.0,16.897988097315178 8.0,16.588869738115324 9.0,16.502827843803622" stroke="black" stroke-width="0" fill="none" /><polyline points="190.0,8.5 191.0,8.377582561890373 192.0,8.04030230586814 193.0,7.570737201667703 194.0,7.083853163452858 195.0,6.698856384453066 196.0,6.510007503399555 197.0,6.5635433127092035 198.0,6.846356379136388 199.0,7.289204200569221 200.0,7.783662185463227 201.0,8.208669774291259 202.0,8.460170286650365 203.0,8.476587625728023 204.0,8.253902254343304 205.0,7.846635317835026 206.0,7.354499966191386 207.0,6.897988097315176 208.0,6.588869738115323 209.0,6.5028278438036216" stroke="black" stroke-width="0" fill="none" /><polyline points="190.0,18.5 191.0,18.37758256189037 192.0,18.04030230586814 193.0,17.570737201667704 194.0,17.083853163452858 195.0,16.698856384453066 196.0,16.510007503399553 197.0,16.563543312709204 198.0,16.846356379136388 199.0,17.28920420056922 200.0,17.783662185463225 201.0,18.20866977429126 202.0,18.460170286650367 203.0,18.476587625728023 204.0,18.253902254343306 205.0,17.846635317835027 206.0,17.354499966191387 207.0,16.897988097315178 208.0,16.588869738115324 209.0,16.502827843803622" stroke="black" stroke-width="0" fill="none" /></g></g><g transform="translate(750,574.9999999999997)"><rect x="0" y="0" width="200" height="43.750000000000036" fill="#212b38" stroke="black" stroke-width="0" /><rect x="0" y="21.875000000000018" width="200" height="21.875000000000018" fill="#08c6ab" stroke="black" stroke-width="0" /><text x="100.0" y="32.81250000000003" stroke="black" fill="white" stroke-width="0.1" font-size="12" font-weight="normal" font-family="Helvetica" text-anchor="middle" alignment-baseline="middle">BKP</text><text x="210" y="43.750000000000036" stroke="black" fill="white" stroke-width="0.1" font-size="12" font-weight="normal" font-family="Helvetica" text-anchor="start" alignment-baseline="middle">0x40006c00</text><rect x="0" y="0.0" width="200" height="21.875000000000018" fill="#08c6ab" stroke="black" stroke-width="0" /><text x="100.0" y="10.937500000000009" stroke="black" fill="white" stroke-width="0.1" font-size="12" font-weight="normal" font-family="Helvetica" text-anchor="middle" alignment-baseline="middle">PWR</text><text x="210" y="21.875000000000018" stroke="black" fill="white" stroke-width="0.1" font-size="12" font-weight="normal" font-family="Helvetica" text-anchor="start" alignment-baseline="middle">0x40007000</text></g><g transform="translate(750,549.9999999999997)"><rect x="0" y="0" width="200" height="25" fill="#212b38" stroke="black" stroke-width="0" /><g><rect x="0" y="0.0" width="200" height="25.0" fill="#37465b" /><polyline points="0,10.0 0,0.0 200,0.0 200,10.0" stroke="black" stroke-width="0" fill="none" /><polyline points="0,15.0 0,25.0 200,25.0 200,15.0" stroke="black" stroke-width="0" fill="none" /><polyline points="-10.0,8.5 -9.0,8.377582561890373 -8.0,8.04030230586814 -7.0,7.570737201667703 -6.0,7.083853163452858 -5.0,6.698856384453066 -4.0,6.510007503399555 -3.0,6.5635433127092035 -2.0,6.846356379136388 -1.0,7.289204200569221 0.0,7.783662185463227 1.0,8.208669774291259 2.0,8.460170286650365 3.0,8.476587625728023 4.0,8.253902254343304 5.0,7.846635317835026 6.0,7.354499966191386 7.0,6.897988097315176 8.0,6.588869738115323 9.0,6.5028278438036216" stroke="black" stroke-width="0" fill="none" /><polyline points="-10.0,18.5 -9.0,18.37758256189037 -8.0,18.04030230586814 -7.0,17.570737201667704 -6.0,17.083853163452858 -5.0,16.698856384453066 -4.0,16.510007503399553 -3.0,16.563543312709204 -2.0,16.846356379136388 -1.0,17.28920420056922 0.0,17.783662185463225 1.0,18.20866977429126 2.0,18.460170286650367 3.0,18.476587625728023 4.0,18.253902254343306 5.0,17.846635317835027 6.0,17.354499966191387 7.0,16.897988097315178 8.0,16.588869738115324 9.0,16.502827843803622" stroke="black" stroke-width="0" fill="none" /><polyline points="190.0,8.5 191.0,8.377582561890373 192.0,8.04030230586814 193.0,7.570737201667703 194.0,7.083853163452858 195.0,6.698856384453066 196.0,6.510007503399555 197.0,6.5635433127092035 198.0,6.846356379136388 199.0,7.289204200569221 200.0,7.783662185463227 201.0,8.208669774291259 202.0,8.460170286650365 203.0,8.476587625728023 204.0,8.253902254343304 205.0,7.846635317835026 206.0,7.354499966191386 207.0,6.897988097315176 208.0,6.588869738115323 209.0,6.5028278438036216" stroke="black" stroke-width="0" fill="none" /><polyline points="190.0,18.5 191.0,18.37758256189037 192.0,18.04030230586814 193.0,17.570737201667704 194.0,17.083853163452858 195.0,16.698856384453066 196.0,16.510007503399553 197.0,16.563543312709204 198.0,16.846356379136388 199.0,17.28920420056922 200.0,17.783662185463225 201.0,18.20866977429126 202.0,18.460170286650367 203.0,18.476587625728023 204.0,18.253902254343306 205.0,17.846635317835027 206.0,17.354499966191387 207.0,16.897988097315178 208.0,16.588869738115324 209.0,16.502827843803622" stroke="black" stroke-width="0" fill="none" /></g></g><g transform="translate(750,396.87499999999955)"><rect x="0" y="0" width="200" height="153.12500000000014" fill="#212b38" stroke="black" stroke-width="0" /><rect x="0" y="131.2500000000001" width="200" height="21.87500000000002" fill="#726eff" stroke="black" stroke-width="0" /><text x="100.0" y="142.1875000000001" stroke="black" fill="white" stroke-width="0.1" font-size="12" font-weight="normal" font-family="Helvetica" text-anchor="middle" alignment-baseline="middle">AFIO</text><text x="210" y="153.12500000000014" stroke="black" fill="white" stroke-width="0.1" font-size="12" font-weight="normal" font-family="Helvetica" text-anchor="start" alignment-baseline="middle">0x40010000</text><rect x="0" y="109.3750000000001" width="200" height="21.87500000000002" fill="#726eff" stroke="black" stroke-width="0" /><text x="100.0" y="120.31250000000011" stroke="black" fill="white" stroke-width="0.1" font-size="12" font-weight="normal" font-family="Helvetica" text-anchor="middle" alignment-baseline="middle">EXTI</text><text x="210" y="131.2500000000001" stroke="black" fill="white" stroke-width="0.1" font-size="12" font-weight="normal" font-family="Helvetica" text-anchor="start" alignment-baseline="middle">0x40010400</text><rect x="0" y="87.50000000000009" width="200" height="21.87500000000002" fill="#726eff" stroke="black" stroke-width="0" /><text x="100.0" y="98.4375000000001" stroke="black" fill="white" stroke-width="0.1" font-size="12" font-weight="normal" font-family="Helvetica" text-anchor="middle" alignment-baseline="middle">PORT A</text><text x="210" y="109.37500000000011" stroke="black" fill="white" stroke-width="0.1" font-size="12" font-weight="normal" font-family="Helvetica" text-anchor="start" alignment-baseline="middle">0x40010800</text><rect x="0" y="65.62500000000006" width="200" height="21.87500000000002" fill="#726eff" stroke="black" stroke-width="0" /><text x="100.0" y="76.56250000000007" stroke="black" fill="white" stroke-width="0.1" font-size="12" font-weight="normal" font-family="Helvetica" text-anchor="middle" alignment-baseline="middle">PORT B</text><text x="210" y="87.50000000000009" stroke="black" fill="white" stroke-width="0.1" font-size="12" font-weight="normal" font-family="Helvetica" text-anchor="start" alignment-baseline="middle">0x40010c00</text><rect x="0" y="43.75000000000004" width="200" height="21.87500000000002" fill="#726eff" stroke="black" stroke-width="0" /><text x="100.0" y="54.68750000000006" stroke="black" fill="white" stroke-width="0.1" font-size="12" font-weight="normal" font-family="Helvetica" text-anchor="middle" alignment-baseline="middle">PORT C</text><text x="210" y="65.62500000000006" stroke="black" fill="white" stroke-width="0.1" font-size="12" font-weight="normal" font-family="Helvetica" text-anchor="start" alignment-baseline="middle">0x40011000</text><rect x="0" y="21.87500000000002" width="200" height="21.87500000000002" fill="#726eff" stroke="black" stroke-width="0" /><text x="100.0" y="32.81250000000003" stroke="black" fill="white" stroke-width="0.1" font-size="12" font-weight="normal" font-family="Helvetica" text-anchor="middle" alignment-baseline="middle">PORT D</text><text x="210" y="43.75000000000004" stroke="black" fill="white" stroke-width="0.1" font-size="12" font-weight="normal" font-family="Helvetica" text-anchor="start" alignment-baseline="middle">0x40011400</text><rect x="0" y="0.0" width="200" height="21.87500000000002" fill="#726eff" stroke="black" stroke-width="0" /><text x="100.0" y="10.93750000000001" stroke="black" fill="white" stroke-width="0.1" font-size="12" font-weight="normal" font-family="Helvetica" text-anchor="middle" alignment-baseline="middle">PORT E</text><text x="210" y="21.87500000000002" stroke="black" fill="white" stroke-width="0.1" font-size="12" font-weight="normal" font-family="Helvetica" text-anchor="start" alignment-baseline="middle">0x40011800</text></g><g transform="translate(750,371.87499999999955)"><rect x="0" y="0" width="200" height="25" fill="#212b38" stroke="black" stroke-width="0" /><g><rect x="0" y="0.0" width="200" height="25.0" fill="#37465b" /><polyline points="0,10.0 0,0.0 200,0.0 200,10.0" stroke="black" stroke-width="0" fill="none" /><polyline points="0,15.0 0,25.0 200,25.0 200,15.0" stroke="black" stroke-width="0" fill="none" /><polyline points="-10.0,8.5 -9.0,8.377582561890373 -8.0,8.04030230586814 -7.0,7.570737201667703 -6.0,7.083853163452858 -5.0,6.698856384453066 -4.0,6.510007503399555 -3.0,6.5635433127092035 -2.0,6.846356379136388 -1.0,7.289204200569221 0.0,7.783662185463227 1.0,8.208669774291259 2.0,8.460170286650365 3.0,8.476587625728023 4.0,8.253902254343304 5.0,7.846635317835026 6.0,7.354499966191386 7.0,6.897988097315176 8.0,6.588869738115323 9.0,6.5028278438036216" stroke="black" stroke-width="0" fill="none" /><polyline points="-10.0,18.5 -9.0,18.37758256189037 -8.0,18.04030230586814 -7.0,17.570737201667704 -6.0,17.083853163452858 -5.0,16.698856384453066 -4.0,16.510007503399553 -3.0,16.563543312709204 -2.0,16.846356379136388 -1.0,17.28920420056922 0.0,17.783662185463225 1.0,18.20866977429126 2.0,18.460170286650367 3.0,18.476587625728023 4.0,18.253902254343306 5.0,17.846635317835027 6.0,17.354499966191387 7.0,16.897988097315178 8.0,16.588869738115324 9.0,16.502827843803622" stroke="black" stroke-width="0" fill="none" /><polyline points="190.0,8.5 191.0,8.377582561890373 192.0,8.04030230586814 193.0,7.570737201667703 194.0,7.083853163452858 195.0,6.698856384453066 196.0,6.510007503399555 197.0,6.5635433127092035 198.0,6.846356379136388 199.0,7.289204200569221 200.0,7.783662185463227 201.0,8.208669774291259 202.0,8.460170286650365 203.0,8.476587625728023 204.0,8.253902254343304 205.0,7.846635317835026 206.0,7.354499966191386 207.0,6.897988097315176 208.0,6.588869738115323 209.0,6.5028278438036216" stroke="black" stroke-width="0" fill="none" /><polyline points="190.0,18.5 191.0,18.37758256189037 192.0,18.04030230586814 193.0,17.570737201667704 194.0,17.083853163452858 195.0,16.698856384453066 196.0,16.510007503399553 197.0,16.563543312709204 198.0,16.846356379136388 199.0,17.28920420056922 200.0,17.783662185463225 201.0,18.20866977429126 202.0,18.460170286650367 203.0,18.476587625728023 204.0,18.253902254343306 205.0,17.846635317835027 206.0,17.354499966191387 207.0,16.897988097315178 208.0,16.588869738115324 209.0,16.502827843803622" stroke="black" stroke-width="0" fill="none" /></g></g><g transform="translate(750,284.3749999999995)"><rect x="0" y="0" width="200" height="87.50000000000007" fill="#212b38" stroke="black" stroke-width="0" /><rect x="0" y="65.62500000000006" width="200" height="21.875000000000018" fill="#08c6ab" stroke="black" stroke-width="0" /><text x="100.0" y="76.56250000000007" stroke="black" fill="white" stroke-width="0.1" font-size="12" font-weight="normal" font-family="Helvetica" text-anchor="middle" alignment-baseline="middle">ADC1</text><text x="210" y="87.50000000000007" stroke="black" fill="white" stroke-width="0.1" font-size="12" font-weight="normal" font-family="Helvetica" text-anchor="start" alignment-baseline="middle">0x40012400</text><rect x="0" y="43.750000000000036" width="200" height="21.875000000000018" fill="#08c6ab" stroke="black" stroke-width="0" /><text x="100.0" y="54.68750000000004" stroke="black" fill="white" stroke-width="0.1" font-size="12" font-weight="normal" font-family="Helvetica" text-anchor="middle" alignment-baseline="middle">ADC2</text><text x="210" y="65.62500000000006" stroke="black" fill="white" stroke-width="0.1" font-size="12" font-weight="normal" font-family="Helvetica" text-anchor="start" alignment-baseline="middle">0x40012800</text><rect x="0" y="21.875000000000018" width="200" height="21.875000000000018" fill="#08c6ab" stroke="black" stroke-width="0" /><text x="100.0" y="32.81250000000003" stroke="black" fill="white" stroke-width="0.1" font-size="12" font-weight="normal" font-family="Helvetica" text-anchor="middle" alignment-baseline="middle">TIM1</text><text x="210" y="43.750000000000036" stroke="black" fill="white" stroke-width="0.1" font-size="12" font-weight="normal" font-family="Helvetica" text-anchor="start" alignment-baseline="middle">0x40012c00</text><rect x="0" y="0.0" width="200" height="21.875000000000018" fill="#08c6ab" stroke="black" stroke-width="0" /><text x="100.0" y="10.937500000000009" stroke="black" fill="white" stroke-width="0.1" font-size="12" font-weight="normal" font-family="Helvetica" text-anchor="middle" alignment-baseline="middle">SPI1</text><text x="210" y="21.875000000000018" stroke="black" fill="white" stroke-width="0.1" font-size="12" font-weight="normal" font-family="Helvetica" text-anchor="start" alignment-baseline="middle">0x40013000</text></g><g transform="translate(750,259.3749999999995)"><rect x="0" y="0" width="200" height="25" fill="#212b38" stroke="black" stroke-width="0" /><g><rect x="0" y="0.0" width="200" height="25.0" fill="#37465b" /><polyline points="0,10.0 0,0.0 200,0.0 200,10.0" stroke="black" stroke-width="0" fill="none" /><polyline points="0,15.0 0,25.0 200,25.0 200,15.0" stroke="black" stroke-width="0" fill="none" /><polyline points="-10.0,8.5 -9.0,8.377582561890373 -8.0,8.04030230586814 -7.0,7.570737201667703 -6.0,7.083853163452858 -5.0,6.698856384453066 -4.0,6.510007503399555 -3.0,6.5635433127092035 -2.0,6.846356379136388 -1.0,7.289204200569221 0.0,7.783662185463227 1.0,8.208669774291259 2.0,8.460170286650365 3.0,8.476587625728023 4.0,8.253902254343304 5.0,7.846635317835026 6.0,7.354499966191386 7.0,6.897988097315176 8.0,6.588869738115323 9.0,6.5028278438036216" stroke="black" stroke-width="0" fill="none" /><polyline points="-10.0,18.5 -9.0,18.37758256189037 -8.0,18.04030230586814 -7.0,17.570737201667704 -6.0,17.083853163452858 -5.0,16.698856384453066 -4.0,16.510007503399553 -3.0,16.563543312709204 -2.0,16.846356379136388 -1.0,17.28920420056922 0.0,17.783662185463225 1.0,18.20866977429126 2.0,18.460170286650367 3.0,18.476587625728023 4.0,18.253902254343306 5.0,17.846635317835027 6.0,17.354499966191387 7.0,16.897988097315178 8.0,16.588869738115324 9.0,16.502827843803622" stroke="black" stroke-width="0" fill="none" /><polyline points="190.0,8.5 191.0,8.377582561890373 192.0,8.04030230586814 193.0,7.570737201667703 194.0,7.083853163452858 195.0,6.698856384453066 196.0,6.510007503399555 197.0,6.5635433127092035 198.0,6.846356379136388 199.0,7.289204200569221 200.0,7.783662185463227 201.0,8.208669774291259 202.0,8.460170286650365 203.0,8.476587625728023 204.0,8.253902254343304 205.0,7.846635317835026 206.0,7.354499966191386 207.0,6.897988097315176 208.0,6.588869738115323 209.0,6.5028278438036216" stroke="black" stroke-width="0" fill="none" /><polyline points="190.0,18.5 191.0,18.37758256189037 192.0,18.04030230586814 193.0,17.570737201667704 194.0,17.083853163452858 195.0,16.698856384453066 196.0,16.510007503399553 197.0,16.563543312709204 198.0,16.846356379136388 199.0,17.28920420056922 200.0,17.783662185463225 201.0,18.20866977429126 202.0,18.460170286650367 203.0,18.476587625728023 204.0,18.253902254343306 205.0,17.846635317835027 206.0,17.354499966191387 207.0,16.897988097315178 208.0,16.588869738115324 209.0,16.502827843803622" stroke="black" stroke-width="0" fill="none" /></g></g><g transform="translate(750,237.49999999999946)"><rect x="0" y="0" width="200" height="21.875000000000018" fill="#212b38" stroke="black" stroke-width="0" /><rect x="0" y="0.0" width="200" height="21.875000000000018" fill="#08c6ab" stroke="black" stroke-width="0" /><text x="100.0" y="10.937500000000009" stroke="black" fill="white" stroke-width="0.1" font-size="12" font-weight="normal" font-family="Helvetica" text-anchor="middle" alignment-baseline="middle">USART1</text><text x="210" y="21.875000000000018" stroke="black" fill="white" stroke-width="0.1" font-size="12" font-weight="normal" font-family="Helvetica" text-anchor="start" alignment-baseline="middle">0x40013800</text></g><g transform="translate(750,212.49999999999946)"><rect x="0" y="0" width="200" height="25" fill="#212b38" stroke="black" stroke-width="0" /><g><rect x="0" y="0.0" width="200" height="25.0" fill="#37465b" /><polyline points="0,10.0 0,0.0 200,0.0 200,10.0" stroke="black" stroke-width="0" fill="none" /><polyline points="0,15.0 0,25.0 200,25.0 200,15.0" stroke="black" stroke-width="0" fill="none" /><polyline points="-10.0,8.5 -9.0,8.377582561890373 -8.0,8.04030230586814 -7.0,7.570737201667703 -6.0,7.083853163452858 -5.0,6.698856384453066 -4.0,6.510007503399555 -3.0,6.5635433127092035 -2.0,6.846356379136388 -1.0,7.289204200569221 0.0,7.783662185463227 1.0,8.208669774291259 2.0,8.460170286650365 3.0,8.476587625728023 4.0,8.253902254343304 5.0,7.846635317835026 6.0,7.354499966191386 7.0,6.897988097315176 8.0,6.588869738115323 9.0,6.5028278438036216" stroke="black" stroke-width="0" fill="none" /><polyline points="-10.0,18.5 -9.0,18.37758256189037 -8.0,18.04030230586814 -7.0,17.570737201667704 -6.0,17.083853163452858 -5.0,16.698856384453066 -4.0,16.510007503399553 -3.0,16.563543312709204 -2.0,16.846356379136388 -1.0,17.28920420056922 0.0,17.783662185463225 1.0,18.20866977429126 2.0,18.460170286650367 3.0,18.476587625728023 4.0,18.253902254343306 5.0,17.846635317835027 6.0,17.354499966191387 7.0,16.897988097315178 8.0,16.588869738115324 9.0,16.502827843803622" stroke="black" stroke-width="0" fill="none" /><polyline points="190.0,8.5 191.0,8.377582561890373 192.0,8.04030230586814 193.0,7.570737201667703 194.0,7.083853163452858 195.0,6.698856384453066 196.0,6.510007503399555 197.0,6.5635433127092035 198.0,6.846356379136388 199.0,7.289204200569221 200.0,7.783662185463227 201.0,8.208669774291259 202.0,8.460170286650365 203.0,8.476587625728023 204.0,8.253902254343304 205.0,7.846635317835026 206.0,7.354499966191386 207.0,6.897988097315176 208.0,6.588869738115323 209.0,6.5028278438036216" stroke="black" stroke-width="0" fill="none" /><polyline points="190.0,18.5 191.0,18.37758256189037 192.0,18.04030230586814 193.0,17.570737201667704 194.0,17.083853163452858 195.0,16.698856384453066 196.0,16.510007503399553 197.0,16.563543312709204 198.0,16.846356379136388 199.0,17.28920420056922 200.0,17.783662185463225 201.0,18.20866977429126 202.0,18.460170286650367 203.0,18.476587625728023 204.0,18.253902254343306 205.0,17.846635317835027 206.0,17.354499966191387 207.0,16.897988097315178 208.0,16.588869738115324 209.0,16.502827843803622" stroke="black" stroke-width="0" fill="none" /></g></g><g transform="translate(750,190.62499999999943)"><rect x="0" y="0" width="200" height="21.875000000000018" fill="#212b38" stroke="black" stroke-width="0" /><rect x="0" y="0.0" width="200" height="21.875000000000018" fill="#08c6ab" stroke="black" stroke-width="0" /><text x="100.0" y="10.937500000000009" stroke="black" fill="white" stroke-width="0.1" font-size="12" font-weight="normal" font-family="Helvetica" text-anchor="middle" alignment-baseline="middle">DMA</text><text x="210" y="21.875000000000018" stroke="black" fill="white" stroke-width="0.1" font-size="12" font-weight="normal" font-family="Helvetica" text-anchor="start" alignment-baseline="middle">0x40020000</text></g><g transform="translate(750,165.62499999999943)"><rect x="0" y="0" width="200" height="25" fill="#212b38" stroke="black" stroke-width="0" /><g><rect x="0" y="0.0" width="200" height="25.0" fill="#37465b" /><polyline points="0,10.0 0,0.0 200,0.0 200,10.0" stroke="black" stroke-width="0" fill="none" /><polyline points="0,15.0 0,25.0 200,25.0 200,15.0" stroke="black" stroke-width="0" fill="none" /><polyline points="-10.0,8.5 -9.0,8.377582561890373 -8.0,8.04030230586814 -7.0,7.570737201667703 -6.0,7.083853163452858 -5.0,6.698856384453066 -4.0,6.510007503399555 -3.0,6.5635433127092035 -2.0,6.846356379136388 -1.0,7.289204200569221 0.0,7.783662185463227 1.0,8.208669774291259 2.0,8.460170286650365 3.0,8.476587625728023 4.0,8.253902254343304 5.0,7.846635317835026 6.0,7.354499966191386 7.0,6.897988097315176 8.0,6.588869738115323 9.0,6.5028278438036216" stroke="black" stroke-width="0" fill="none" /><polyline points="-10.0,18.5 -9.0,18.37758256189037 -8.0,18.04030230586814 -7.0,17.570737201667704 -6.0,17.083853163452858 -5.0,16.698856384453066 -4.0,16.510007503399553 -3.0,16.563543312709204 -2.0,16.846356379136388 -1.0,17.28920420056922 0.0,17.783662185463225 1.0,18.20866977429126 2.0,18.460170286650367 3.0,18.476587625728023 4.0,18.253902254343306 5.0,17.846635317835027 6.0,17.354499966191387 7.0,16.897988097315178 8.0,16.588869738115324 9.0,16.502827843803622" stroke="black" stroke-width="0" fill="none" /><polyline points="190.0,8.5 191.0,8.377582561890373 192.0,8.04030230586814 193.0,7.570737201667703 194.0,7.083853163452858 195.0,6.698856384453066 196.0,6.510007503399555 197.0,6.5635433127092035 198.0,6.846356379136388 199.0,7.289204200569221 200.0,7.783662185463227 201.0,8.208669774291259 202.0,8.460170286650365 203.0,8.476587625728023 204.0,8.253902254343304 205.0,7.846635317835026 206.0,7.354499966191386 207.0,6.897988097315176 208.0,6.588869738115323 209.0,6.5028278438036216" stroke="black" stroke-width="0" fill="none" /><polyline points="190.0,18.5 191.0,18.37758256189037 192.0,18.04030230586814 193.0,17.570737201667704 194.0,17.083853163452858 195.0,16.698856384453066 196.0,16.510007503399553 197.0,16.563543312709204 198.0,16.846356379136388 199.0,17.28920420056922 200.0,17.783662185463225 201.0,18.20866977429126 202.0,18.460170286650367 203.0,18.476587625728023 204.0,18.253902254343306 205.0,17.846635317835027 206.0,17.354499966191387 207.0,16.897988097315178 208.0,16.588869738115324 209.0,16.502827843803622" stroke="black" stroke-width="0" fill="none" /></g></g><g transform="translate(750,143.7499999999994)"><rect x="0" y="0" width="200" height="21.875000000000018" fill="#212b38" stroke="black" stroke-width="0" /><rect x="0" y="0.0" width="200" height="21.875000000000018" fill="#08c6ab" stroke="black" stroke-width="0" /><text x="100.0" y="10.937500000000009" stroke="black" fill="white" stroke-width="0.1" font-size="12" font-weight="normal" font-family="Helvetica" text-anchor="middle" alignment-baseline="middle">RCC</text><text x="210" y="21.875000000000018" stroke="black" fill="white" stroke-width="0.1" font-size="12" font-weight="normal" font-family="Helvetica" text-anchor="start" alignment-baseline="middle">0x40021000</text></g><g transform="translate(750,118.7499999999994)"><rect x="0" y="0" width="200" height="25" fill="#212b38" stroke="black" stroke-width="0" /><g><rect x="0" y="0.0" width="200" height="25.0" fill="#37465b" /><polyline points="0,10.0 0,0.0 200,0.0 200,10.0" stroke="black" stroke-width="0" fill="none" /><polyline points="0,15.0 0,25.0 200,25.0 200,15.0" stroke="black" stroke-width="0" fill="none" /><polyline points="-10.0,8.5 -9.0,8.377582561890373 -8.0,8.04030230586814 -7.0,7.570737201667703 -6.0,7.083853163452858 -5.0,6.698856384453066 -4.0,6.510007503399555 -3.0,6.5635433127092035 -2.0,6.846356379136388 -1.0,7.289204200569221 0.0,7.783662185463227 1.0,8.208669774291259 2.0,8.460170286650365 3.0,8.476587625728023 4.0,8.253902254343304 5.0,7.846635317835026 6.0,7.354499966191386 7.0,6.897988097315176 8.0,6.588869738115323 9.0,6.5028278438036216" stroke="black" stroke-width="0" fill="none" /><polyline points="-10.0,18.5 -9.0,18.37758256189037 -8.0,18.04030230586814 -7.0,17.570737201667704 -6.0,17.083853163452858 -5.0,16.698856384453066 -4.0,16.510007503399553 -3.0,16.563543312709204 -2.0,16.846356379136388 -1.0,17.28920420056922 0.0,17.783662185463225 1.0,18.20866977429126 2.0,18.460170286650367 3.0,18.476587625728023 4.0,18.253902254343306 5.0,17.846635317835027 6.0,17.354499966191387 7.0,16.897988097315178 8.0,16.588869738115324 9.0,16.502827843803622" stroke="black" stroke-width="0" fill="none" /><polyline points="190.0,8.5 191.0,8.377582561890373 192.0,8.04030230586814 193.0,7.570737201667703 194.0,7.083853163452858 195.0,6.698856384453066 196.0,6.510007503399555 197.0,6.5635433127092035 198.0,6.846356379136388 199.0,7.289204200569221 200.0,7.783662185463227 201.0,8.208669774291259 202.0,8.460170286650365 203.0,8.476587625728023 204.0,8.253902254343304 205.0,7.846635317835026 206.0,7.354499966191386 207.0,6.897988097315176 208.0,6.588869738115323 209.0,6.5028278438036216" stroke="black" stroke-width="0" fill="none" /><polyline points="190.0,18.5 191.0,18.37758256189037 192.0,18.04030230586814 193.0,17.570737201667704 194.0,17.083853163452858 195.0,16.698856384453066 196.0,16.510007503399553 197.0,16.563543312709204 198.0,16.846356379136388 199.0,17.28920420056922 200.0,17.783662185463225 201.0,18.20866977429126 202.0,18.460170286650367 203.0,18.476587625728023 204.0,18.253902254343306 205.0,17.846635317835027 206.0,17.354499966191387 207.0,16.897988097315178 208.0,16.588869738115324 209.0,16.502827843803622" stroke="black" stroke-width="0" fill="none" /></g></g><g transform="translate(750,96.87499999999939)"><rect x="0" y="0" width="200" height="21.875000000000018" fill="#212b38" stroke="black" stroke-width="0" /><rect x="0" y="0.0" width="200" height="21.875000000000018" fill="#08c6ab" stroke="black" stroke-width="0" /><text x="100.0" y="10.937500000000009" stroke="black" fill="white" stroke-width="0.1" font-size="12" font-weight="normal" font-family="Helvetica" text-anchor="middle" alignment-baseline="middle">Flash Interface</text><text x="210" y="21.875000000000018" stroke="black" fill="white" stroke-width="0.1" font-size="12" font-weight="normal" font-family="Helvetica" text-anchor="start" alignment-baseline="middle">0x40022000</text></g><g transform="translate(750,71.87499999999939)"><rect x="0" y="0" width="200" height="25" fill="#212b38" stroke="black" stroke-width="0" /><g><rect x="0" y="0.0" width="200" height="25.0" fill="#37465b" /><polyline points="0,10.0 0,0.0 200,0.0 200,10.0" stroke="black" stroke-width="0" fill="none" /><polyline points="0,15.0 0,25.0 200,25.0 200,15.0" stroke="black" stroke-width="0" fill="none" /><polyline points="-10.0,8.5 -9.0,8.377582561890373 -8.0,8.04030230586814 -7.0,7.570737201667703 -6.0,7.083853163452858 -5.0,6.698856384453066 -4.0,6.510007503399555 -3.0,6.5635433127092035 -2.0,6.846356379136388 -1.0,7.289204200569221 0.0,7.783662185463227 1.0,8.208669774291259 2.0,8.460170286650365 3.0,8.476587625728023 4.0,8.253902254343304 5.0,7.846635317835026 6.0,7.354499966191386 7.0,6.897988097315176 8.0,6.588869738115323 9.0,6.5028278438036216" stroke="black" stroke-width="0" fill="none" /><polyline points="-10.0,18.5 -9.0,18.37758256189037 -8.0,18.04030230586814 -7.0,17.570737201667704 -6.0,17.083853163452858 -5.0,16.698856384453066 -4.0,16.510007503399553 -3.0,16.563543312709204 -2.0,16.846356379136388 -1.0,17.28920420056922 0.0,17.783662185463225 1.0,18.20866977429126 2.0,18.460170286650367 3.0,18.476587625728023 4.0,18.253902254343306 5.0,17.846635317835027 6.0,17.354499966191387 7.0,16.897988097315178 8.0,16.588869738115324 9.0,16.502827843803622" stroke="black" stroke-width="0" fill="none" /><polyline points="190.0,8.5 191.0,8.377582561890373 192.0,8.04030230586814 193.0,7.570737201667703 194.0,7.083853163452858 195.0,6.698856384453066 196.0,6.510007503399555 197.0,6.5635433127092035 198.0,6.846356379136388 199.0,7.289204200569221 200.0,7.783662185463227 201.0,8.208669774291259 202.0,8.460170286650365 203.0,8.476587625728023 204.0,8.253902254343304 205.0,7.846635317835026 206.0,7.354499966191386 207.0,6.897988097315176 208.0,6.588869738115323 209.0,6.5028278438036216" stroke="black" stroke-width="0" fill="none" /><polyline points="190.0,18.5 191.0,18.37758256189037 192.0,18.04030230586814 193.0,17.570737201667704 194.0,17.083853163452858 195.0,16.698856384453066 196.0,16.510007503399553 197.0,16.563543312709204 198.0,16.846356379136388 199.0,17.28920420056922 200.0,17.783662185463225 201.0,18.20866977429126 202.0,18.460170286650367 203.0,18.476587625728023 204.0,18.253902254343306 205.0,17.846635317835027 206.0,17.354499966191387 207.0,16.897988097315178 208.0,16.588869738115324 209.0,16.502827843803622" stroke="black" stroke-width="0" fill="none" /></g></g><g transform="translate(750,49.999999999999375)"><rect x="0" y="0" width="200" height="21.875000000000018" fill="#212b38" stroke="black" stroke-width="0" /><rect x="0" y="0.0" width="200" height="21.875000000000018" fill="#08c6ab" stroke="black" stroke-width="0" /><text x="100.0" y="10.937500000000009" stroke="black" fill="white" stroke-width="0.1" font-size="12" font-weight="normal" font-family="Helvetica" text-anchor="middle" alignment-baseline="middle">CRC</text><text x="210" y="21.875000000000018" stroke="black" fill="white" stroke-width="0.1" font-size="12" font-weight="normal" font-family="Helvetica" text-anchor="start" alignment-baseline="middle">0x40023000</text></g></g><g><g transform="translate(100,50)" /><g transform="translate(450,700)" /><g transform="translate(450,550)" /><g transform="translate(450,50)" /><g transform="translate(750,984.3749999999999)" /><g transform="translate(750,959.3749999999999)" /><g transform="translate(750,893.7499999999998)" /><g transform="translate(750,868.7499999999998)" /><g transform="translate(750,846.8749999999998)" /><g transform="translate(750,821.8749999999998)" /><g transform="translate(750,778.1249999999998)" /><g transform="translate(750,753.1249999999998)" /><g transform="translate(750,643.7499999999997)" /><g transform="translate(750,618.7499999999997)" /><g transform="translate(750,574.9999999999997)" /><g transform="translate(750,549.9999999999997)" /><g transform="translate(750,396.87499999999955)" /><g transform="translate(750,371.87499999999955)" /><g transform="translate(750,284.3749999999995)" /><g transform="translate(750,259.3749999999995)" /><g transform="translate(750,237.49999999999946)" /><g transform="translate(750,212.49999999999946)" /><g transform="translate(750,190.62499999999943)" /><g transform="translate(750,165.62499999999943)" /><g transform="translate(750,143.7499999999994)" /><g transform="translate(750,118.7499999999994)" /><g transform="translate(750,96.87499999999939)" /><g transform="translate(750,71.87499999999939)" /><g transform="translate(750,49.999999999999375)" /></g><g><g transform="translate(100,50)"><g /><g /><g /><g /><g /><g /><g /><g /><g /><g /><g /><g /><g /><g /><g /><g /><g /><g /><g /><g /><g /><g /><g /><g /><g /><g /><g /><g /><g /><g /><g /><g /><g /><g /><g /><g /><g /><g /><g /><g /><g /><g /><g /><g /><g /><g /><g /><g /><g /><g /><g /><g /><g /><g /><g /><g /><g /><g /><g /><g /><g /></g><g transform="translate(450,700)"><g /></g><g transform="translate(450,550)"><g /><g /></g><g transform="translate(450,50)"><g /></g><g transform="translate(750,984.3749999999999)"><g /><g /><g /></g><g transform="translate(750,959.3749999999999)"><g /></g><g transform="translate(750,893.7499999999998)"><g /><g /><g /></g><g transform="translate(750,868.7499999999998)"><g /></g><g transform="translate(750,846.8749999999998)"><g /></g><g transform="translate(750,821.8749999999998)"><g /></g><g transform="translate(750,778.1249999999998)"><g /><g /></g><g transform="translate(750,753.1249999999998)"><g /></g><g transform="translate(750,643.7499999999997)"><g /><g /><g /><g /><g /></g><g transform="translate(750,618.7499999999997)"><g /></g><g transform="translate(750,574.9999999999997)"><g /><g /></g><g transform="translate(750,549.9999999999997)"><g /></g><g transform="translate(750,396.87499999999955)"><g /><g /><g /><g /><g /><g /><g /></g><g transform="translate(750,371.87499999999955)"><g /></g><g transform="translate(750,284.3749999999995)"><g /><g /><g /><g /></g><g transform="translate(750,259.3749999999995)"><g /></g><g transform="translate(750,237.49999999999946)"><g /></g><g transform="translate(750,212.49999999999946)"><g /></g><g transform="translate(750,190.62499999999943)"><g /></g><g transform="translate(750,165.62499999999943)"><g /></g><g transform="translate(750,143.7499999999994)"><g /></g><g transform="translate(750,118.7499999999994)"><g /></g><g transform="translate(750,96.87499999999939)"><g /></g><g transform="translate(750,71.87499999999939)"><g /></g><g transform="translate(750,49.999999999999375)"><g /></g></g></svg>