<?xml version="1.0" encoding="utf-8"?>
<svg xmlns="http://www.w3.org/2000/svg" width="300" height="600" viewBox="0 0 300 600"><rect x="0" y="0" width="300" height="600" fill="white" /><g /><g><text x="100.0" y="-20" stroke="black" fill="black" stroke-width="0" font-size="24px" font-weight="normal" font-family="Helvetica" text-anchor="middle" alignment-baseline="middle" transform="translate(50,50)">Full Memory Map</text><g transform="translate(50,50)"><rect x="0" y="0" width="200" height="500" fill="#313b48" stroke="black" stroke-width="0" /><rect x="0" y="444.44444444444446" width="200" height="55.55555555555556" fill="#47b39d" stroke="black" stroke-width="0" /><text x="100.0" y="472.22222222222223" stroke="black" fill="black" stroke-width="0" font-size="16" font-weight="normal" font-family="Helvetica" text-anchor="middle" alignment-baseline="middle">Text</text><rect x="0" y="388.8888888888889" width="200" height="55.55555555555556" fill="#ffc153" stroke="black" stroke-width="0" /><text x="100.0" y="416.6666666666667" stroke="black" fill="black" stroke-width="0" font-size="16" font-weight="normal" font-family="Helvetica" text-anchor="middle" alignment-baseline="middle">Initialized data</text><rect x="0" y="333.33333333333337" width="200" height="55.55555555555556" fill="#eb6b56" stroke="black" stroke-width="0" /><text x="100.0" y="361.11111111111114" stroke="black" fill="black" stroke-width="0" font-size="16" font-weight="normal" font-family="Helvetica" text-anchor="middle" alignment-baseline="middle">Uninitialized data</text><rect x="0" y="277.77777777777777" width="200" height="55.55555555555556" fill="#b05f6d" stroke="black" stroke-width="0" /><text x="100.0" y="305.55555555555554" stroke="black" fill="black" stroke-width="0" font-size="16" font-weight="normal" font-family="Helvetica" text-anchor="middle" alignment-baseline="middle">Heap</text><rect x="0" y="0.0" width="200" height="55.55555555555556" fill="#462446" stroke="black" stroke-width="0" /><text x="100.0" y="27.77777777777778" stroke="black" fill="white" stroke-width="0" font-size="16" font-weight="normal" font-family="Helvetica" text-anchor="middle" alignment-baseline="middle">Stack</text></g></g><g><g transform="translate(50,50)" /></g><g><g transform="translate(50,50)"><g /><g /><g /><g><polyline points="98.0,277.77777777777777 98.0,257.77777777777777 90.0,257.77777777777777 100.0,237.77777777777777 110.0,257.77777777777777 102.0,257.77777777777777 102.0,277.77777777777777" stroke="black" stroke-width="1" fill="white" /></g><g><polyline points="98.0,55.55555555555556 98.0,75.55555555555556 90.0,75.55555555555556 100.0,95.55555555555556 110.0,75.55555555555556 102.0,75.55555555555556 102.0,55.55555555555556" stroke="black" stroke-width="1" fill="white" /></g></g></g></svg>