<?xml version="1.0" encoding="utf-8"?>
<svg xmlns="http://www.w3.org/2000/svg" width="1200" height="1400" viewBox="0 0 1200 1400"><rect x="0" y="0" width="1200" height="1400" fill="#ffffff" /><g><g><path d="M 260,1277.3076923076924 L 290,1277.3076923076924 L 920,1320.0 L 920,320.0 L 290,1034.6153846153848 L 260,1034.6153846153848 Z" fill="#a8c4d4" stroke="none" opacity="0.35" /></g><g><path d="M 260,1009.6153846153848 L 290,1009.6153846153848 L 920,270.0 L 920,80.0 L 290,980.3846153846155 L 260,980.3846153846155 Z" fill="#a8c4d4" stroke="none" opacity="0.35" /></g><g><path d="M 260,955.3846153846155 L 290,955.3846153846155 L 460,630.0 L 460,80.0 L 290,712.6923076923078 L 260,712.6923076923078 Z" fill="#a8c4d4" stroke="none" opacity="0.35" /></g></g><g /><g><text x="100.0" y="-20" stroke="none" fill="#1a2c3d" stroke-width="0" font-size="24px" font-weight="normal" font-family="Helvetica" text-anchor="middle" alignment-baseline="middle" transform="translate(60,80)">Caliptra RoT</text><g transform="translate(60,1302.3076923076924)"><rect x="0" y="0" width="200" height="57.69230769230769" fill="#ffffff" stroke="#8a9ab0" stroke-width="1" /><rect x="0" y="0.0" width="200" height="57.69230769230769" fill="#d4c4a8" stroke="#8a9ab0" stroke-width="1" /><text x="100.0" y="28.846153846153847" stroke="none" fill="#1a2c3d" stroke-width="0" font-size="12" font-weight="normal" font-family="Helvetica" text-anchor="middle" alignment-baseline="middle">ROM</text><text x="210" y="57.69230769230769" stroke="none" fill="#1a2c3d" stroke-width="0" font-size="12" font-weight="normal" font-family="Helvetica" text-anchor="start" alignment-baseline="middle">0x00000000</text><text x="210" y="0.0" stroke="none" fill="#1a2c3d" stroke-width="0" font-size="12" font-weight="normal" font-family="Helvetica" text-anchor="start" alignment-baseline="middle">0x00018000</text><text x="2" y="2.0" stroke="none" fill="#1a2c3d" stroke-width="0" font-size="12px" font-weight="normal" font-family="Helvetica" text-anchor="start" alignment-baseline="hanging">96 KiB</text></g><g transform="translate(60,1277.3076923076924)"><rect x="0" y="0" width="200" height="25" fill="#ffffff" stroke="#8a9ab0" stroke-width="1" /><g><rect x="0" y="0.0" width="200" height="25.0" fill="#eaecee" /><polyline points="0,10.0 0,0.0 200,0.0 200,10.0" stroke="#c8cdd4" stroke-width="1" fill="none" /><polyline points="0,15.0 0,25.0 200,25.0 200,15.0" stroke="#c8cdd4" stroke-width="1" fill="none" /><polyline points="-10.0,8.5 -9.0,8.377582561890373 -8.0,8.04030230586814 -7.0,7.570737201667703 -6.0,7.083853163452858 -5.0,6.698856384453066 -4.0,6.510007503399555 -3.0,6.5635433127092035 -2.0,6.846356379136388 -1.0,7.289204200569221 0.0,7.783662185463227 1.0,8.208669774291259 2.0,8.460170286650365 3.0,8.476587625728023 4.0,8.253902254343304 5.0,7.846635317835026 6.0,7.354499966191386 7.0,6.897988097315176 8.0,6.588869738115323 9.0,6.5028278438036216" stroke="#c8cdd4" stroke-width="1" fill="none" /><polyline points="-10.0,18.5 -9.0,18.37758256189037 -8.0,18.04030230586814 -7.0,17.570737201667704 -6.0,17.083853163452858 -5.0,16.698856384453066 -4.0,16.510007503399553 -3.0,16.563543312709204 -2.0,16.846356379136388 -1.0,17.28920420056922 0.0,17.783662185463225 1.0,18.20866977429126 2.0,18.460170286650367 3.0,18.476587625728023 4.0,18.253902254343306 5.0,17.846635317835027 6.0,17.354499966191387 7.0,16.897988097315178 8.0,16.588869738115324 9.0,16.502827843803622" stroke="#c8cdd4" stroke-width="1" fill="none" /><polyline points="190.0,8.5 191.0,8.377582561890373 192.0,8.04030230586814 193.0,7.570737201667703 194.0,7.083853163452858 195.0,6.698856384453066 196.0,6.510007503399555 197.0,6.5635433127092035 198.0,6.846356379136388 199.0,7.289204200569221 200.0,7.783662185463227 201.0,8.208669774291259 202.0,8.460170286650365 203.0,8.476587625728023 204.0,8.253902254343304 205.0,7.846635317835026 206.0,7.354499966191386 207.0,6.897988097315176 208.0,6.588869738115323 209.0,6.5028278438036216" stroke="#c8cdd4" stroke-width="1" fill="none" /><polyline points="190.0,18.5 191.0,18.37758256189037 192.0,18.04030230586814 193.0,17.570737201667704 194.0,17.083853163452858 195.0,16.698856384453066 196.0,16.510007503399553 197.0,16.563543312709204 198.0,16.846356379136388 199.0,17.28920420056922 200.0,17.783662185463225 201.0,18.20866977429126 202.0,18.460170286650367 203.0,18.476587625728023 204.0,18.253902254343306 205.0,17.846635317835027 206.0,17.354499966191387 207.0,16.897988097315178 208.0,16.588869738115324 209.0,16.502827843803622" stroke="#c8cdd4" stroke-width="1" fill="none" /></g><text x="100.0" y="12.5" stroke="none" fill="#9aacb8" stroke-width="0" font-size="12" font-weight="normal" font-family="Helvetica" text-anchor="middle" alignment-baseline="middle">···</text></g><g transform="translate(60,1034.6153846153848)"><rect x="0" y="0" width="200" height="242.69230769230768" fill="#ffffff" stroke="#8a9ab0" stroke-width="1" /><rect x="0" y="0.0" width="200" height="242.69230769230768" fill="#c4b8d8" stroke="#8a9ab0" stroke-width="1" /><text x="100.0" y="121.34615384615384" stroke="none" fill="#1a2c3d" stroke-width="0" font-size="12" font-weight="normal" font-family="Helvetica" text-anchor="middle" alignment-baseline="middle">Crypto Subsystem</text><text x="210" y="242.69230769230768" stroke="none" fill="#1a2c3d" stroke-width="0" font-size="12" font-weight="normal" font-family="Helvetica" text-anchor="start" alignment-baseline="middle">0x10000000</text><text x="210" y="0.0" stroke="none" fill="#1a2c3d" stroke-width="0" font-size="12" font-weight="normal" font-family="Helvetica" text-anchor="start" alignment-baseline="middle">0x10080000</text><text x="2" y="2.0" stroke="none" fill="#1a2c3d" stroke-width="0" font-size="12px" font-weight="normal" font-family="Helvetica" text-anchor="start" alignment-baseline="hanging">512 KiB</text></g><g transform="translate(60,1009.6153846153848)"><rect x="0" y="0" width="200" height="25" fill="#ffffff" stroke="#8a9ab0" stroke-width="1" /><g><rect x="0" y="0.0" width="200" height="25.0" fill="#eaecee" /><polyline points="0,10.0 0,0.0 200,0.0 200,10.0" stroke="#c8cdd4" stroke-width="1" fill="none" /><polyline points="0,15.0 0,25.0 200,25.0 200,15.0" stroke="#c8cdd4" stroke-width="1" fill="none" /><polyline points="-10.0,8.5 -9.0,8.377582561890373 -8.0,8.04030230586814 -7.0,7.570737201667703 -6.0,7.083853163452858 -5.0,6.698856384453066 -4.0,6.510007503399555 -3.0,6.5635433127092035 -2.0,6.846356379136388 -1.0,7.289204200569221 0.0,7.783662185463227 1.0,8.208669774291259 2.0,8.460170286650365 3.0,8.476587625728023 4.0,8.253902254343304 5.0,7.846635317835026 6.0,7.354499966191386 7.0,6.897988097315176 8.0,6.588869738115323 9.0,6.5028278438036216" stroke="#c8cdd4" stroke-width="1" fill="none" /><polyline points="-10.0,18.5 -9.0,18.37758256189037 -8.0,18.04030230586814 -7.0,17.570737201667704 -6.0,17.083853163452858 -5.0,16.698856384453066 -4.0,16.510007503399553 -3.0,16.563543312709204 -2.0,16.846356379136388 -1.0,17.28920420056922 0.0,17.783662185463225 1.0,18.20866977429126 2.0,18.460170286650367 3.0,18.476587625728023 4.0,18.253902254343306 5.0,17.846635317835027 6.0,17.354499966191387 7.0,16.897988097315178 8.0,16.588869738115324 9.0,16.502827843803622" stroke="#c8cdd4" stroke-width="1" fill="none" /><polyline points="190.0,8.5 191.0,8.377582561890373 192.0,8.04030230586814 193.0,7.570737201667703 194.0,7.083853163452858 195.0,6.698856384453066 196.0,6.510007503399555 197.0,6.5635433127092035 198.0,6.846356379136388 199.0,7.289204200569221 200.0,7.783662185463227 201.0,8.208669774291259 202.0,8.460170286650365 203.0,8.476587625728023 204.0,8.253902254343304 205.0,7.846635317835026 206.0,7.354499966191386 207.0,6.897988097315176 208.0,6.588869738115323 209.0,6.5028278438036216" stroke="#c8cdd4" stroke-width="1" fill="none" /><polyline points="190.0,18.5 191.0,18.37758256189037 192.0,18.04030230586814 193.0,17.570737201667704 194.0,17.083853163452858 195.0,16.698856384453066 196.0,16.510007503399553 197.0,16.563543312709204 198.0,16.846356379136388 199.0,17.28920420056922 200.0,17.783662185463225 201.0,18.20866977429126 202.0,18.460170286650367 203.0,18.476587625728023 204.0,18.253902254343306 205.0,17.846635317835027 206.0,17.354499966191387 207.0,16.897988097315178 208.0,16.588869738115324 209.0,16.502827843803622" stroke="#c8cdd4" stroke-width="1" fill="none" /></g><text x="100.0" y="12.5" stroke="none" fill="#9aacb8" stroke-width="0" font-size="12" font-weight="normal" font-family="Helvetica" text-anchor="middle" alignment-baseline="middle">···</text></g><g transform="translate(60,980.3846153846155)"><rect x="0" y="0" width="200" height="29.23076923076923" fill="#ffffff" stroke="#8a9ab0" stroke-width="1" /><rect x="0" y="0.0" width="200" height="29.23076923076923" fill="#a8d5ba" stroke="#8a9ab0" stroke-width="1" /><text x="100.0" y="14.615384615384615" stroke="none" fill="#1a2c3d" stroke-width="0" font-size="12" font-weight="normal" font-family="Helvetica" text-anchor="middle" alignment-baseline="middle">Peripherals</text><text x="210" y="29.23076923076923" stroke="none" fill="#1a2c3d" stroke-width="0" font-size="12" font-weight="normal" font-family="Helvetica" text-anchor="start" alignment-baseline="middle">0x20000000</text><text x="210" y="0.0" stroke="none" fill="#1a2c3d" stroke-width="0" font-size="12" font-weight="normal" font-family="Helvetica" text-anchor="start" alignment-baseline="middle">0x20008000</text><text x="2" y="2.0" stroke="none" fill="#1a2c3d" stroke-width="0" font-size="12px" font-weight="normal" font-family="Helvetica" text-anchor="start" alignment-baseline="hanging">32 KiB</text></g><g transform="translate(60,955.3846153846155)"><rect x="0" y="0" width="200" height="25" fill="#ffffff" stroke="#8a9ab0" stroke-width="1" /><g><rect x="0" y="0.0" width="200" height="25.0" fill="#eaecee" /><polyline points="0,10.0 0,0.0 200,0.0 200,10.0" stroke="#c8cdd4" stroke-width="1" fill="none" /><polyline points="0,15.0 0,25.0 200,25.0 200,15.0" stroke="#c8cdd4" stroke-width="1" fill="none" /><polyline points="-10.0,8.5 -9.0,8.377582561890373 -8.0,8.04030230586814 -7.0,7.570737201667703 -6.0,7.083853163452858 -5.0,6.698856384453066 -4.0,6.510007503399555 -3.0,6.5635433127092035 -2.0,6.846356379136388 -1.0,7.289204200569221 0.0,7.783662185463227 1.0,8.208669774291259 2.0,8.460170286650365 3.0,8.476587625728023 4.0,8.253902254343304 5.0,7.846635317835026 6.0,7.354499966191386 7.0,6.897988097315176 8.0,6.588869738115323 9.0,6.5028278438036216" stroke="#c8cdd4" stroke-width="1" fill="none" /><polyline points="-10.0,18.5 -9.0,18.37758256189037 -8.0,18.04030230586814 -7.0,17.570737201667704 -6.0,17.083853163452858 -5.0,16.698856384453066 -4.0,16.510007503399553 -3.0,16.563543312709204 -2.0,16.846356379136388 -1.0,17.28920420056922 0.0,17.783662185463225 1.0,18.20866977429126 2.0,18.460170286650367 3.0,18.476587625728023 4.0,18.253902254343306 5.0,17.846635317835027 6.0,17.354499966191387 7.0,16.897988097315178 8.0,16.588869738115324 9.0,16.502827843803622" stroke="#c8cdd4" stroke-width="1" fill="none" /><polyline points="190.0,8.5 191.0,8.377582561890373 192.0,8.04030230586814 193.0,7.570737201667703 194.0,7.083853163452858 195.0,6.698856384453066 196.0,6.510007503399555 197.0,6.5635433127092035 198.0,6.846356379136388 199.0,7.289204200569221 200.0,7.783662185463227 201.0,8.208669774291259 202.0,8.460170286650365 203.0,8.476587625728023 204.0,8.253902254343304 205.0,7.846635317835026 206.0,7.354499966191386 207.0,6.897988097315176 208.0,6.588869738115323 209.0,6.5028278438036216" stroke="#c8cdd4" stroke-width="1" fill="none" /><polyline points="190.0,18.5 191.0,18.37758256189037 192.0,18.04030230586814 193.0,17.570737201667704 194.0,17.083853163452858 195.0,16.698856384453066 196.0,16.510007503399553 197.0,16.563543312709204 198.0,16.846356379136388 199.0,17.28920420056922 200.0,17.783662185463225 201.0,18.20866977429126 202.0,18.460170286650367 203.0,18.476587625728023 204.0,18.253902254343306 205.0,17.846635317835027 206.0,17.354499966191387 207.0,16.897988097315178 208.0,16.588869738115324 209.0,16.502827843803622" stroke="#c8cdd4" stroke-width="1" fill="none" /></g><text x="100.0" y="12.5" stroke="none" fill="#9aacb8" stroke-width="0" font-size="12" font-weight="normal" font-family="Helvetica" text-anchor="middle" alignment-baseline="middle">···</text></g><g transform="translate(60,712.6923076923078)"><rect x="0" y="0" width="200" height="242.69230769230768" fill="#ffffff" stroke="#8a9ab0" stroke-width="1" /><rect x="0" y="0.0" width="200" height="242.69230769230768" fill="#a8bcd4" stroke="#8a9ab0" stroke-width="1" /><text x="100.0" y="121.34615384615384" stroke="none" fill="#1a2c3d" stroke-width="0" font-size="12" font-weight="normal" font-family="Helvetica" text-anchor="middle" alignment-baseline="middle">SoC Interface</text><text x="210" y="242.69230769230768" stroke="none" fill="#1a2c3d" stroke-width="0" font-size="12" font-weight="normal" font-family="Helvetica" text-anchor="start" alignment-baseline="middle">0x30000000</text><text x="210" y="0.0" stroke="none" fill="#1a2c3d" stroke-width="0" font-size="12" font-weight="normal" font-family="Helvetica" text-anchor="start" alignment-baseline="middle">0x30080000</text><text x="2" y="2.0" stroke="none" fill="#1a2c3d" stroke-width="0" font-size="12px" font-weight="normal" font-family="Helvetica" text-anchor="start" alignment-baseline="hanging">512 KiB</text></g><g transform="translate(60,687.6923076923078)"><rect x="0" y="0" width="200" height="25" fill="#ffffff" stroke="#8a9ab0" stroke-width="1" /><g><rect x="0" y="0.0" width="200" height="25.0" fill="#eaecee" /><polyline points="0,10.0 0,0.0 200,0.0 200,10.0" stroke="#c8cdd4" stroke-width="1" fill="none" /><polyline points="0,15.0 0,25.0 200,25.0 200,15.0" stroke="#c8cdd4" stroke-width="1" fill="none" /><polyline points="-10.0,8.5 -9.0,8.377582561890373 -8.0,8.04030230586814 -7.0,7.570737201667703 -6.0,7.083853163452858 -5.0,6.698856384453066 -4.0,6.510007503399555 -3.0,6.5635433127092035 -2.0,6.846356379136388 -1.0,7.289204200569221 0.0,7.783662185463227 1.0,8.208669774291259 2.0,8.460170286650365 3.0,8.476587625728023 4.0,8.253902254343304 5.0,7.846635317835026 6.0,7.354499966191386 7.0,6.897988097315176 8.0,6.588869738115323 9.0,6.5028278438036216" stroke="#c8cdd4" stroke-width="1" fill="none" /><polyline points="-10.0,18.5 -9.0,18.37758256189037 -8.0,18.04030230586814 -7.0,17.570737201667704 -6.0,17.083853163452858 -5.0,16.698856384453066 -4.0,16.510007503399553 -3.0,16.563543312709204 -2.0,16.846356379136388 -1.0,17.28920420056922 0.0,17.783662185463225 1.0,18.20866977429126 2.0,18.460170286650367 3.0,18.476587625728023 4.0,18.253902254343306 5.0,17.846635317835027 6.0,17.354499966191387 7.0,16.897988097315178 8.0,16.588869738115324 9.0,16.502827843803622" stroke="#c8cdd4" stroke-width="1" fill="none" /><polyline points="190.0,8.5 191.0,8.377582561890373 192.0,8.04030230586814 193.0,7.570737201667703 194.0,7.083853163452858 195.0,6.698856384453066 196.0,6.510007503399555 197.0,6.5635433127092035 198.0,6.846356379136388 199.0,7.289204200569221 200.0,7.783662185463227 201.0,8.208669774291259 202.0,8.460170286650365 203.0,8.476587625728023 204.0,8.253902254343304 205.0,7.846635317835026 206.0,7.354499966191386 207.0,6.897988097315176 208.0,6.588869738115323 209.0,6.5028278438036216" stroke="#c8cdd4" stroke-width="1" fill="none" /><polyline points="190.0,18.5 191.0,18.37758256189037 192.0,18.04030230586814 193.0,17.570737201667704 194.0,17.083853163452858 195.0,16.698856384453066 196.0,16.510007503399553 197.0,16.563543312709204 198.0,16.846356379136388 199.0,17.28920420056922 200.0,17.783662185463225 201.0,18.20866977429126 202.0,18.460170286650367 203.0,18.476587625728023 204.0,18.253902254343306 205.0,17.846635317835027 206.0,17.354499966191387 207.0,16.897988097315178 208.0,16.588869738115324 209.0,16.502827843803622" stroke="#c8cdd4" stroke-width="1" fill="none" /></g><text x="100.0" y="12.5" stroke="none" fill="#9aacb8" stroke-width="0" font-size="12" font-weight="normal" font-family="Helvetica" text-anchor="middle" alignment-baseline="middle">···</text></g><g transform="translate(60,558.846153846154)"><rect x="0" y="0" width="200" height="128.84615384615384" fill="#ffffff" stroke="#8a9ab0" stroke-width="1" /><rect x="0" y="0.0" width="200" height="128.84615384615384" fill="#a8c8b8" stroke="#8a9ab0" stroke-width="1" /><text x="100.0" y="64.42307692307692" stroke="none" fill="#1a2c3d" stroke-width="0" font-size="12" font-weight="normal" font-family="Helvetica" text-anchor="middle" alignment-baseline="middle">ICCM</text><text x="210" y="128.84615384615384" stroke="none" fill="#1a2c3d" stroke-width="0" font-size="12" font-weight="normal" font-family="Helvetica" text-anchor="start" alignment-baseline="middle">0x40000000</text><text x="210" y="0.0" stroke="none" fill="#1a2c3d" stroke-width="0" font-size="12" font-weight="normal" font-family="Helvetica" text-anchor="start" alignment-baseline="middle">0x40040000</text><text x="2" y="2.0" stroke="none" fill="#1a2c3d" stroke-width="0" font-size="12px" font-weight="normal" font-family="Helvetica" text-anchor="start" alignment-baseline="hanging">256 KiB</text></g><g transform="translate(60,533.846153846154)"><rect x="0" y="0" width="200" height="25" fill="#ffffff" stroke="#8a9ab0" stroke-width="1" /><g><rect x="0" y="0.0" width="200" height="25.0" fill="#eaecee" /><polyline points="0,10.0 0,0.0 200,0.0 200,10.0" stroke="#c8cdd4" stroke-width="1" fill="none" /><polyline points="0,15.0 0,25.0 200,25.0 200,15.0" stroke="#c8cdd4" stroke-width="1" fill="none" /><polyline points="-10.0,8.5 -9.0,8.377582561890373 -8.0,8.04030230586814 -7.0,7.570737201667703 -6.0,7.083853163452858 -5.0,6.698856384453066 -4.0,6.510007503399555 -3.0,6.5635433127092035 -2.0,6.846356379136388 -1.0,7.289204200569221 0.0,7.783662185463227 1.0,8.208669774291259 2.0,8.460170286650365 3.0,8.476587625728023 4.0,8.253902254343304 5.0,7.846635317835026 6.0,7.354499966191386 7.0,6.897988097315176 8.0,6.588869738115323 9.0,6.5028278438036216" stroke="#c8cdd4" stroke-width="1" fill="none" /><polyline points="-10.0,18.5 -9.0,18.37758256189037 -8.0,18.04030230586814 -7.0,17.570737201667704 -6.0,17.083853163452858 -5.0,16.698856384453066 -4.0,16.510007503399553 -3.0,16.563543312709204 -2.0,16.846356379136388 -1.0,17.28920420056922 0.0,17.783662185463225 1.0,18.20866977429126 2.0,18.460170286650367 3.0,18.476587625728023 4.0,18.253902254343306 5.0,17.846635317835027 6.0,17.354499966191387 7.0,16.897988097315178 8.0,16.588869738115324 9.0,16.502827843803622" stroke="#c8cdd4" stroke-width="1" fill="none" /><polyline points="190.0,8.5 191.0,8.377582561890373 192.0,8.04030230586814 193.0,7.570737201667703 194.0,7.083853163452858 195.0,6.698856384453066 196.0,6.510007503399555 197.0,6.5635433127092035 198.0,6.846356379136388 199.0,7.289204200569221 200.0,7.783662185463227 201.0,8.208669774291259 202.0,8.460170286650365 203.0,8.476587625728023 204.0,8.253902254343304 205.0,7.846635317835026 206.0,7.354499966191386 207.0,6.897988097315176 208.0,6.588869738115323 209.0,6.5028278438036216" stroke="#c8cdd4" stroke-width="1" fill="none" /><polyline points="190.0,18.5 191.0,18.37758256189037 192.0,18.04030230586814 193.0,17.570737201667704 194.0,17.083853163452858 195.0,16.698856384453066 196.0,16.510007503399553 197.0,16.563543312709204 198.0,16.846356379136388 199.0,17.28920420056922 200.0,17.783662185463225 201.0,18.20866977429126 202.0,18.460170286650367 203.0,18.476587625728023 204.0,18.253902254343306 205.0,17.846635317835027 206.0,17.354499966191387 207.0,16.897988097315178 208.0,16.588869738115324 209.0,16.502827843803622" stroke="#c8cdd4" stroke-width="1" fill="none" /></g><text x="100.0" y="12.5" stroke="none" fill="#9aacb8" stroke-width="0" font-size="12" font-weight="normal" font-family="Helvetica" text-anchor="middle" alignment-baseline="middle">···</text></g><g transform="translate(60,405.0000000000002)"><rect x="0" y="0" width="200" height="128.84615384615384" fill="#ffffff" stroke="#8a9ab0" stroke-width="1" /><rect x="0" y="0.0" width="200" height="128.84615384615384" fill="#a8c8b8" stroke="#8a9ab0" stroke-width="1" /><text x="100.0" y="64.42307692307692" stroke="none" fill="#1a2c3d" stroke-width="0" font-size="12" font-weight="normal" font-family="Helvetica" text-anchor="middle" alignment-baseline="middle">DCCM</text><text x="210" y="128.84615384615384" stroke="none" fill="#1a2c3d" stroke-width="0" font-size="12" font-weight="normal" font-family="Helvetica" text-anchor="start" alignment-baseline="middle">0x50000000</text><text x="210" y="0.0" stroke="none" fill="#1a2c3d" stroke-width="0" font-size="12" font-weight="normal" font-family="Helvetica" text-anchor="start" alignment-baseline="middle">0x50040000</text><text x="2" y="2.0" stroke="none" fill="#1a2c3d" stroke-width="0" font-size="12px" font-weight="normal" font-family="Helvetica" text-anchor="start" alignment-baseline="hanging">256 KiB</text></g><g transform="translate(60,380.0000000000002)"><rect x="0" y="0" width="200" height="25" fill="#ffffff" stroke="#8a9ab0" stroke-width="1" /><g><rect x="0" y="0.0" width="200" height="25.0" fill="#eaecee" /><polyline points="0,10.0 0,0.0 200,0.0 200,10.0" stroke="#c8cdd4" stroke-width="1" fill="none" /><polyline points="0,15.0 0,25.0 200,25.0 200,15.0" stroke="#c8cdd4" stroke-width="1" fill="none" /><polyline points="-10.0,8.5 -9.0,8.377582561890373 -8.0,8.04030230586814 -7.0,7.570737201667703 -6.0,7.083853163452858 -5.0,6.698856384453066 -4.0,6.510007503399555 -3.0,6.5635433127092035 -2.0,6.846356379136388 -1.0,7.289204200569221 0.0,7.783662185463227 1.0,8.208669774291259 2.0,8.460170286650365 3.0,8.476587625728023 4.0,8.253902254343304 5.0,7.846635317835026 6.0,7.354499966191386 7.0,6.897988097315176 8.0,6.588869738115323 9.0,6.5028278438036216" stroke="#c8cdd4" stroke-width="1" fill="none" /><polyline points="-10.0,18.5 -9.0,18.37758256189037 -8.0,18.04030230586814 -7.0,17.570737201667704 -6.0,17.083853163452858 -5.0,16.698856384453066 -4.0,16.510007503399553 -3.0,16.563543312709204 -2.0,16.846356379136388 -1.0,17.28920420056922 0.0,17.783662185463225 1.0,18.20866977429126 2.0,18.460170286650367 3.0,18.476587625728023 4.0,18.253902254343306 5.0,17.846635317835027 6.0,17.354499966191387 7.0,16.897988097315178 8.0,16.588869738115324 9.0,16.502827843803622" stroke="#c8cdd4" stroke-width="1" fill="none" /><polyline points="190.0,8.5 191.0,8.377582561890373 192.0,8.04030230586814 193.0,7.570737201667703 194.0,7.083853163452858 195.0,6.698856384453066 196.0,6.510007503399555 197.0,6.5635433127092035 198.0,6.846356379136388 199.0,7.289204200569221 200.0,7.783662185463227 201.0,8.208669774291259 202.0,8.460170286650365 203.0,8.476587625728023 204.0,8.253902254343304 205.0,7.846635317835026 206.0,7.354499966191386 207.0,6.897988097315176 208.0,6.588869738115323 209.0,6.5028278438036216" stroke="#c8cdd4" stroke-width="1" fill="none" /><polyline points="190.0,18.5 191.0,18.37758256189037 192.0,18.04030230586814 193.0,17.570737201667704 194.0,17.083853163452858 195.0,16.698856384453066 196.0,16.510007503399553 197.0,16.563543312709204 198.0,16.846356379136388 199.0,17.28920420056922 200.0,17.783662185463225 201.0,18.20866977429126 202.0,18.460170286650367 203.0,18.476587625728023 204.0,18.253902254343306 205.0,17.846635317835027 206.0,17.354499966191387 207.0,16.897988097315178 208.0,16.588869738115324 209.0,16.502827843803622" stroke="#c8cdd4" stroke-width="1" fill="none" /></g><text x="100.0" y="12.5" stroke="none" fill="#9aacb8" stroke-width="0" font-size="12" font-weight="normal" font-family="Helvetica" text-anchor="middle" alignment-baseline="middle">···</text></g><g transform="translate(60,80.00000000000023)"><rect x="0" y="0" width="200" height="300" fill="#ffffff" stroke="#8a9ab0" stroke-width="1" /><rect x="0" y="0.0" width="200" height="300.0" fill="#d8dde4" stroke="#8a9ab0" stroke-width="1" /><text x="100.0" y="150.0" stroke="none" fill="#1a2c3d" stroke-width="0" font-size="12" font-weight="normal" font-family="Helvetica" text-anchor="middle" alignment-baseline="middle">PIC</text><text x="210" y="300.0" stroke="none" fill="#1a2c3d" stroke-width="0" font-size="12" font-weight="normal" font-family="Helvetica" text-anchor="start" alignment-baseline="middle">0x60000000</text><text x="210" y="0.0" stroke="none" fill="#1a2c3d" stroke-width="0" font-size="12" font-weight="normal" font-family="Helvetica" text-anchor="start" alignment-baseline="middle">0x70000000</text><text x="2" y="2.0" stroke="none" fill="#1a2c3d" stroke-width="0" font-size="12px" font-weight="normal" font-family="Helvetica" text-anchor="start" alignment-baseline="hanging">256 MiB</text></g></g><g><text x="130.0" y="-20" stroke="none" fill="#1a2c3d" stroke-width="0" font-size="24px" font-weight="normal" font-family="Helvetica" text-anchor="middle" alignment-baseline="middle" transform="translate(460,80)">SoC Interface</text><g transform="translate(460,605)"><rect x="0" y="0" width="200" height="25" fill="#ffffff" stroke="#8a9ab0" stroke-width="1" /><g><rect x="0" y="0.0" width="200" height="25.0" fill="#eaecee" /><polyline points="0,10.0 0,0.0 200,0.0 200,10.0" stroke="#c8cdd4" stroke-width="1" fill="none" /><polyline points="0,15.0 0,25.0 200,25.0 200,15.0" stroke="#c8cdd4" stroke-width="1" fill="none" /><polyline points="-10.0,8.5 -9.0,8.377582561890373 -8.0,8.04030230586814 -7.0,7.570737201667703 -6.0,7.083853163452858 -5.0,6.698856384453066 -4.0,6.510007503399555 -3.0,6.5635433127092035 -2.0,6.846356379136388 -1.0,7.289204200569221 0.0,7.783662185463227 1.0,8.208669774291259 2.0,8.460170286650365 3.0,8.476587625728023 4.0,8.253902254343304 5.0,7.846635317835026 6.0,7.354499966191386 7.0,6.897988097315176 8.0,6.588869738115323 9.0,6.5028278438036216" stroke="#c8cdd4" stroke-width="1" fill="none" /><polyline points="-10.0,18.5 -9.0,18.37758256189037 -8.0,18.04030230586814 -7.0,17.570737201667704 -6.0,17.083853163452858 -5.0,16.698856384453066 -4.0,16.510007503399553 -3.0,16.563543312709204 -2.0,16.846356379136388 -1.0,17.28920420056922 0.0,17.783662185463225 1.0,18.20866977429126 2.0,18.460170286650367 3.0,18.476587625728023 4.0,18.253902254343306 5.0,17.846635317835027 6.0,17.354499966191387 7.0,16.897988097315178 8.0,16.588869738115324 9.0,16.502827843803622" stroke="#c8cdd4" stroke-width="1" fill="none" /><polyline points="190.0,8.5 191.0,8.377582561890373 192.0,8.04030230586814 193.0,7.570737201667703 194.0,7.083853163452858 195.0,6.698856384453066 196.0,6.510007503399555 197.0,6.5635433127092035 198.0,6.846356379136388 199.0,7.289204200569221 200.0,7.783662185463227 201.0,8.208669774291259 202.0,8.460170286650365 203.0,8.476587625728023 204.0,8.253902254343304 205.0,7.846635317835026 206.0,7.354499966191386 207.0,6.897988097315176 208.0,6.588869738115323 209.0,6.5028278438036216" stroke="#c8cdd4" stroke-width="1" fill="none" /><polyline points="190.0,18.5 191.0,18.37758256189037 192.0,18.04030230586814 193.0,17.570737201667704 194.0,17.083853163452858 195.0,16.698856384453066 196.0,16.510007503399553 197.0,16.563543312709204 198.0,16.846356379136388 199.0,17.28920420056922 200.0,17.783662185463225 201.0,18.20866977429126 202.0,18.460170286650367 203.0,18.476587625728023 204.0,18.253902254343306 205.0,17.846635317835027 206.0,17.354499966191387 207.0,16.897988097315178 208.0,16.588869738115324 209.0,16.502827843803622" stroke="#c8cdd4" stroke-width="1" fill="none" /></g><text x="100.0" y="12.5" stroke="none" fill="#9aacb8" stroke-width="0" font-size="12" font-weight="normal" font-family="Helvetica" text-anchor="middle" alignment-baseline="middle">···</text></g><g transform="translate(460,405.0)"><rect x="0" y="0" width="200" height="200.0" fill="#ffffff" stroke="#8a9ab0" stroke-width="1" /><rect x="0" y="133.33333333333334" width="200" height="66.66666666666667" fill="#a8bcd4" stroke="#8a9ab0" stroke-width="1" /><text x="100.0" y="166.66666666666669" stroke="none" fill="#1a2c3d" stroke-width="0" font-size="12" font-weight="normal" font-family="Helvetica" text-anchor="middle" alignment-baseline="middle">Mailbox CSR</text><text x="210" y="200.0" stroke="none" fill="#1a2c3d" stroke-width="0" font-size="12" font-weight="normal" font-family="Helvetica" text-anchor="start" alignment-baseline="middle">0x30020000</text><text x="210" y="133.33333333333334" stroke="none" fill="#1a2c3d" stroke-width="0" font-size="12" font-weight="normal" font-family="Helvetica" text-anchor="start" alignment-baseline="middle">0x30021000</text><text x="2" y="135.33333333333334" stroke="none" fill="#1a2c3d" stroke-width="0" font-size="12px" font-weight="normal" font-family="Helvetica" text-anchor="start" alignment-baseline="hanging">4 KiB</text><rect x="0" y="66.66666666666667" width="200" height="66.66666666666667" fill="#a8bcd4" stroke="#8a9ab0" stroke-width="1" /><text x="100.0" y="100.0" stroke="none" fill="#1a2c3d" stroke-width="0" font-size="12" font-weight="normal" font-family="Helvetica" text-anchor="middle" alignment-baseline="middle">SHA512 Accel</text><text x="210" y="133.33333333333334" stroke="none" fill="#1a2c3d" stroke-width="0" font-size="12" font-weight="normal" font-family="Helvetica" text-anchor="start" alignment-baseline="middle">0x30021000</text><text x="210" y="66.66666666666667" stroke="none" fill="#1a2c3d" stroke-width="0" font-size="12" font-weight="normal" font-family="Helvetica" text-anchor="start" alignment-baseline="middle">0x30022000</text><text x="2" y="68.66666666666667" stroke="none" fill="#1a2c3d" stroke-width="0" font-size="12px" font-weight="normal" font-family="Helvetica" text-anchor="start" alignment-baseline="hanging">4 KiB</text><rect x="0" y="0.0" width="200" height="66.66666666666667" fill="#a8bcd4" stroke="#8a9ab0" stroke-width="1" /><text x="100.0" y="33.333333333333336" stroke="none" fill="#1a2c3d" stroke-width="0" font-size="12" font-weight="normal" font-family="Helvetica" text-anchor="middle" alignment-baseline="middle">AXI DMA</text><text x="210" y="66.66666666666667" stroke="none" fill="#1a2c3d" stroke-width="0" font-size="12" font-weight="normal" font-family="Helvetica" text-anchor="start" alignment-baseline="middle">0x30022000</text><text x="210" y="0.0" stroke="none" fill="#1a2c3d" stroke-width="0" font-size="12" font-weight="normal" font-family="Helvetica" text-anchor="start" alignment-baseline="middle">0x30023000</text><text x="2" y="2.0" stroke="none" fill="#1a2c3d" stroke-width="0" font-size="12px" font-weight="normal" font-family="Helvetica" text-anchor="start" alignment-baseline="hanging">4 KiB</text></g><g transform="translate(460,380.0)"><rect x="0" y="0" width="200" height="25" fill="#ffffff" stroke="#8a9ab0" stroke-width="1" /><g><rect x="0" y="0.0" width="200" height="25.0" fill="#eaecee" /><polyline points="0,10.0 0,0.0 200,0.0 200,10.0" stroke="#c8cdd4" stroke-width="1" fill="none" /><polyline points="0,15.0 0,25.0 200,25.0 200,15.0" stroke="#c8cdd4" stroke-width="1" fill="none" /><polyline points="-10.0,8.5 -9.0,8.377582561890373 -8.0,8.04030230586814 -7.0,7.570737201667703 -6.0,7.083853163452858 -5.0,6.698856384453066 -4.0,6.510007503399555 -3.0,6.5635433127092035 -2.0,6.846356379136388 -1.0,7.289204200569221 0.0,7.783662185463227 1.0,8.208669774291259 2.0,8.460170286650365 3.0,8.476587625728023 4.0,8.253902254343304 5.0,7.846635317835026 6.0,7.354499966191386 7.0,6.897988097315176 8.0,6.588869738115323 9.0,6.5028278438036216" stroke="#c8cdd4" stroke-width="1" fill="none" /><polyline points="-10.0,18.5 -9.0,18.37758256189037 -8.0,18.04030230586814 -7.0,17.570737201667704 -6.0,17.083853163452858 -5.0,16.698856384453066 -4.0,16.510007503399553 -3.0,16.563543312709204 -2.0,16.846356379136388 -1.0,17.28920420056922 0.0,17.783662185463225 1.0,18.20866977429126 2.0,18.460170286650367 3.0,18.476587625728023 4.0,18.253902254343306 5.0,17.846635317835027 6.0,17.354499966191387 7.0,16.897988097315178 8.0,16.588869738115324 9.0,16.502827843803622" stroke="#c8cdd4" stroke-width="1" fill="none" /><polyline points="190.0,8.5 191.0,8.377582561890373 192.0,8.04030230586814 193.0,7.570737201667703 194.0,7.083853163452858 195.0,6.698856384453066 196.0,6.510007503399555 197.0,6.5635433127092035 198.0,6.846356379136388 199.0,7.289204200569221 200.0,7.783662185463227 201.0,8.208669774291259 202.0,8.460170286650365 203.0,8.476587625728023 204.0,8.253902254343304 205.0,7.846635317835026 206.0,7.354499966191386 207.0,6.897988097315176 208.0,6.588869738115323 209.0,6.5028278438036216" stroke="#c8cdd4" stroke-width="1" fill="none" /><polyline points="190.0,18.5 191.0,18.37758256189037 192.0,18.04030230586814 193.0,17.570737201667704 194.0,17.083853163452858 195.0,16.698856384453066 196.0,16.510007503399553 197.0,16.563543312709204 198.0,16.846356379136388 199.0,17.28920420056922 200.0,17.783662185463225 201.0,18.20866977429126 202.0,18.460170286650367 203.0,18.476587625728023 204.0,18.253902254343306 205.0,17.846635317835027 206.0,17.354499966191387 207.0,16.897988097315178 208.0,16.588869738115324 209.0,16.502827843803622" stroke="#c8cdd4" stroke-width="1" fill="none" /></g><text x="100.0" y="12.5" stroke="none" fill="#9aacb8" stroke-width="0" font-size="12" font-weight="normal" font-family="Helvetica" text-anchor="middle" alignment-baseline="middle">···</text></g><g transform="translate(460,80.0)"><rect x="0" y="0" width="200" height="300" fill="#ffffff" stroke="#8a9ab0" stroke-width="1" /><rect x="0" y="240.0" width="200" height="60.0" fill="#a8d5ba" stroke="#8a9ab0" stroke-width="1" /><text x="100.0" y="270.0" stroke="none" fill="#1a2c3d" stroke-width="0" font-size="12" font-weight="normal" font-family="Helvetica" text-anchor="middle" alignment-baseline="middle">SoC IFC CSR</text><text x="210" y="300.0" stroke="none" fill="#1a2c3d" stroke-width="0" font-size="12" font-weight="normal" font-family="Helvetica" text-anchor="start" alignment-baseline="middle">0x30030000</text><text x="210" y="240.0" stroke="none" fill="#1a2c3d" stroke-width="0" font-size="12" font-weight="normal" font-family="Helvetica" text-anchor="start" alignment-baseline="middle">0x30040000</text><text x="2" y="242.0" stroke="none" fill="#1a2c3d" stroke-width="0" font-size="12px" font-weight="normal" font-family="Helvetica" text-anchor="start" alignment-baseline="hanging">64 KiB</text><rect x="0" y="0.0" width="200" height="240.0" fill="#a8c8b8" stroke="#8a9ab0" stroke-width="1" /><text x="100.0" y="120.0" stroke="none" fill="#1a2c3d" stroke-width="0" font-size="12" font-weight="normal" font-family="Helvetica" text-anchor="middle" alignment-baseline="middle">Mailbox SRAM</text><text x="210" y="240.0" stroke="none" fill="#1a2c3d" stroke-width="0" font-size="12" font-weight="normal" font-family="Helvetica" text-anchor="start" alignment-baseline="middle">0x30040000</text><text x="210" y="0.0" stroke="none" fill="#1a2c3d" stroke-width="0" font-size="12" font-weight="normal" font-family="Helvetica" text-anchor="start" alignment-baseline="middle">0x30080000</text><text x="2" y="2.0" stroke="none" fill="#1a2c3d" stroke-width="0" font-size="12px" font-weight="normal" font-family="Helvetica" text-anchor="start" alignment-baseline="hanging">256 KiB</text></g></g><g><text x="110.0" y="-20" stroke="none" fill="#1a2c3d" stroke-width="0" font-size="24px" font-weight="normal" font-family="Helvetica" text-anchor="middle" alignment-baseline="middle" transform="translate(920,80)">Peripherals</text><g transform="translate(920,245)"><rect x="0" y="0" width="200" height="25" fill="#ffffff" stroke="#8a9ab0" stroke-width="1" /><g><rect x="0" y="0.0" width="200" height="25.0" fill="#eaecee" /><polyline points="0,10.0 0,0.0 200,0.0 200,10.0" stroke="#c8cdd4" stroke-width="1" fill="none" /><polyline points="0,15.0 0,25.0 200,25.0 200,15.0" stroke="#c8cdd4" stroke-width="1" fill="none" /><polyline points="-10.0,8.5 -9.0,8.377582561890373 -8.0,8.04030230586814 -7.0,7.570737201667703 -6.0,7.083853163452858 -5.0,6.698856384453066 -4.0,6.510007503399555 -3.0,6.5635433127092035 -2.0,6.846356379136388 -1.0,7.289204200569221 0.0,7.783662185463227 1.0,8.208669774291259 2.0,8.460170286650365 3.0,8.476587625728023 4.0,8.253902254343304 5.0,7.846635317835026 6.0,7.354499966191386 7.0,6.897988097315176 8.0,6.588869738115323 9.0,6.5028278438036216" stroke="#c8cdd4" stroke-width="1" fill="none" /><polyline points="-10.0,18.5 -9.0,18.37758256189037 -8.0,18.04030230586814 -7.0,17.570737201667704 -6.0,17.083853163452858 -5.0,16.698856384453066 -4.0,16.510007503399553 -3.0,16.563543312709204 -2.0,16.846356379136388 -1.0,17.28920420056922 0.0,17.783662185463225 1.0,18.20866977429126 2.0,18.460170286650367 3.0,18.476587625728023 4.0,18.253902254343306 5.0,17.846635317835027 6.0,17.354499966191387 7.0,16.897988097315178 8.0,16.588869738115324 9.0,16.502827843803622" stroke="#c8cdd4" stroke-width="1" fill="none" /><polyline points="190.0,8.5 191.0,8.377582561890373 192.0,8.04030230586814 193.0,7.570737201667703 194.0,7.083853163452858 195.0,6.698856384453066 196.0,6.510007503399555 197.0,6.5635433127092035 198.0,6.846356379136388 199.0,7.289204200569221 200.0,7.783662185463227 201.0,8.208669774291259 202.0,8.460170286650365 203.0,8.476587625728023 204.0,8.253902254343304 205.0,7.846635317835026 206.0,7.354499966191386 207.0,6.897988097315176 208.0,6.588869738115323 209.0,6.5028278438036216" stroke="#c8cdd4" stroke-width="1" fill="none" /><polyline points="190.0,18.5 191.0,18.37758256189037 192.0,18.04030230586814 193.0,17.570737201667704 194.0,17.083853163452858 195.0,16.698856384453066 196.0,16.510007503399553 197.0,16.563543312709204 198.0,16.846356379136388 199.0,17.28920420056922 200.0,17.783662185463225 201.0,18.20866977429126 202.0,18.460170286650367 203.0,18.476587625728023 204.0,18.253902254343306 205.0,17.846635317835027 206.0,17.354499966191387 207.0,16.897988097315178 208.0,16.588869738115324 209.0,16.502827843803622" stroke="#c8cdd4" stroke-width="1" fill="none" /></g><text x="100.0" y="12.5" stroke="none" fill="#9aacb8" stroke-width="0" font-size="12" font-weight="normal" font-family="Helvetica" text-anchor="middle" alignment-baseline="middle">···</text></g><g transform="translate(920,105.0)"><rect x="0" y="0" width="200" height="140.0" fill="#ffffff" stroke="#8a9ab0" stroke-width="1" /><rect x="0" y="70.0" width="200" height="70.0" fill="#a8d5ba" stroke="#8a9ab0" stroke-width="1" /><text x="100.0" y="105.0" stroke="none" fill="#1a2c3d" stroke-width="0" font-size="12" font-weight="normal" font-family="Helvetica" text-anchor="middle" alignment-baseline="middle">CSRNG</text><text x="210" y="140.0" stroke="none" fill="#1a2c3d" stroke-width="0" font-size="12" font-weight="normal" font-family="Helvetica" text-anchor="start" alignment-baseline="middle">0x20002000</text><text x="210" y="70.0" stroke="none" fill="#1a2c3d" stroke-width="0" font-size="12" font-weight="normal" font-family="Helvetica" text-anchor="start" alignment-baseline="middle">0x20003000</text><text x="2" y="72.0" stroke="none" fill="#1a2c3d" stroke-width="0" font-size="12px" font-weight="normal" font-family="Helvetica" text-anchor="start" alignment-baseline="hanging">4 KiB</text><rect x="0" y="0.0" width="200" height="70.0" fill="#a8d5ba" stroke="#8a9ab0" stroke-width="1" /><text x="100.0" y="35.0" stroke="none" fill="#1a2c3d" stroke-width="0" font-size="12" font-weight="normal" font-family="Helvetica" text-anchor="middle" alignment-baseline="middle">Entropy Source</text><text x="210" y="70.0" stroke="none" fill="#1a2c3d" stroke-width="0" font-size="12" font-weight="normal" font-family="Helvetica" text-anchor="start" alignment-baseline="middle">0x20003000</text><text x="210" y="0.0" stroke="none" fill="#1a2c3d" stroke-width="0" font-size="12" font-weight="normal" font-family="Helvetica" text-anchor="start" alignment-baseline="middle">0x20004000</text><text x="2" y="2.0" stroke="none" fill="#1a2c3d" stroke-width="0" font-size="12px" font-weight="normal" font-family="Helvetica" text-anchor="start" alignment-baseline="hanging">4 KiB</text></g><g transform="translate(920,80.0)"><rect x="0" y="0" width="200" height="25" fill="#ffffff" stroke="#8a9ab0" stroke-width="1" /><g><rect x="0" y="0.0" width="200" height="25.0" fill="#eaecee" /><polyline points="0,10.0 0,0.0 200,0.0 200,10.0" stroke="#c8cdd4" stroke-width="1" fill="none" /><polyline points="0,15.0 0,25.0 200,25.0 200,15.0" stroke="#c8cdd4" stroke-width="1" fill="none" /><polyline points="-10.0,8.5 -9.0,8.377582561890373 -8.0,8.04030230586814 -7.0,7.570737201667703 -6.0,7.083853163452858 -5.0,6.698856384453066 -4.0,6.510007503399555 -3.0,6.5635433127092035 -2.0,6.846356379136388 -1.0,7.289204200569221 0.0,7.783662185463227 1.0,8.208669774291259 2.0,8.460170286650365 3.0,8.476587625728023 4.0,8.253902254343304 5.0,7.846635317835026 6.0,7.354499966191386 7.0,6.897988097315176 8.0,6.588869738115323 9.0,6.5028278438036216" stroke="#c8cdd4" stroke-width="1" fill="none" /><polyline points="-10.0,18.5 -9.0,18.37758256189037 -8.0,18.04030230586814 -7.0,17.570737201667704 -6.0,17.083853163452858 -5.0,16.698856384453066 -4.0,16.510007503399553 -3.0,16.563543312709204 -2.0,16.846356379136388 -1.0,17.28920420056922 0.0,17.783662185463225 1.0,18.20866977429126 2.0,18.460170286650367 3.0,18.476587625728023 4.0,18.253902254343306 5.0,17.846635317835027 6.0,17.354499966191387 7.0,16.897988097315178 8.0,16.588869738115324 9.0,16.502827843803622" stroke="#c8cdd4" stroke-width="1" fill="none" /><polyline points="190.0,8.5 191.0,8.377582561890373 192.0,8.04030230586814 193.0,7.570737201667703 194.0,7.083853163452858 195.0,6.698856384453066 196.0,6.510007503399555 197.0,6.5635433127092035 198.0,6.846356379136388 199.0,7.289204200569221 200.0,7.783662185463227 201.0,8.208669774291259 202.0,8.460170286650365 203.0,8.476587625728023 204.0,8.253902254343304 205.0,7.846635317835026 206.0,7.354499966191386 207.0,6.897988097315176 208.0,6.588869738115323 209.0,6.5028278438036216" stroke="#c8cdd4" stroke-width="1" fill="none" /><polyline points="190.0,18.5 191.0,18.37758256189037 192.0,18.04030230586814 193.0,17.570737201667704 194.0,17.083853163452858 195.0,16.698856384453066 196.0,16.510007503399553 197.0,16.563543312709204 198.0,16.846356379136388 199.0,17.28920420056922 200.0,17.783662185463225 201.0,18.20866977429126 202.0,18.460170286650367 203.0,18.476587625728023 204.0,18.253902254343306 205.0,17.846635317835027 206.0,17.354499966191387 207.0,16.897988097315178 208.0,16.588869738115324 209.0,16.502827843803622" stroke="#c8cdd4" stroke-width="1" fill="none" /></g><text x="100.0" y="12.5" stroke="none" fill="#9aacb8" stroke-width="0" font-size="12" font-weight="normal" font-family="Helvetica" text-anchor="middle" alignment-baseline="middle">···</text></g></g><g><text x="110.0" y="-20" stroke="none" fill="#1a2c3d" stroke-width="0" font-size="24px" font-weight="normal" font-family="Helvetica" text-anchor="middle" alignment-baseline="middle" transform="translate(920,320)">Crypto Subsystem</text><g transform="translate(920,1027.8947368421052)"><rect x="0" y="0" width="200" height="292.10526315789474" fill="#ffffff" stroke="#8a9ab0" stroke-width="1" /><rect x="0" y="162.28070175438597" width="200" height="129.82456140350877" fill="#c4b8d8" stroke="#8a9ab0" stroke-width="1" /><text x="100.0" y="227.19298245614036" stroke="none" fill="#1a2c3d" stroke-width="0" font-size="12" font-weight="normal" font-family="Helvetica" text-anchor="middle" alignment-baseline="middle">DOE</text><text x="210" y="292.10526315789474" stroke="none" fill="#1a2c3d" stroke-width="0" font-size="12" font-weight="normal" font-family="Helvetica" text-anchor="start" alignment-baseline="middle">0x10000000</text><text x="210" y="162.28070175438597" stroke="none" fill="#1a2c3d" stroke-width="0" font-size="12" font-weight="normal" font-family="Helvetica" text-anchor="start" alignment-baseline="middle">0x10008000</text><text x="2" y="164.28070175438597" stroke="none" fill="#1a2c3d" stroke-width="0" font-size="12px" font-weight="normal" font-family="Helvetica" text-anchor="start" alignment-baseline="hanging">32 KiB</text><rect x="0" y="32.45614035087719" width="200" height="129.82456140350877" fill="#c4b8d8" stroke="#8a9ab0" stroke-width="1" /><text x="100.0" y="97.36842105263158" stroke="none" fill="#1a2c3d" stroke-width="0" font-size="12" font-weight="normal" font-family="Helvetica" text-anchor="middle" alignment-baseline="middle">ECC (Secp384)</text><text x="210" y="162.28070175438597" stroke="none" fill="#1a2c3d" stroke-width="0" font-size="12" font-weight="normal" font-family="Helvetica" text-anchor="start" alignment-baseline="middle">0x10008000</text><text x="210" y="32.45614035087719" stroke="none" fill="#1a2c3d" stroke-width="0" font-size="12" font-weight="normal" font-family="Helvetica" text-anchor="start" alignment-baseline="middle">0x10010000</text><text x="2" y="34.45614035087719" stroke="none" fill="#1a2c3d" stroke-width="0" font-size="12px" font-weight="normal" font-family="Helvetica" text-anchor="start" alignment-baseline="hanging">32 KiB</text><rect x="0" y="16.228070175438596" width="200" height="16.228070175438596" fill="#b8aad4" stroke="#8a9ab0" stroke-width="1" /><text x="100.0" y="24.342105263157894" stroke="none" fill="#1a2c3d" stroke-width="0" font-size="12" font-weight="normal" font-family="Helvetica" text-anchor="middle" alignment-baseline="middle">HMAC512</text><text x="210" y="32.45614035087719" stroke="none" fill="#1a2c3d" stroke-width="0" font-size="12" font-weight="normal" font-family="Helvetica" text-anchor="start" alignment-baseline="middle">0x10010000</text><text x="210" y="16.228070175438596" stroke="none" fill="#1a2c3d" stroke-width="0" font-size="12" font-weight="normal" font-family="Helvetica" text-anchor="start" alignment-baseline="middle">0x10011000</text><rect x="0" y="0.0" width="200" height="16.228070175438596" fill="#b8aad4" stroke="#8a9ab0" stroke-width="1" /><text x="100.0" y="8.114035087719298" stroke="none" fill="#1a2c3d" stroke-width="0" font-size="12" font-weight="normal" font-family="Helvetica" text-anchor="middle" alignment-baseline="middle">AES</text><text x="210" y="16.228070175438596" stroke="none" fill="#1a2c3d" stroke-width="0" font-size="12" font-weight="normal" font-family="Helvetica" text-anchor="start" alignment-baseline="middle">0x10011000</text><text x="210" y="0.0" stroke="none" fill="#1a2c3d" stroke-width="0" font-size="12" font-weight="normal" font-family="Helvetica" text-anchor="start" alignment-baseline="middle">0x10012000</text></g><g transform="translate(920,1002.8947368421052)"><rect x="0" y="0" width="200" height="25" fill="#ffffff" stroke="#8a9ab0" stroke-width="1" /><g><rect x="0" y="0.0" width="200" height="25.0" fill="#eaecee" /><polyline points="0,10.0 0,0.0 200,0.0 200,10.0" stroke="#c8cdd4" stroke-width="1" fill="none" /><polyline points="0,15.0 0,25.0 200,25.0 200,15.0" stroke="#c8cdd4" stroke-width="1" fill="none" /><polyline points="-10.0,8.5 -9.0,8.377582561890373 -8.0,8.04030230586814 -7.0,7.570737201667703 -6.0,7.083853163452858 -5.0,6.698856384453066 -4.0,6.510007503399555 -3.0,6.5635433127092035 -2.0,6.846356379136388 -1.0,7.289204200569221 0.0,7.783662185463227 1.0,8.208669774291259 2.0,8.460170286650365 3.0,8.476587625728023 4.0,8.253902254343304 5.0,7.846635317835026 6.0,7.354499966191386 7.0,6.897988097315176 8.0,6.588869738115323 9.0,6.5028278438036216" stroke="#c8cdd4" stroke-width="1" fill="none" /><polyline points="-10.0,18.5 -9.0,18.37758256189037 -8.0,18.04030230586814 -7.0,17.570737201667704 -6.0,17.083853163452858 -5.0,16.698856384453066 -4.0,16.510007503399553 -3.0,16.563543312709204 -2.0,16.846356379136388 -1.0,17.28920420056922 0.0,17.783662185463225 1.0,18.20866977429126 2.0,18.460170286650367 3.0,18.476587625728023 4.0,18.253902254343306 5.0,17.846635317835027 6.0,17.354499966191387 7.0,16.897988097315178 8.0,16.588869738115324 9.0,16.502827843803622" stroke="#c8cdd4" stroke-width="1" fill="none" /><polyline points="190.0,8.5 191.0,8.377582561890373 192.0,8.04030230586814 193.0,7.570737201667703 194.0,7.083853163452858 195.0,6.698856384453066 196.0,6.510007503399555 197.0,6.5635433127092035 198.0,6.846356379136388 199.0,7.289204200569221 200.0,7.783662185463227 201.0,8.208669774291259 202.0,8.460170286650365 203.0,8.476587625728023 204.0,8.253902254343304 205.0,7.846635317835026 206.0,7.354499966191386 207.0,6.897988097315176 208.0,6.588869738115323 209.0,6.5028278438036216" stroke="#c8cdd4" stroke-width="1" fill="none" /><polyline points="190.0,18.5 191.0,18.37758256189037 192.0,18.04030230586814 193.0,17.570737201667704 194.0,17.083853163452858 195.0,16.698856384453066 196.0,16.510007503399553 197.0,16.563543312709204 198.0,16.846356379136388 199.0,17.28920420056922 200.0,17.783662185463225 201.0,18.20866977429126 202.0,18.460170286650367 203.0,18.476587625728023 204.0,18.253902254343306 205.0,17.846635317835027 206.0,17.354499966191387 207.0,16.897988097315178 208.0,16.588869738115324 209.0,16.502827843803622" stroke="#c8cdd4" stroke-width="1" fill="none" /></g><text x="100.0" y="12.5" stroke="none" fill="#9aacb8" stroke-width="0" font-size="12" font-weight="normal" font-family="Helvetica" text-anchor="middle" alignment-baseline="middle">···</text></g><g transform="translate(920,905.5263157894736)"><rect x="0" y="0" width="200" height="97.36842105263158" fill="#ffffff" stroke="#8a9ab0" stroke-width="1" /><rect x="0" y="64.91228070175438" width="200" height="32.45614035087719" fill="#d4a8b8" stroke="#8a9ab0" stroke-width="1" /><text x="100.0" y="81.14035087719299" stroke="none" fill="#1a2c3d" stroke-width="0" font-size="12" font-weight="normal" font-family="Helvetica" text-anchor="middle" alignment-baseline="middle">Key Vault</text><text x="210" y="97.36842105263158" stroke="none" fill="#1a2c3d" stroke-width="0" font-size="12" font-weight="normal" font-family="Helvetica" text-anchor="start" alignment-baseline="middle">0x10018000</text><text x="210" y="64.91228070175438" stroke="none" fill="#1a2c3d" stroke-width="0" font-size="12" font-weight="normal" font-family="Helvetica" text-anchor="start" alignment-baseline="middle">0x1001a000</text><text x="2" y="66.91228070175438" stroke="none" fill="#1a2c3d" stroke-width="0" font-size="12px" font-weight="normal" font-family="Helvetica" text-anchor="start" alignment-baseline="hanging">8 KiB</text><rect x="0" y="32.45614035087719" width="200" height="32.45614035087719" fill="#d4a8b8" stroke="#8a9ab0" stroke-width="1" /><text x="100.0" y="48.68421052631579" stroke="none" fill="#1a2c3d" stroke-width="0" font-size="12" font-weight="normal" font-family="Helvetica" text-anchor="middle" alignment-baseline="middle">PCR Vault</text><text x="210" y="64.91228070175438" stroke="none" fill="#1a2c3d" stroke-width="0" font-size="12" font-weight="normal" font-family="Helvetica" text-anchor="start" alignment-baseline="middle">0x1001a000</text><text x="210" y="32.45614035087719" stroke="none" fill="#1a2c3d" stroke-width="0" font-size="12" font-weight="normal" font-family="Helvetica" text-anchor="start" alignment-baseline="middle">0x1001c000</text><text x="2" y="34.45614035087719" stroke="none" fill="#1a2c3d" stroke-width="0" font-size="12px" font-weight="normal" font-family="Helvetica" text-anchor="start" alignment-baseline="hanging">8 KiB</text><rect x="0" y="0.0" width="200" height="32.45614035087719" fill="#d4a8b8" stroke="#8a9ab0" stroke-width="1" /><text x="100.0" y="16.228070175438596" stroke="none" fill="#1a2c3d" stroke-width="0" font-size="12" font-weight="normal" font-family="Helvetica" text-anchor="middle" alignment-baseline="middle">Data Vault</text><text x="210" y="32.45614035087719" stroke="none" fill="#1a2c3d" stroke-width="0" font-size="12" font-weight="normal" font-family="Helvetica" text-anchor="start" alignment-baseline="middle">0x1001c000</text><text x="210" y="0.0" stroke="none" fill="#1a2c3d" stroke-width="0" font-size="12" font-weight="normal" font-family="Helvetica" text-anchor="start" alignment-baseline="middle">0x1001e000</text><text x="2" y="2.0" stroke="none" fill="#1a2c3d" stroke-width="0" font-size="12px" font-weight="normal" font-family="Helvetica" text-anchor="start" alignment-baseline="hanging">8 KiB</text></g><g transform="translate(920,880.5263157894736)"><rect x="0" y="0" width="200" height="25" fill="#ffffff" stroke="#8a9ab0" stroke-width="1" /><g><rect x="0" y="0.0" width="200" height="25.0" fill="#eaecee" /><polyline points="0,10.0 0,0.0 200,0.0 200,10.0" stroke="#c8cdd4" stroke-width="1" fill="none" /><polyline points="0,15.0 0,25.0 200,25.0 200,15.0" stroke="#c8cdd4" stroke-width="1" fill="none" /><polyline points="-10.0,8.5 -9.0,8.377582561890373 -8.0,8.04030230586814 -7.0,7.570737201667703 -6.0,7.083853163452858 -5.0,6.698856384453066 -4.0,6.510007503399555 -3.0,6.5635433127092035 -2.0,6.846356379136388 -1.0,7.289204200569221 0.0,7.783662185463227 1.0,8.208669774291259 2.0,8.460170286650365 3.0,8.476587625728023 4.0,8.253902254343304 5.0,7.846635317835026 6.0,7.354499966191386 7.0,6.897988097315176 8.0,6.588869738115323 9.0,6.5028278438036216" stroke="#c8cdd4" stroke-width="1" fill="none" /><polyline points="-10.0,18.5 -9.0,18.37758256189037 -8.0,18.04030230586814 -7.0,17.570737201667704 -6.0,17.083853163452858 -5.0,16.698856384453066 -4.0,16.510007503399553 -3.0,16.563543312709204 -2.0,16.846356379136388 -1.0,17.28920420056922 0.0,17.783662185463225 1.0,18.20866977429126 2.0,18.460170286650367 3.0,18.476587625728023 4.0,18.253902254343306 5.0,17.846635317835027 6.0,17.354499966191387 7.0,16.897988097315178 8.0,16.588869738115324 9.0,16.502827843803622" stroke="#c8cdd4" stroke-width="1" fill="none" /><polyline points="190.0,8.5 191.0,8.377582561890373 192.0,8.04030230586814 193.0,7.570737201667703 194.0,7.083853163452858 195.0,6.698856384453066 196.0,6.510007503399555 197.0,6.5635433127092035 198.0,6.846356379136388 199.0,7.289204200569221 200.0,7.783662185463227 201.0,8.208669774291259 202.0,8.460170286650365 203.0,8.476587625728023 204.0,8.253902254343304 205.0,7.846635317835026 206.0,7.354499966191386 207.0,6.897988097315176 208.0,6.588869738115323 209.0,6.5028278438036216" stroke="#c8cdd4" stroke-width="1" fill="none" /><polyline points="190.0,18.5 191.0,18.37758256189037 192.0,18.04030230586814 193.0,17.570737201667704 194.0,17.083853163452858 195.0,16.698856384453066 196.0,16.510007503399553 197.0,16.563543312709204 198.0,16.846356379136388 199.0,17.28920420056922 200.0,17.783662185463225 201.0,18.20866977429126 202.0,18.460170286650367 203.0,18.476587625728023 204.0,18.253902254343306 205.0,17.846635317835027 206.0,17.354499966191387 207.0,16.897988097315178 208.0,16.588869738115324 209.0,16.502827843803622" stroke="#c8cdd4" stroke-width="1" fill="none" /></g><text x="100.0" y="12.5" stroke="none" fill="#9aacb8" stroke-width="0" font-size="12" font-weight="normal" font-family="Helvetica" text-anchor="middle" alignment-baseline="middle">···</text></g><g transform="translate(920,345.0)"><rect x="0" y="0" width="200" height="535.5263157894736" fill="#ffffff" stroke="#8a9ab0" stroke-width="1" /><rect x="0" y="405.7017543859649" width="200" height="129.82456140350877" fill="#b8aad4" stroke="#8a9ab0" stroke-width="1" /><text x="100.0" y="470.61403508771923" stroke="none" fill="#1a2c3d" stroke-width="0" font-size="12" font-weight="normal" font-family="Helvetica" text-anchor="middle" alignment-baseline="middle">SHA512</text><text x="210" y="535.5263157894736" stroke="none" fill="#1a2c3d" stroke-width="0" font-size="12" font-weight="normal" font-family="Helvetica" text-anchor="start" alignment-baseline="middle">0x10020000</text><text x="210" y="405.7017543859649" stroke="none" fill="#1a2c3d" stroke-width="0" font-size="12" font-weight="normal" font-family="Helvetica" text-anchor="start" alignment-baseline="middle">0x10028000</text><text x="2" y="407.7017543859649" stroke="none" fill="#1a2c3d" stroke-width="0" font-size="12px" font-weight="normal" font-family="Helvetica" text-anchor="start" alignment-baseline="hanging">32 KiB</text><rect x="0" y="275.8771929824561" width="200" height="129.82456140350877" fill="#b8aad4" stroke="#8a9ab0" stroke-width="1" /><text x="100.0" y="340.7894736842105" stroke="none" fill="#1a2c3d" stroke-width="0" font-size="12" font-weight="normal" font-family="Helvetica" text-anchor="middle" alignment-baseline="middle">SHA256</text><text x="210" y="405.7017543859649" stroke="none" fill="#1a2c3d" stroke-width="0" font-size="12" font-weight="normal" font-family="Helvetica" text-anchor="start" alignment-baseline="middle">0x10028000</text><text x="210" y="275.8771929824561" stroke="none" fill="#1a2c3d" stroke-width="0" font-size="12" font-weight="normal" font-family="Helvetica" text-anchor="start" alignment-baseline="middle">0x10030000</text><text x="2" y="277.8771929824561" stroke="none" fill="#1a2c3d" stroke-width="0" font-size="12px" font-weight="normal" font-family="Helvetica" text-anchor="start" alignment-baseline="hanging">32 KiB</text><rect x="0" y="16.228070175438596" width="200" height="259.64912280701753" fill="#c4b8d8" stroke="#8a9ab0" stroke-width="1" /><text x="100.0" y="146.05263157894737" stroke="none" fill="#1a2c3d" stroke-width="0" font-size="12" font-weight="normal" font-family="Helvetica" text-anchor="middle" alignment-baseline="middle">MLDSA/MLKEM</text><text x="210" y="275.8771929824561" stroke="none" fill="#1a2c3d" stroke-width="0" font-size="12" font-weight="normal" font-family="Helvetica" text-anchor="start" alignment-baseline="middle">0x10030000</text><text x="210" y="16.228070175438596" stroke="none" fill="#1a2c3d" stroke-width="0" font-size="12" font-weight="normal" font-family="Helvetica" text-anchor="start" alignment-baseline="middle">0x10040000</text><text x="2" y="18.228070175438596" stroke="none" fill="#1a2c3d" stroke-width="0" font-size="12px" font-weight="normal" font-family="Helvetica" text-anchor="start" alignment-baseline="hanging">64 KiB</text><rect x="0" y="0.0" width="200" height="16.228070175438596" fill="#b8aad4" stroke="#8a9ab0" stroke-width="1" /><text x="100.0" y="8.114035087719298" stroke="none" fill="#1a2c3d" stroke-width="0" font-size="12" font-weight="normal" font-family="Helvetica" text-anchor="middle" alignment-baseline="middle">SHA3</text><text x="210" y="16.228070175438596" stroke="none" fill="#1a2c3d" stroke-width="0" font-size="12" font-weight="normal" font-family="Helvetica" text-anchor="start" alignment-baseline="middle">0x10040000</text><text x="210" y="0.0" stroke="none" fill="#1a2c3d" stroke-width="0" font-size="12" font-weight="normal" font-family="Helvetica" text-anchor="start" alignment-baseline="middle">0x10041000</text></g><g transform="translate(920,320.0)"><rect x="0" y="0" width="200" height="25" fill="#ffffff" stroke="#8a9ab0" stroke-width="1" /><g><rect x="0" y="0.0" width="200" height="25.0" fill="#eaecee" /><polyline points="0,10.0 0,0.0 200,0.0 200,10.0" stroke="#c8cdd4" stroke-width="1" fill="none" /><polyline points="0,15.0 0,25.0 200,25.0 200,15.0" stroke="#c8cdd4" stroke-width="1" fill="none" /><polyline points="-10.0,8.5 -9.0,8.377582561890373 -8.0,8.04030230586814 -7.0,7.570737201667703 -6.0,7.083853163452858 -5.0,6.698856384453066 -4.0,6.510007503399555 -3.0,6.5635433127092035 -2.0,6.846356379136388 -1.0,7.289204200569221 0.0,7.783662185463227 1.0,8.208669774291259 2.0,8.460170286650365 3.0,8.476587625728023 4.0,8.253902254343304 5.0,7.846635317835026 6.0,7.354499966191386 7.0,6.897988097315176 8.0,6.588869738115323 9.0,6.5028278438036216" stroke="#c8cdd4" stroke-width="1" fill="none" /><polyline points="-10.0,18.5 -9.0,18.37758256189037 -8.0,18.04030230586814 -7.0,17.570737201667704 -6.0,17.083853163452858 -5.0,16.698856384453066 -4.0,16.510007503399553 -3.0,16.563543312709204 -2.0,16.846356379136388 -1.0,17.28920420056922 0.0,17.783662185463225 1.0,18.20866977429126 2.0,18.460170286650367 3.0,18.476587625728023 4.0,18.253902254343306 5.0,17.846635317835027 6.0,17.354499966191387 7.0,16.897988097315178 8.0,16.588869738115324 9.0,16.502827843803622" stroke="#c8cdd4" stroke-width="1" fill="none" /><polyline points="190.0,8.5 191.0,8.377582561890373 192.0,8.04030230586814 193.0,7.570737201667703 194.0,7.083853163452858 195.0,6.698856384453066 196.0,6.510007503399555 197.0,6.5635433127092035 198.0,6.846356379136388 199.0,7.289204200569221 200.0,7.783662185463227 201.0,8.208669774291259 202.0,8.460170286650365 203.0,8.476587625728023 204.0,8.253902254343304 205.0,7.846635317835026 206.0,7.354499966191386 207.0,6.897988097315176 208.0,6.588869738115323 209.0,6.5028278438036216" stroke="#c8cdd4" stroke-width="1" fill="none" /><polyline points="190.0,18.5 191.0,18.37758256189037 192.0,18.04030230586814 193.0,17.570737201667704 194.0,17.083853163452858 195.0,16.698856384453066 196.0,16.510007503399553 197.0,16.563543312709204 198.0,16.846356379136388 199.0,17.28920420056922 200.0,17.783662185463225 201.0,18.20866977429126 202.0,18.460170286650367 203.0,18.476587625728023 204.0,18.253902254343306 205.0,17.846635317835027 206.0,17.354499966191387 207.0,16.897988097315178 208.0,16.588869738115324 209.0,16.502827843803622" stroke="#c8cdd4" stroke-width="1" fill="none" /></g><text x="100.0" y="12.5" stroke="none" fill="#9aacb8" stroke-width="0" font-size="12" font-weight="normal" font-family="Helvetica" text-anchor="middle" alignment-baseline="middle">···</text></g></g><g><g transform="translate(60,1302.3076923076924)" /><g transform="translate(60,1277.3076923076924)" /><g transform="translate(60,1034.6153846153848)" /><g transform="translate(60,1009.6153846153848)" /><g transform="translate(60,980.3846153846155)" /><g transform="translate(60,955.3846153846155)" /><g transform="translate(60,712.6923076923078)" /><g transform="translate(60,687.6923076923078)" /><g transform="translate(60,558.846153846154)" /><g transform="translate(60,533.846153846154)" /><g transform="translate(60,405.0000000000002)" /><g transform="translate(60,380.0000000000002)" /><g transform="translate(60,80.00000000000023)" /><g transform="translate(460,605)" /><g transform="translate(460,405.0)" /><g transform="translate(460,380.0)" /><g transform="translate(460,80.0)" /><g transform="translate(920,245)" /><g transform="translate(920,105.0)" /><g transform="translate(920,80.0)" /><g transform="translate(920,1027.8947368421052)" /><g transform="translate(920,1002.8947368421052)" /><g transform="translate(920,905.5263157894736)" /><g transform="translate(920,880.5263157894736)" /><g transform="translate(920,345.0)" /><g transform="translate(920,320.0)" /></g><g><g transform="translate(60,1302.3076923076924)"><g /></g><g transform="translate(60,1277.3076923076924)"><g /></g><g transform="translate(60,1034.6153846153848)"><g /></g><g transform="translate(60,1009.6153846153848)"><g /></g><g transform="translate(60,980.3846153846155)"><g /></g><g transform="translate(60,955.3846153846155)"><g /></g><g transform="translate(60,712.6923076923078)"><g /></g><g transform="translate(60,687.6923076923078)"><g /></g><g transform="translate(60,558.846153846154)"><g /></g><g transform="translate(60,533.846153846154)"><g /></g><g transform="translate(60,405.0000000000002)"><g /></g><g transform="translate(60,380.0000000000002)"><g /></g><g transform="translate(60,80.00000000000023)"><g /></g><g transform="translate(460,605)"><g /></g><g transform="translate(460,405.0)"><g /><g /><g /></g><g transform="translate(460,380.0)"><g /></g><g transform="translate(460,80.0)"><g /><g /></g><g transform="translate(920,245)"><g /></g><g transform="translate(920,105.0)"><g /><g /></g><g transform="translate(920,80.0)"><g /></g><g transform="translate(920,1027.8947368421052)"><g /><g /><g /><g /></g><g transform="translate(920,1002.8947368421052)"><g /></g><g transform="translate(920,905.5263157894736)"><g /><g /><g /></g><g transform="translate(920,880.5263157894736)"><g /></g><g transform="translate(920,345.0)"><g /><g /><g /><g /></g><g transform="translate(920,320.0)"><g /></g></g></svg>