<?xml version="1.0" encoding="utf-8"?>
<svg xmlns="http://www.w3.org/2000/svg" width="1200" height="1400" viewBox="0 0 1200 1400"><rect x="0" y="0" width="1200" height="1400" fill="#ffffff" /><g><g><path d="M 280.0,319.0 L 310.0,319.0 L 400.0,832.0 L 400.0,560.0 L 310.0,304.0 L 280.0,304.0 Z" fill="#a8c4d4" stroke="none" opacity="0.35" /></g><g><path d="M 280.0,279.0 L 310.0,279.0 L 400.0,510.0 L 400.0,310.0 L 310.0,264.0 L 280.0,264.0 Z" fill="#a8c4d4" stroke="none" opacity="0.35" /></g><g><path d="M 280.0,239.0 L 310.0,239.0 L 400.0,260.0 L 400.0,60.0 L 310.0,224.0 L 280.0,224.0 Z" fill="#a8c4d4" stroke="none" opacity="0.35" /></g></g><g /><g><text x="115.0" y="-20" stroke="none" fill="#1a2c3d" stroke-width="0" font-size="24px" font-weight="normal" font-family="Helvetica" text-anchor="middle" alignment-baseline="middle" transform="translate(50.0,60.0)">Caliptra RoT</text><g transform="translate(50.0,344.0)"><rect x="0" y="0" width="230.0" height="15.0" fill="#ffffff" stroke="#8a9ab0" stroke-width="1" /><rect x="0" y="0.0" width="230.0" height="15.0" fill="#d4c4a8" stroke="#8a9ab0" stroke-width="1" /><text x="115.0" y="7.5" stroke="none" fill="#1a2c3d" stroke-width="0" font-size="12" font-weight="normal" font-family="Helvetica" text-anchor="middle" alignment-baseline="middle">ROM</text><text x="240.0" y="15.0" stroke="none" fill="#1a2c3d" stroke-width="0" font-size="12" font-weight="normal" font-family="Helvetica" text-anchor="start" alignment-baseline="middle">0x00000000</text><text x="240.0" y="0.0" stroke="none" fill="#1a2c3d" stroke-width="0" font-size="12" font-weight="normal" font-family="Helvetica" text-anchor="start" alignment-baseline="middle">0x00018000</text></g><g transform="translate(50.0,319.0)"><rect x="0" y="0" width="230.0" height="25" fill="#ffffff" stroke="#8a9ab0" stroke-width="1" /><g><rect x="0" y="0.0" width="230.0" height="25.0" fill="#eaecee" /><polyline points="0,10.0 0,0.0 230.0,0.0 230.0,10.0" stroke="#c8cdd4" stroke-width="1" fill="none" /><polyline points="0,15.0 0,25.0 230.0,25.0 230.0,15.0" stroke="#c8cdd4" stroke-width="1" fill="none" /><polyline points="-10.0,8.5 -9.0,8.377582561890373 -8.0,8.04030230586814 -7.0,7.570737201667703 -6.0,7.083853163452858 -5.0,6.698856384453066 -4.0,6.510007503399555 -3.0,6.5635433127092035 -2.0,6.846356379136388 -1.0,7.289204200569221 0.0,7.783662185463227 1.0,8.208669774291259 2.0,8.460170286650365 3.0,8.476587625728023 4.0,8.253902254343304 5.0,7.846635317835026 6.0,7.354499966191386 7.0,6.897988097315176 8.0,6.588869738115323 9.0,6.5028278438036216" stroke="#c8cdd4" stroke-width="1" fill="none" /><polyline points="-10.0,18.5 -9.0,18.37758256189037 -8.0,18.04030230586814 -7.0,17.570737201667704 -6.0,17.083853163452858 -5.0,16.698856384453066 -4.0,16.510007503399553 -3.0,16.563543312709204 -2.0,16.846356379136388 -1.0,17.28920420056922 0.0,17.783662185463225 1.0,18.20866977429126 2.0,18.460170286650367 3.0,18.476587625728023 4.0,18.253902254343306 5.0,17.846635317835027 6.0,17.354499966191387 7.0,16.897988097315178 8.0,16.588869738115324 9.0,16.502827843803622" stroke="#c8cdd4" stroke-width="1" fill="none" /><polyline points="220.0,8.5 221.0,8.377582561890373 222.0,8.04030230586814 223.0,7.570737201667703 224.0,7.083853163452858 225.0,6.698856384453066 226.0,6.510007503399555 227.0,6.5635433127092035 228.0,6.846356379136388 229.0,7.289204200569221 230.0,7.783662185463227 231.0,8.208669774291259 232.0,8.460170286650365 233.0,8.476587625728023 234.0,8.253902254343304 235.0,7.846635317835026 236.0,7.354499966191386 237.0,6.897988097315176 238.0,6.588869738115323 239.0,6.5028278438036216" stroke="#c8cdd4" stroke-width="1" fill="none" /><polyline points="220.0,18.5 221.0,18.37758256189037 222.0,18.04030230586814 223.0,17.570737201667704 224.0,17.083853163452858 225.0,16.698856384453066 226.0,16.510007503399553 227.0,16.563543312709204 228.0,16.846356379136388 229.0,17.28920420056922 230.0,17.783662185463225 231.0,18.20866977429126 232.0,18.460170286650367 233.0,18.476587625728023 234.0,18.253902254343306 235.0,17.846635317835027 236.0,17.354499966191387 237.0,16.897988097315178 238.0,16.588869738115324 239.0,16.502827843803622" stroke="#c8cdd4" stroke-width="1" fill="none" /></g><text x="115.0" y="12.5" stroke="none" fill="#9aacb8" stroke-width="0" font-size="12" font-weight="normal" font-family="Helvetica" text-anchor="middle" alignment-baseline="middle">···</text></g><g transform="translate(50.0,304.0)"><rect x="0" y="0" width="230.0" height="15.0" fill="#ffffff" stroke="#8a9ab0" stroke-width="1" /><rect x="0" y="0.0" width="230.0" height="15.0" fill="#c4b8d8" stroke="#8a9ab0" stroke-width="1" /><text x="115.0" y="7.5" stroke="none" fill="#1a2c3d" stroke-width="0" font-size="12" font-weight="normal" font-family="Helvetica" text-anchor="middle" alignment-baseline="middle">Crypto Subsystem</text><text x="240.0" y="15.0" stroke="none" fill="#1a2c3d" stroke-width="0" font-size="12" font-weight="normal" font-family="Helvetica" text-anchor="start" alignment-baseline="middle">0x10000000</text><text x="240.0" y="0.0" stroke="none" fill="#1a2c3d" stroke-width="0" font-size="12" font-weight="normal" font-family="Helvetica" text-anchor="start" alignment-baseline="middle">0x10080000</text></g><g transform="translate(50.0,279.0)"><rect x="0" y="0" width="230.0" height="25" fill="#ffffff" stroke="#8a9ab0" stroke-width="1" /><g><rect x="0" y="0.0" width="230.0" height="25.0" fill="#eaecee" /><polyline points="0,10.0 0,0.0 230.0,0.0 230.0,10.0" stroke="#c8cdd4" stroke-width="1" fill="none" /><polyline points="0,15.0 0,25.0 230.0,25.0 230.0,15.0" stroke="#c8cdd4" stroke-width="1" fill="none" /><polyline points="-10.0,8.5 -9.0,8.377582561890373 -8.0,8.04030230586814 -7.0,7.570737201667703 -6.0,7.083853163452858 -5.0,6.698856384453066 -4.0,6.510007503399555 -3.0,6.5635433127092035 -2.0,6.846356379136388 -1.0,7.289204200569221 0.0,7.783662185463227 1.0,8.208669774291259 2.0,8.460170286650365 3.0,8.476587625728023 4.0,8.253902254343304 5.0,7.846635317835026 6.0,7.354499966191386 7.0,6.897988097315176 8.0,6.588869738115323 9.0,6.5028278438036216" stroke="#c8cdd4" stroke-width="1" fill="none" /><polyline points="-10.0,18.5 -9.0,18.37758256189037 -8.0,18.04030230586814 -7.0,17.570737201667704 -6.0,17.083853163452858 -5.0,16.698856384453066 -4.0,16.510007503399553 -3.0,16.563543312709204 -2.0,16.846356379136388 -1.0,17.28920420056922 0.0,17.783662185463225 1.0,18.20866977429126 2.0,18.460170286650367 3.0,18.476587625728023 4.0,18.253902254343306 5.0,17.846635317835027 6.0,17.354499966191387 7.0,16.897988097315178 8.0,16.588869738115324 9.0,16.502827843803622" stroke="#c8cdd4" stroke-width="1" fill="none" /><polyline points="220.0,8.5 221.0,8.377582561890373 222.0,8.04030230586814 223.0,7.570737201667703 224.0,7.083853163452858 225.0,6.698856384453066 226.0,6.510007503399555 227.0,6.5635433127092035 228.0,6.846356379136388 229.0,7.289204200569221 230.0,7.783662185463227 231.0,8.208669774291259 232.0,8.460170286650365 233.0,8.476587625728023 234.0,8.253902254343304 235.0,7.846635317835026 236.0,7.354499966191386 237.0,6.897988097315176 238.0,6.588869738115323 239.0,6.5028278438036216" stroke="#c8cdd4" stroke-width="1" fill="none" /><polyline points="220.0,18.5 221.0,18.37758256189037 222.0,18.04030230586814 223.0,17.570737201667704 224.0,17.083853163452858 225.0,16.698856384453066 226.0,16.510007503399553 227.0,16.563543312709204 228.0,16.846356379136388 229.0,17.28920420056922 230.0,17.783662185463225 231.0,18.20866977429126 232.0,18.460170286650367 233.0,18.476587625728023 234.0,18.253902254343306 235.0,17.846635317835027 236.0,17.354499966191387 237.0,16.897988097315178 238.0,16.588869738115324 239.0,16.502827843803622" stroke="#c8cdd4" stroke-width="1" fill="none" /></g><text x="115.0" y="12.5" stroke="none" fill="#9aacb8" stroke-width="0" font-size="12" font-weight="normal" font-family="Helvetica" text-anchor="middle" alignment-baseline="middle">···</text></g><g transform="translate(50.0,264.0)"><rect x="0" y="0" width="230.0" height="15.0" fill="#ffffff" stroke="#8a9ab0" stroke-width="1" /><rect x="0" y="0.0" width="230.0" height="15.0" fill="#a8d5ba" stroke="#8a9ab0" stroke-width="1" /><text x="115.0" y="7.5" stroke="none" fill="#1a2c3d" stroke-width="0" font-size="12" font-weight="normal" font-family="Helvetica" text-anchor="middle" alignment-baseline="middle">Peripherals</text><text x="240.0" y="15.0" stroke="none" fill="#1a2c3d" stroke-width="0" font-size="12" font-weight="normal" font-family="Helvetica" text-anchor="start" alignment-baseline="middle">0x20000000</text><text x="240.0" y="0.0" stroke="none" fill="#1a2c3d" stroke-width="0" font-size="12" font-weight="normal" font-family="Helvetica" text-anchor="start" alignment-baseline="middle">0x20008000</text></g><g transform="translate(50.0,239.0)"><rect x="0" y="0" width="230.0" height="25" fill="#ffffff" stroke="#8a9ab0" stroke-width="1" /><g><rect x="0" y="0.0" width="230.0" height="25.0" fill="#eaecee" /><polyline points="0,10.0 0,0.0 230.0,0.0 230.0,10.0" stroke="#c8cdd4" stroke-width="1" fill="none" /><polyline points="0,15.0 0,25.0 230.0,25.0 230.0,15.0" stroke="#c8cdd4" stroke-width="1" fill="none" /><polyline points="-10.0,8.5 -9.0,8.377582561890373 -8.0,8.04030230586814 -7.0,7.570737201667703 -6.0,7.083853163452858 -5.0,6.698856384453066 -4.0,6.510007503399555 -3.0,6.5635433127092035 -2.0,6.846356379136388 -1.0,7.289204200569221 0.0,7.783662185463227 1.0,8.208669774291259 2.0,8.460170286650365 3.0,8.476587625728023 4.0,8.253902254343304 5.0,7.846635317835026 6.0,7.354499966191386 7.0,6.897988097315176 8.0,6.588869738115323 9.0,6.5028278438036216" stroke="#c8cdd4" stroke-width="1" fill="none" /><polyline points="-10.0,18.5 -9.0,18.37758256189037 -8.0,18.04030230586814 -7.0,17.570737201667704 -6.0,17.083853163452858 -5.0,16.698856384453066 -4.0,16.510007503399553 -3.0,16.563543312709204 -2.0,16.846356379136388 -1.0,17.28920420056922 0.0,17.783662185463225 1.0,18.20866977429126 2.0,18.460170286650367 3.0,18.476587625728023 4.0,18.253902254343306 5.0,17.846635317835027 6.0,17.354499966191387 7.0,16.897988097315178 8.0,16.588869738115324 9.0,16.502827843803622" stroke="#c8cdd4" stroke-width="1" fill="none" /><polyline points="220.0,8.5 221.0,8.377582561890373 222.0,8.04030230586814 223.0,7.570737201667703 224.0,7.083853163452858 225.0,6.698856384453066 226.0,6.510007503399555 227.0,6.5635433127092035 228.0,6.846356379136388 229.0,7.289204200569221 230.0,7.783662185463227 231.0,8.208669774291259 232.0,8.460170286650365 233.0,8.476587625728023 234.0,8.253902254343304 235.0,7.846635317835026 236.0,7.354499966191386 237.0,6.897988097315176 238.0,6.588869738115323 239.0,6.5028278438036216" stroke="#c8cdd4" stroke-width="1" fill="none" /><polyline points="220.0,18.5 221.0,18.37758256189037 222.0,18.04030230586814 223.0,17.570737201667704 224.0,17.083853163452858 225.0,16.698856384453066 226.0,16.510007503399553 227.0,16.563543312709204 228.0,16.846356379136388 229.0,17.28920420056922 230.0,17.783662185463225 231.0,18.20866977429126 232.0,18.460170286650367 233.0,18.476587625728023 234.0,18.253902254343306 235.0,17.846635317835027 236.0,17.354499966191387 237.0,16.897988097315178 238.0,16.588869738115324 239.0,16.502827843803622" stroke="#c8cdd4" stroke-width="1" fill="none" /></g><text x="115.0" y="12.5" stroke="none" fill="#9aacb8" stroke-width="0" font-size="12" font-weight="normal" font-family="Helvetica" text-anchor="middle" alignment-baseline="middle">···</text></g><g transform="translate(50.0,224.0)"><rect x="0" y="0" width="230.0" height="15.0" fill="#ffffff" stroke="#8a9ab0" stroke-width="1" /><rect x="0" y="0.0" width="230.0" height="15.0" fill="#a8bcd4" stroke="#8a9ab0" stroke-width="1" /><text x="115.0" y="7.5" stroke="none" fill="#1a2c3d" stroke-width="0" font-size="12" font-weight="normal" font-family="Helvetica" text-anchor="middle" alignment-baseline="middle">SoC Interface</text><text x="240.0" y="15.0" stroke="none" fill="#1a2c3d" stroke-width="0" font-size="12" font-weight="normal" font-family="Helvetica" text-anchor="start" alignment-baseline="middle">0x30000000</text><text x="240.0" y="0.0" stroke="none" fill="#1a2c3d" stroke-width="0" font-size="12" font-weight="normal" font-family="Helvetica" text-anchor="start" alignment-baseline="middle">0x30080000</text></g><g transform="translate(50.0,199.0)"><rect x="0" y="0" width="230.0" height="25" fill="#ffffff" stroke="#8a9ab0" stroke-width="1" /><g><rect x="0" y="0.0" width="230.0" height="25.0" fill="#eaecee" /><polyline points="0,10.0 0,0.0 230.0,0.0 230.0,10.0" stroke="#c8cdd4" stroke-width="1" fill="none" /><polyline points="0,15.0 0,25.0 230.0,25.0 230.0,15.0" stroke="#c8cdd4" stroke-width="1" fill="none" /><polyline points="-10.0,8.5 -9.0,8.377582561890373 -8.0,8.04030230586814 -7.0,7.570737201667703 -6.0,7.083853163452858 -5.0,6.698856384453066 -4.0,6.510007503399555 -3.0,6.5635433127092035 -2.0,6.846356379136388 -1.0,7.289204200569221 0.0,7.783662185463227 1.0,8.208669774291259 2.0,8.460170286650365 3.0,8.476587625728023 4.0,8.253902254343304 5.0,7.846635317835026 6.0,7.354499966191386 7.0,6.897988097315176 8.0,6.588869738115323 9.0,6.5028278438036216" stroke="#c8cdd4" stroke-width="1" fill="none" /><polyline points="-10.0,18.5 -9.0,18.37758256189037 -8.0,18.04030230586814 -7.0,17.570737201667704 -6.0,17.083853163452858 -5.0,16.698856384453066 -4.0,16.510007503399553 -3.0,16.563543312709204 -2.0,16.846356379136388 -1.0,17.28920420056922 0.0,17.783662185463225 1.0,18.20866977429126 2.0,18.460170286650367 3.0,18.476587625728023 4.0,18.253902254343306 5.0,17.846635317835027 6.0,17.354499966191387 7.0,16.897988097315178 8.0,16.588869738115324 9.0,16.502827843803622" stroke="#c8cdd4" stroke-width="1" fill="none" /><polyline points="220.0,8.5 221.0,8.377582561890373 222.0,8.04030230586814 223.0,7.570737201667703 224.0,7.083853163452858 225.0,6.698856384453066 226.0,6.510007503399555 227.0,6.5635433127092035 228.0,6.846356379136388 229.0,7.289204200569221 230.0,7.783662185463227 231.0,8.208669774291259 232.0,8.460170286650365 233.0,8.476587625728023 234.0,8.253902254343304 235.0,7.846635317835026 236.0,7.354499966191386 237.0,6.897988097315176 238.0,6.588869738115323 239.0,6.5028278438036216" stroke="#c8cdd4" stroke-width="1" fill="none" /><polyline points="220.0,18.5 221.0,18.37758256189037 222.0,18.04030230586814 223.0,17.570737201667704 224.0,17.083853163452858 225.0,16.698856384453066 226.0,16.510007503399553 227.0,16.563543312709204 228.0,16.846356379136388 229.0,17.28920420056922 230.0,17.783662185463225 231.0,18.20866977429126 232.0,18.460170286650367 233.0,18.476587625728023 234.0,18.253902254343306 235.0,17.846635317835027 236.0,17.354499966191387 237.0,16.897988097315178 238.0,16.588869738115324 239.0,16.502827843803622" stroke="#c8cdd4" stroke-width="1" fill="none" /></g><text x="115.0" y="12.5" stroke="none" fill="#9aacb8" stroke-width="0" font-size="12" font-weight="normal" font-family="Helvetica" text-anchor="middle" alignment-baseline="middle">···</text></g><g transform="translate(50.0,184.0)"><rect x="0" y="0" width="230.0" height="15.0" fill="#ffffff" stroke="#8a9ab0" stroke-width="1" /><rect x="0" y="0.0" width="230.0" height="15.0" fill="#a8c8b8" stroke="#8a9ab0" stroke-width="1" /><text x="115.0" y="7.5" stroke="none" fill="#1a2c3d" stroke-width="0" font-size="12" font-weight="normal" font-family="Helvetica" text-anchor="middle" alignment-baseline="middle">ICCM</text><text x="240.0" y="15.0" stroke="none" fill="#1a2c3d" stroke-width="0" font-size="12" font-weight="normal" font-family="Helvetica" text-anchor="start" alignment-baseline="middle">0x40000000</text><text x="240.0" y="0.0" stroke="none" fill="#1a2c3d" stroke-width="0" font-size="12" font-weight="normal" font-family="Helvetica" text-anchor="start" alignment-baseline="middle">0x40040000</text></g><g transform="translate(50.0,159.0)"><rect x="0" y="0" width="230.0" height="25" fill="#ffffff" stroke="#8a9ab0" stroke-width="1" /><g><rect x="0" y="0.0" width="230.0" height="25.0" fill="#eaecee" /><polyline points="0,10.0 0,0.0 230.0,0.0 230.0,10.0" stroke="#c8cdd4" stroke-width="1" fill="none" /><polyline points="0,15.0 0,25.0 230.0,25.0 230.0,15.0" stroke="#c8cdd4" stroke-width="1" fill="none" /><polyline points="-10.0,8.5 -9.0,8.377582561890373 -8.0,8.04030230586814 -7.0,7.570737201667703 -6.0,7.083853163452858 -5.0,6.698856384453066 -4.0,6.510007503399555 -3.0,6.5635433127092035 -2.0,6.846356379136388 -1.0,7.289204200569221 0.0,7.783662185463227 1.0,8.208669774291259 2.0,8.460170286650365 3.0,8.476587625728023 4.0,8.253902254343304 5.0,7.846635317835026 6.0,7.354499966191386 7.0,6.897988097315176 8.0,6.588869738115323 9.0,6.5028278438036216" stroke="#c8cdd4" stroke-width="1" fill="none" /><polyline points="-10.0,18.5 -9.0,18.37758256189037 -8.0,18.04030230586814 -7.0,17.570737201667704 -6.0,17.083853163452858 -5.0,16.698856384453066 -4.0,16.510007503399553 -3.0,16.563543312709204 -2.0,16.846356379136388 -1.0,17.28920420056922 0.0,17.783662185463225 1.0,18.20866977429126 2.0,18.460170286650367 3.0,18.476587625728023 4.0,18.253902254343306 5.0,17.846635317835027 6.0,17.354499966191387 7.0,16.897988097315178 8.0,16.588869738115324 9.0,16.502827843803622" stroke="#c8cdd4" stroke-width="1" fill="none" /><polyline points="220.0,8.5 221.0,8.377582561890373 222.0,8.04030230586814 223.0,7.570737201667703 224.0,7.083853163452858 225.0,6.698856384453066 226.0,6.510007503399555 227.0,6.5635433127092035 228.0,6.846356379136388 229.0,7.289204200569221 230.0,7.783662185463227 231.0,8.208669774291259 232.0,8.460170286650365 233.0,8.476587625728023 234.0,8.253902254343304 235.0,7.846635317835026 236.0,7.354499966191386 237.0,6.897988097315176 238.0,6.588869738115323 239.0,6.5028278438036216" stroke="#c8cdd4" stroke-width="1" fill="none" /><polyline points="220.0,18.5 221.0,18.37758256189037 222.0,18.04030230586814 223.0,17.570737201667704 224.0,17.083853163452858 225.0,16.698856384453066 226.0,16.510007503399553 227.0,16.563543312709204 228.0,16.846356379136388 229.0,17.28920420056922 230.0,17.783662185463225 231.0,18.20866977429126 232.0,18.460170286650367 233.0,18.476587625728023 234.0,18.253902254343306 235.0,17.846635317835027 236.0,17.354499966191387 237.0,16.897988097315178 238.0,16.588869738115324 239.0,16.502827843803622" stroke="#c8cdd4" stroke-width="1" fill="none" /></g><text x="115.0" y="12.5" stroke="none" fill="#9aacb8" stroke-width="0" font-size="12" font-weight="normal" font-family="Helvetica" text-anchor="middle" alignment-baseline="middle">···</text></g><g transform="translate(50.0,144.0)"><rect x="0" y="0" width="230.0" height="15.0" fill="#ffffff" stroke="#8a9ab0" stroke-width="1" /><rect x="0" y="0.0" width="230.0" height="15.0" fill="#a8c8b8" stroke="#8a9ab0" stroke-width="1" /><text x="115.0" y="7.5" stroke="none" fill="#1a2c3d" stroke-width="0" font-size="12" font-weight="normal" font-family="Helvetica" text-anchor="middle" alignment-baseline="middle">DCCM</text><text x="240.0" y="15.0" stroke="none" fill="#1a2c3d" stroke-width="0" font-size="12" font-weight="normal" font-family="Helvetica" text-anchor="start" alignment-baseline="middle">0x50000000</text><text x="240.0" y="0.0" stroke="none" fill="#1a2c3d" stroke-width="0" font-size="12" font-weight="normal" font-family="Helvetica" text-anchor="start" alignment-baseline="middle">0x50040000</text></g><g transform="translate(50.0,119.0)"><rect x="0" y="0" width="230.0" height="25" fill="#ffffff" stroke="#8a9ab0" stroke-width="1" /><g><rect x="0" y="0.0" width="230.0" height="25.0" fill="#eaecee" /><polyline points="0,10.0 0,0.0 230.0,0.0 230.0,10.0" stroke="#c8cdd4" stroke-width="1" fill="none" /><polyline points="0,15.0 0,25.0 230.0,25.0 230.0,15.0" stroke="#c8cdd4" stroke-width="1" fill="none" /><polyline points="-10.0,8.5 -9.0,8.377582561890373 -8.0,8.04030230586814 -7.0,7.570737201667703 -6.0,7.083853163452858 -5.0,6.698856384453066 -4.0,6.510007503399555 -3.0,6.5635433127092035 -2.0,6.846356379136388 -1.0,7.289204200569221 0.0,7.783662185463227 1.0,8.208669774291259 2.0,8.460170286650365 3.0,8.476587625728023 4.0,8.253902254343304 5.0,7.846635317835026 6.0,7.354499966191386 7.0,6.897988097315176 8.0,6.588869738115323 9.0,6.5028278438036216" stroke="#c8cdd4" stroke-width="1" fill="none" /><polyline points="-10.0,18.5 -9.0,18.37758256189037 -8.0,18.04030230586814 -7.0,17.570737201667704 -6.0,17.083853163452858 -5.0,16.698856384453066 -4.0,16.510007503399553 -3.0,16.563543312709204 -2.0,16.846356379136388 -1.0,17.28920420056922 0.0,17.783662185463225 1.0,18.20866977429126 2.0,18.460170286650367 3.0,18.476587625728023 4.0,18.253902254343306 5.0,17.846635317835027 6.0,17.354499966191387 7.0,16.897988097315178 8.0,16.588869738115324 9.0,16.502827843803622" stroke="#c8cdd4" stroke-width="1" fill="none" /><polyline points="220.0,8.5 221.0,8.377582561890373 222.0,8.04030230586814 223.0,7.570737201667703 224.0,7.083853163452858 225.0,6.698856384453066 226.0,6.510007503399555 227.0,6.5635433127092035 228.0,6.846356379136388 229.0,7.289204200569221 230.0,7.783662185463227 231.0,8.208669774291259 232.0,8.460170286650365 233.0,8.476587625728023 234.0,8.253902254343304 235.0,7.846635317835026 236.0,7.354499966191386 237.0,6.897988097315176 238.0,6.588869738115323 239.0,6.5028278438036216" stroke="#c8cdd4" stroke-width="1" fill="none" /><polyline points="220.0,18.5 221.0,18.37758256189037 222.0,18.04030230586814 223.0,17.570737201667704 224.0,17.083853163452858 225.0,16.698856384453066 226.0,16.510007503399553 227.0,16.563543312709204 228.0,16.846356379136388 229.0,17.28920420056922 230.0,17.783662185463225 231.0,18.20866977429126 232.0,18.460170286650367 233.0,18.476587625728023 234.0,18.253902254343306 235.0,17.846635317835027 236.0,17.354499966191387 237.0,16.897988097315178 238.0,16.588869738115324 239.0,16.502827843803622" stroke="#c8cdd4" stroke-width="1" fill="none" /></g><text x="115.0" y="12.5" stroke="none" fill="#9aacb8" stroke-width="0" font-size="12" font-weight="normal" font-family="Helvetica" text-anchor="middle" alignment-baseline="middle">···</text></g><g transform="translate(50.0,60.0)"><rect x="0" y="0" width="230.0" height="59.0" fill="#ffffff" stroke="#8a9ab0" stroke-width="1" /><rect x="0" y="0.0" width="230.0" height="59.0" fill="#d8dde4" stroke="#8a9ab0" stroke-width="1" /><text x="115.0" y="29.5" stroke="none" fill="#1a2c3d" stroke-width="0" font-size="12" font-weight="normal" font-family="Helvetica" text-anchor="middle" alignment-baseline="middle">PIC</text><text x="240.0" y="59.0" stroke="none" fill="#1a2c3d" stroke-width="0" font-size="12" font-weight="normal" font-family="Helvetica" text-anchor="start" alignment-baseline="middle">0x60000000</text><text x="240.0" y="0.0" stroke="none" fill="#1a2c3d" stroke-width="0" font-size="12" font-weight="normal" font-family="Helvetica" text-anchor="start" alignment-baseline="middle">0x70000000</text><text x="2" y="2.0" stroke="none" fill="#1a2c3d" stroke-width="0" font-size="12px" font-weight="normal" font-family="Helvetica" text-anchor="start" alignment-baseline="hanging">256 MiB</text></g></g><g><text x="115.0" y="-20" stroke="none" fill="#1a2c3d" stroke-width="0" font-size="24px" font-weight="normal" font-family="Helvetica" text-anchor="middle" alignment-baseline="middle" transform="translate(400.0,60.0)">SoC Interface</text><g transform="translate(400.0,235.0)"><rect x="0" y="0" width="230.0" height="25" fill="#ffffff" stroke="#8a9ab0" stroke-width="1" /><g><rect x="0" y="0.0" width="230.0" height="25.0" fill="#eaecee" /><polyline points="0,10.0 0,0.0 230.0,0.0 230.0,10.0" stroke="#c8cdd4" stroke-width="1" fill="none" /><polyline points="0,15.0 0,25.0 230.0,25.0 230.0,15.0" stroke="#c8cdd4" stroke-width="1" fill="none" /><polyline points="-10.0,8.5 -9.0,8.377582561890373 -8.0,8.04030230586814 -7.0,7.570737201667703 -6.0,7.083853163452858 -5.0,6.698856384453066 -4.0,6.510007503399555 -3.0,6.5635433127092035 -2.0,6.846356379136388 -1.0,7.289204200569221 0.0,7.783662185463227 1.0,8.208669774291259 2.0,8.460170286650365 3.0,8.476587625728023 4.0,8.253902254343304 5.0,7.846635317835026 6.0,7.354499966191386 7.0,6.897988097315176 8.0,6.588869738115323 9.0,6.5028278438036216" stroke="#c8cdd4" stroke-width="1" fill="none" /><polyline points="-10.0,18.5 -9.0,18.37758256189037 -8.0,18.04030230586814 -7.0,17.570737201667704 -6.0,17.083853163452858 -5.0,16.698856384453066 -4.0,16.510007503399553 -3.0,16.563543312709204 -2.0,16.846356379136388 -1.0,17.28920420056922 0.0,17.783662185463225 1.0,18.20866977429126 2.0,18.460170286650367 3.0,18.476587625728023 4.0,18.253902254343306 5.0,17.846635317835027 6.0,17.354499966191387 7.0,16.897988097315178 8.0,16.588869738115324 9.0,16.502827843803622" stroke="#c8cdd4" stroke-width="1" fill="none" /><polyline points="220.0,8.5 221.0,8.377582561890373 222.0,8.04030230586814 223.0,7.570737201667703 224.0,7.083853163452858 225.0,6.698856384453066 226.0,6.510007503399555 227.0,6.5635433127092035 228.0,6.846356379136388 229.0,7.289204200569221 230.0,7.783662185463227 231.0,8.208669774291259 232.0,8.460170286650365 233.0,8.476587625728023 234.0,8.253902254343304 235.0,7.846635317835026 236.0,7.354499966191386 237.0,6.897988097315176 238.0,6.588869738115323 239.0,6.5028278438036216" stroke="#c8cdd4" stroke-width="1" fill="none" /><polyline points="220.0,18.5 221.0,18.37758256189037 222.0,18.04030230586814 223.0,17.570737201667704 224.0,17.083853163452858 225.0,16.698856384453066 226.0,16.510007503399553 227.0,16.563543312709204 228.0,16.846356379136388 229.0,17.28920420056922 230.0,17.783662185463225 231.0,18.20866977429126 232.0,18.460170286650367 233.0,18.476587625728023 234.0,18.253902254343306 235.0,17.846635317835027 236.0,17.354499966191387 237.0,16.897988097315178 238.0,16.588869738115324 239.0,16.502827843803622" stroke="#c8cdd4" stroke-width="1" fill="none" /></g><text x="115.0" y="12.5" stroke="none" fill="#9aacb8" stroke-width="0" font-size="12" font-weight="normal" font-family="Helvetica" text-anchor="middle" alignment-baseline="middle">···</text></g><g transform="translate(400.0,190.0)"><rect x="0" y="0" width="230.0" height="45.0" fill="#ffffff" stroke="#8a9ab0" stroke-width="1" /><rect x="0" y="30.0" width="230.0" height="15.0" fill="#a8bcd4" stroke="#8a9ab0" stroke-width="1" /><text x="115.0" y="37.5" stroke="none" fill="#1a2c3d" stroke-width="0" font-size="12" font-weight="normal" font-family="Helvetica" text-anchor="middle" alignment-baseline="middle">Mailbox CSR</text><text x="240.0" y="45.0" stroke="none" fill="#1a2c3d" stroke-width="0" font-size="12" font-weight="normal" font-family="Helvetica" text-anchor="start" alignment-baseline="middle">0x30020000</text><text x="240.0" y="30.0" stroke="none" fill="#1a2c3d" stroke-width="0" font-size="12" font-weight="normal" font-family="Helvetica" text-anchor="start" alignment-baseline="middle">0x30021000</text><rect x="0" y="15.0" width="230.0" height="15.0" fill="#a8bcd4" stroke="#8a9ab0" stroke-width="1" /><text x="115.0" y="22.5" stroke="none" fill="#1a2c3d" stroke-width="0" font-size="12" font-weight="normal" font-family="Helvetica" text-anchor="middle" alignment-baseline="middle">SHA512 Accel</text><text x="240.0" y="30.0" stroke="none" fill="#1a2c3d" stroke-width="0" font-size="12" font-weight="normal" font-family="Helvetica" text-anchor="start" alignment-baseline="middle">0x30021000</text><text x="240.0" y="15.0" stroke="none" fill="#1a2c3d" stroke-width="0" font-size="12" font-weight="normal" font-family="Helvetica" text-anchor="start" alignment-baseline="middle">0x30022000</text><rect x="0" y="0.0" width="230.0" height="15.0" fill="#a8bcd4" stroke="#8a9ab0" stroke-width="1" /><text x="115.0" y="7.5" stroke="none" fill="#1a2c3d" stroke-width="0" font-size="12" font-weight="normal" font-family="Helvetica" text-anchor="middle" alignment-baseline="middle">AXI DMA</text><text x="240.0" y="15.0" stroke="none" fill="#1a2c3d" stroke-width="0" font-size="12" font-weight="normal" font-family="Helvetica" text-anchor="start" alignment-baseline="middle">0x30022000</text><text x="240.0" y="0.0" stroke="none" fill="#1a2c3d" stroke-width="0" font-size="12" font-weight="normal" font-family="Helvetica" text-anchor="start" alignment-baseline="middle">0x30023000</text></g><g transform="translate(400.0,165.0)"><rect x="0" y="0" width="230.0" height="25" fill="#ffffff" stroke="#8a9ab0" stroke-width="1" /><g><rect x="0" y="0.0" width="230.0" height="25.0" fill="#eaecee" /><polyline points="0,10.0 0,0.0 230.0,0.0 230.0,10.0" stroke="#c8cdd4" stroke-width="1" fill="none" /><polyline points="0,15.0 0,25.0 230.0,25.0 230.0,15.0" stroke="#c8cdd4" stroke-width="1" fill="none" /><polyline points="-10.0,8.5 -9.0,8.377582561890373 -8.0,8.04030230586814 -7.0,7.570737201667703 -6.0,7.083853163452858 -5.0,6.698856384453066 -4.0,6.510007503399555 -3.0,6.5635433127092035 -2.0,6.846356379136388 -1.0,7.289204200569221 0.0,7.783662185463227 1.0,8.208669774291259 2.0,8.460170286650365 3.0,8.476587625728023 4.0,8.253902254343304 5.0,7.846635317835026 6.0,7.354499966191386 7.0,6.897988097315176 8.0,6.588869738115323 9.0,6.5028278438036216" stroke="#c8cdd4" stroke-width="1" fill="none" /><polyline points="-10.0,18.5 -9.0,18.37758256189037 -8.0,18.04030230586814 -7.0,17.570737201667704 -6.0,17.083853163452858 -5.0,16.698856384453066 -4.0,16.510007503399553 -3.0,16.563543312709204 -2.0,16.846356379136388 -1.0,17.28920420056922 0.0,17.783662185463225 1.0,18.20866977429126 2.0,18.460170286650367 3.0,18.476587625728023 4.0,18.253902254343306 5.0,17.846635317835027 6.0,17.354499966191387 7.0,16.897988097315178 8.0,16.588869738115324 9.0,16.502827843803622" stroke="#c8cdd4" stroke-width="1" fill="none" /><polyline points="220.0,8.5 221.0,8.377582561890373 222.0,8.04030230586814 223.0,7.570737201667703 224.0,7.083853163452858 225.0,6.698856384453066 226.0,6.510007503399555 227.0,6.5635433127092035 228.0,6.846356379136388 229.0,7.289204200569221 230.0,7.783662185463227 231.0,8.208669774291259 232.0,8.460170286650365 233.0,8.476587625728023 234.0,8.253902254343304 235.0,7.846635317835026 236.0,7.354499966191386 237.0,6.897988097315176 238.0,6.588869738115323 239.0,6.5028278438036216" stroke="#c8cdd4" stroke-width="1" fill="none" /><polyline points="220.0,18.5 221.0,18.37758256189037 222.0,18.04030230586814 223.0,17.570737201667704 224.0,17.083853163452858 225.0,16.698856384453066 226.0,16.510007503399553 227.0,16.563543312709204 228.0,16.846356379136388 229.0,17.28920420056922 230.0,17.783662185463225 231.0,18.20866977429126 232.0,18.460170286650367 233.0,18.476587625728023 234.0,18.253902254343306 235.0,17.846635317835027 236.0,17.354499966191387 237.0,16.897988097315178 238.0,16.588869738115324 239.0,16.502827843803622" stroke="#c8cdd4" stroke-width="1" fill="none" /></g><text x="115.0" y="12.5" stroke="none" fill="#9aacb8" stroke-width="0" font-size="12" font-weight="normal" font-family="Helvetica" text-anchor="middle" alignment-baseline="middle">···</text></g><g transform="translate(400.0,60.0)"><rect x="0" y="0" width="230.0" height="105.0" fill="#ffffff" stroke="#8a9ab0" stroke-width="1" /><rect x="0" y="84.0" width="230.0" height="21.0" fill="#a8d5ba" stroke="#8a9ab0" stroke-width="1" /><text x="115.0" y="94.5" stroke="none" fill="#1a2c3d" stroke-width="0" font-size="12" font-weight="normal" font-family="Helvetica" text-anchor="middle" alignment-baseline="middle">SoC IFC CSR</text><text x="240.0" y="105.0" stroke="none" fill="#1a2c3d" stroke-width="0" font-size="12" font-weight="normal" font-family="Helvetica" text-anchor="start" alignment-baseline="middle">0x30030000</text><text x="240.0" y="84.0" stroke="none" fill="#1a2c3d" stroke-width="0" font-size="12" font-weight="normal" font-family="Helvetica" text-anchor="start" alignment-baseline="middle">0x30040000</text><rect x="0" y="0.0" width="230.0" height="84.0" fill="#a8c8b8" stroke="#8a9ab0" stroke-width="1" /><text x="115.0" y="42.0" stroke="none" fill="#1a2c3d" stroke-width="0" font-size="12" font-weight="normal" font-family="Helvetica" text-anchor="middle" alignment-baseline="middle">Mailbox SRAM</text><text x="240.0" y="84.0" stroke="none" fill="#1a2c3d" stroke-width="0" font-size="12" font-weight="normal" font-family="Helvetica" text-anchor="start" alignment-baseline="middle">0x30040000</text><text x="240.0" y="0.0" stroke="none" fill="#1a2c3d" stroke-width="0" font-size="12" font-weight="normal" font-family="Helvetica" text-anchor="start" alignment-baseline="middle">0x30080000</text><text x="2" y="2.0" stroke="none" fill="#1a2c3d" stroke-width="0" font-size="12px" font-weight="normal" font-family="Helvetica" text-anchor="start" alignment-baseline="hanging">256 KiB</text></g></g><g><text x="115.0" y="-20" stroke="none" fill="#1a2c3d" stroke-width="0" font-size="24px" font-weight="normal" font-family="Helvetica" text-anchor="middle" alignment-baseline="middle" transform="translate(400.0,310.0)">Peripherals</text><g transform="translate(400.0,485.0)"><rect x="0" y="0" width="230.0" height="25" fill="#ffffff" stroke="#8a9ab0" stroke-width="1" /><g><rect x="0" y="0.0" width="230.0" height="25.0" fill="#eaecee" /><polyline points="0,10.0 0,0.0 230.0,0.0 230.0,10.0" stroke="#c8cdd4" stroke-width="1" fill="none" /><polyline points="0,15.0 0,25.0 230.0,25.0 230.0,15.0" stroke="#c8cdd4" stroke-width="1" fill="none" /><polyline points="-10.0,8.5 -9.0,8.377582561890373 -8.0,8.04030230586814 -7.0,7.570737201667703 -6.0,7.083853163452858 -5.0,6.698856384453066 -4.0,6.510007503399555 -3.0,6.5635433127092035 -2.0,6.846356379136388 -1.0,7.289204200569221 0.0,7.783662185463227 1.0,8.208669774291259 2.0,8.460170286650365 3.0,8.476587625728023 4.0,8.253902254343304 5.0,7.846635317835026 6.0,7.354499966191386 7.0,6.897988097315176 8.0,6.588869738115323 9.0,6.5028278438036216" stroke="#c8cdd4" stroke-width="1" fill="none" /><polyline points="-10.0,18.5 -9.0,18.37758256189037 -8.0,18.04030230586814 -7.0,17.570737201667704 -6.0,17.083853163452858 -5.0,16.698856384453066 -4.0,16.510007503399553 -3.0,16.563543312709204 -2.0,16.846356379136388 -1.0,17.28920420056922 0.0,17.783662185463225 1.0,18.20866977429126 2.0,18.460170286650367 3.0,18.476587625728023 4.0,18.253902254343306 5.0,17.846635317835027 6.0,17.354499966191387 7.0,16.897988097315178 8.0,16.588869738115324 9.0,16.502827843803622" stroke="#c8cdd4" stroke-width="1" fill="none" /><polyline points="220.0,8.5 221.0,8.377582561890373 222.0,8.04030230586814 223.0,7.570737201667703 224.0,7.083853163452858 225.0,6.698856384453066 226.0,6.510007503399555 227.0,6.5635433127092035 228.0,6.846356379136388 229.0,7.289204200569221 230.0,7.783662185463227 231.0,8.208669774291259 232.0,8.460170286650365 233.0,8.476587625728023 234.0,8.253902254343304 235.0,7.846635317835026 236.0,7.354499966191386 237.0,6.897988097315176 238.0,6.588869738115323 239.0,6.5028278438036216" stroke="#c8cdd4" stroke-width="1" fill="none" /><polyline points="220.0,18.5 221.0,18.37758256189037 222.0,18.04030230586814 223.0,17.570737201667704 224.0,17.083853163452858 225.0,16.698856384453066 226.0,16.510007503399553 227.0,16.563543312709204 228.0,16.846356379136388 229.0,17.28920420056922 230.0,17.783662185463225 231.0,18.20866977429126 232.0,18.460170286650367 233.0,18.476587625728023 234.0,18.253902254343306 235.0,17.846635317835027 236.0,17.354499966191387 237.0,16.897988097315178 238.0,16.588869738115324 239.0,16.502827843803622" stroke="#c8cdd4" stroke-width="1" fill="none" /></g><text x="115.0" y="12.5" stroke="none" fill="#9aacb8" stroke-width="0" font-size="12" font-weight="normal" font-family="Helvetica" text-anchor="middle" alignment-baseline="middle">···</text></g><g transform="translate(400.0,335.0)"><rect x="0" y="0" width="230.0" height="150.0" fill="#ffffff" stroke="#8a9ab0" stroke-width="1" /><rect x="0" y="75.0" width="230.0" height="75.0" fill="#a8d5ba" stroke="#8a9ab0" stroke-width="1" /><text x="115.0" y="112.5" stroke="none" fill="#1a2c3d" stroke-width="0" font-size="12" font-weight="normal" font-family="Helvetica" text-anchor="middle" alignment-baseline="middle">CSRNG</text><text x="240.0" y="150.0" stroke="none" fill="#1a2c3d" stroke-width="0" font-size="12" font-weight="normal" font-family="Helvetica" text-anchor="start" alignment-baseline="middle">0x20002000</text><text x="240.0" y="75.0" stroke="none" fill="#1a2c3d" stroke-width="0" font-size="12" font-weight="normal" font-family="Helvetica" text-anchor="start" alignment-baseline="middle">0x20003000</text><text x="2" y="77.0" stroke="none" fill="#1a2c3d" stroke-width="0" font-size="12px" font-weight="normal" font-family="Helvetica" text-anchor="start" alignment-baseline="hanging">4 KiB</text><rect x="0" y="0.0" width="230.0" height="75.0" fill="#a8d5ba" stroke="#8a9ab0" stroke-width="1" /><text x="115.0" y="37.5" stroke="none" fill="#1a2c3d" stroke-width="0" font-size="12" font-weight="normal" font-family="Helvetica" text-anchor="middle" alignment-baseline="middle">Entropy Source</text><text x="240.0" y="75.0" stroke="none" fill="#1a2c3d" stroke-width="0" font-size="12" font-weight="normal" font-family="Helvetica" text-anchor="start" alignment-baseline="middle">0x20003000</text><text x="240.0" y="0.0" stroke="none" fill="#1a2c3d" stroke-width="0" font-size="12" font-weight="normal" font-family="Helvetica" text-anchor="start" alignment-baseline="middle">0x20004000</text><text x="2" y="2.0" stroke="none" fill="#1a2c3d" stroke-width="0" font-size="12px" font-weight="normal" font-family="Helvetica" text-anchor="start" alignment-baseline="hanging">4 KiB</text></g><g transform="translate(400.0,310.0)"><rect x="0" y="0" width="230.0" height="25" fill="#ffffff" stroke="#8a9ab0" stroke-width="1" /><g><rect x="0" y="0.0" width="230.0" height="25.0" fill="#eaecee" /><polyline points="0,10.0 0,0.0 230.0,0.0 230.0,10.0" stroke="#c8cdd4" stroke-width="1" fill="none" /><polyline points="0,15.0 0,25.0 230.0,25.0 230.0,15.0" stroke="#c8cdd4" stroke-width="1" fill="none" /><polyline points="-10.0,8.5 -9.0,8.377582561890373 -8.0,8.04030230586814 -7.0,7.570737201667703 -6.0,7.083853163452858 -5.0,6.698856384453066 -4.0,6.510007503399555 -3.0,6.5635433127092035 -2.0,6.846356379136388 -1.0,7.289204200569221 0.0,7.783662185463227 1.0,8.208669774291259 2.0,8.460170286650365 3.0,8.476587625728023 4.0,8.253902254343304 5.0,7.846635317835026 6.0,7.354499966191386 7.0,6.897988097315176 8.0,6.588869738115323 9.0,6.5028278438036216" stroke="#c8cdd4" stroke-width="1" fill="none" /><polyline points="-10.0,18.5 -9.0,18.37758256189037 -8.0,18.04030230586814 -7.0,17.570737201667704 -6.0,17.083853163452858 -5.0,16.698856384453066 -4.0,16.510007503399553 -3.0,16.563543312709204 -2.0,16.846356379136388 -1.0,17.28920420056922 0.0,17.783662185463225 1.0,18.20866977429126 2.0,18.460170286650367 3.0,18.476587625728023 4.0,18.253902254343306 5.0,17.846635317835027 6.0,17.354499966191387 7.0,16.897988097315178 8.0,16.588869738115324 9.0,16.502827843803622" stroke="#c8cdd4" stroke-width="1" fill="none" /><polyline points="220.0,8.5 221.0,8.377582561890373 222.0,8.04030230586814 223.0,7.570737201667703 224.0,7.083853163452858 225.0,6.698856384453066 226.0,6.510007503399555 227.0,6.5635433127092035 228.0,6.846356379136388 229.0,7.289204200569221 230.0,7.783662185463227 231.0,8.208669774291259 232.0,8.460170286650365 233.0,8.476587625728023 234.0,8.253902254343304 235.0,7.846635317835026 236.0,7.354499966191386 237.0,6.897988097315176 238.0,6.588869738115323 239.0,6.5028278438036216" stroke="#c8cdd4" stroke-width="1" fill="none" /><polyline points="220.0,18.5 221.0,18.37758256189037 222.0,18.04030230586814 223.0,17.570737201667704 224.0,17.083853163452858 225.0,16.698856384453066 226.0,16.510007503399553 227.0,16.563543312709204 228.0,16.846356379136388 229.0,17.28920420056922 230.0,17.783662185463225 231.0,18.20866977429126 232.0,18.460170286650367 233.0,18.476587625728023 234.0,18.253902254343306 235.0,17.846635317835027 236.0,17.354499966191387 237.0,16.897988097315178 238.0,16.588869738115324 239.0,16.502827843803622" stroke="#c8cdd4" stroke-width="1" fill="none" /></g><text x="115.0" y="12.5" stroke="none" fill="#9aacb8" stroke-width="0" font-size="12" font-weight="normal" font-family="Helvetica" text-anchor="middle" alignment-baseline="middle">···</text></g></g><g><text x="115.0" y="-20" stroke="none" fill="#1a2c3d" stroke-width="0" font-size="24px" font-weight="normal" font-family="Helvetica" text-anchor="middle" alignment-baseline="middle" transform="translate(400.0,560.0)">Crypto Subsystem</text><g transform="translate(400.0,766.3333333333334)"><rect x="0" y="0" width="230.0" height="65.66666666666666" fill="#ffffff" stroke="#8a9ab0" stroke-width="1" /><rect x="0" y="47.83333333333333" width="230.0" height="17.833333333333332" fill="#c4b8d8" stroke="#8a9ab0" stroke-width="1" /><text x="115.0" y="56.74999999999999" stroke="none" fill="#1a2c3d" stroke-width="0" font-size="12" font-weight="normal" font-family="Helvetica" text-anchor="middle" alignment-baseline="middle">DOE</text><text x="240.0" y="65.66666666666666" stroke="none" fill="#1a2c3d" stroke-width="0" font-size="12" font-weight="normal" font-family="Helvetica" text-anchor="start" alignment-baseline="middle">0x10000000</text><text x="240.0" y="47.83333333333333" stroke="none" fill="#1a2c3d" stroke-width="0" font-size="12" font-weight="normal" font-family="Helvetica" text-anchor="start" alignment-baseline="middle">0x10008000</text><rect x="0" y="30.0" width="230.0" height="17.833333333333332" fill="#c4b8d8" stroke="#8a9ab0" stroke-width="1" /><text x="115.0" y="38.916666666666664" stroke="none" fill="#1a2c3d" stroke-width="0" font-size="12" font-weight="normal" font-family="Helvetica" text-anchor="middle" alignment-baseline="middle">ECC (Secp384)</text><text x="240.0" y="47.83333333333333" stroke="none" fill="#1a2c3d" stroke-width="0" font-size="12" font-weight="normal" font-family="Helvetica" text-anchor="start" alignment-baseline="middle">0x10008000</text><text x="240.0" y="30.0" stroke="none" fill="#1a2c3d" stroke-width="0" font-size="12" font-weight="normal" font-family="Helvetica" text-anchor="start" alignment-baseline="middle">0x10010000</text><rect x="0" y="15.0" width="230.0" height="15.0" fill="#b8aad4" stroke="#8a9ab0" stroke-width="1" /><text x="115.0" y="22.5" stroke="none" fill="#1a2c3d" stroke-width="0" font-size="12" font-weight="normal" font-family="Helvetica" text-anchor="middle" alignment-baseline="middle">HMAC512</text><text x="240.0" y="30.0" stroke="none" fill="#1a2c3d" stroke-width="0" font-size="12" font-weight="normal" font-family="Helvetica" text-anchor="start" alignment-baseline="middle">0x10010000</text><text x="240.0" y="15.0" stroke="none" fill="#1a2c3d" stroke-width="0" font-size="12" font-weight="normal" font-family="Helvetica" text-anchor="start" alignment-baseline="middle">0x10011000</text><rect x="0" y="0.0" width="230.0" height="15.0" fill="#b8aad4" stroke="#8a9ab0" stroke-width="1" /><text x="115.0" y="7.5" stroke="none" fill="#1a2c3d" stroke-width="0" font-size="12" font-weight="normal" font-family="Helvetica" text-anchor="middle" alignment-baseline="middle">AES</text><text x="240.0" y="15.0" stroke="none" fill="#1a2c3d" stroke-width="0" font-size="12" font-weight="normal" font-family="Helvetica" text-anchor="start" alignment-baseline="middle">0x10011000</text><text x="240.0" y="0.0" stroke="none" fill="#1a2c3d" stroke-width="0" font-size="12" font-weight="normal" font-family="Helvetica" text-anchor="start" alignment-baseline="middle">0x10012000</text></g><g transform="translate(400.0,741.3333333333334)"><rect x="0" y="0" width="230.0" height="25" fill="#ffffff" stroke="#8a9ab0" stroke-width="1" /><g><rect x="0" y="0.0" width="230.0" height="25.0" fill="#eaecee" /><polyline points="0,10.0 0,0.0 230.0,0.0 230.0,10.0" stroke="#c8cdd4" stroke-width="1" fill="none" /><polyline points="0,15.0 0,25.0 230.0,25.0 230.0,15.0" stroke="#c8cdd4" stroke-width="1" fill="none" /><polyline points="-10.0,8.5 -9.0,8.377582561890373 -8.0,8.04030230586814 -7.0,7.570737201667703 -6.0,7.083853163452858 -5.0,6.698856384453066 -4.0,6.510007503399555 -3.0,6.5635433127092035 -2.0,6.846356379136388 -1.0,7.289204200569221 0.0,7.783662185463227 1.0,8.208669774291259 2.0,8.460170286650365 3.0,8.476587625728023 4.0,8.253902254343304 5.0,7.846635317835026 6.0,7.354499966191386 7.0,6.897988097315176 8.0,6.588869738115323 9.0,6.5028278438036216" stroke="#c8cdd4" stroke-width="1" fill="none" /><polyline points="-10.0,18.5 -9.0,18.37758256189037 -8.0,18.04030230586814 -7.0,17.570737201667704 -6.0,17.083853163452858 -5.0,16.698856384453066 -4.0,16.510007503399553 -3.0,16.563543312709204 -2.0,16.846356379136388 -1.0,17.28920420056922 0.0,17.783662185463225 1.0,18.20866977429126 2.0,18.460170286650367 3.0,18.476587625728023 4.0,18.253902254343306 5.0,17.846635317835027 6.0,17.354499966191387 7.0,16.897988097315178 8.0,16.588869738115324 9.0,16.502827843803622" stroke="#c8cdd4" stroke-width="1" fill="none" /><polyline points="220.0,8.5 221.0,8.377582561890373 222.0,8.04030230586814 223.0,7.570737201667703 224.0,7.083853163452858 225.0,6.698856384453066 226.0,6.510007503399555 227.0,6.5635433127092035 228.0,6.846356379136388 229.0,7.289204200569221 230.0,7.783662185463227 231.0,8.208669774291259 232.0,8.460170286650365 233.0,8.476587625728023 234.0,8.253902254343304 235.0,7.846635317835026 236.0,7.354499966191386 237.0,6.897988097315176 238.0,6.588869738115323 239.0,6.5028278438036216" stroke="#c8cdd4" stroke-width="1" fill="none" /><polyline points="220.0,18.5 221.0,18.37758256189037 222.0,18.04030230586814 223.0,17.570737201667704 224.0,17.083853163452858 225.0,16.698856384453066 226.0,16.510007503399553 227.0,16.563543312709204 228.0,16.846356379136388 229.0,17.28920420056922 230.0,17.783662185463225 231.0,18.20866977429126 232.0,18.460170286650367 233.0,18.476587625728023 234.0,18.253902254343306 235.0,17.846635317835027 236.0,17.354499966191387 237.0,16.897988097315178 238.0,16.588869738115324 239.0,16.502827843803622" stroke="#c8cdd4" stroke-width="1" fill="none" /></g><text x="115.0" y="12.5" stroke="none" fill="#9aacb8" stroke-width="0" font-size="12" font-weight="normal" font-family="Helvetica" text-anchor="middle" alignment-baseline="middle">···</text></g><g transform="translate(400.0,696.3333333333334)"><rect x="0" y="0" width="230.0" height="45.0" fill="#ffffff" stroke="#8a9ab0" stroke-width="1" /><rect x="0" y="30.0" width="230.0" height="15.0" fill="#d4a8b8" stroke="#8a9ab0" stroke-width="1" /><text x="115.0" y="37.5" stroke="none" fill="#1a2c3d" stroke-width="0" font-size="12" font-weight="normal" font-family="Helvetica" text-anchor="middle" alignment-baseline="middle">Key Vault</text><text x="240.0" y="45.0" stroke="none" fill="#1a2c3d" stroke-width="0" font-size="12" font-weight="normal" font-family="Helvetica" text-anchor="start" alignment-baseline="middle">0x10018000</text><text x="240.0" y="30.0" stroke="none" fill="#1a2c3d" stroke-width="0" font-size="12" font-weight="normal" font-family="Helvetica" text-anchor="start" alignment-baseline="middle">0x1001a000</text><rect x="0" y="15.0" width="230.0" height="15.0" fill="#d4a8b8" stroke="#8a9ab0" stroke-width="1" /><text x="115.0" y="22.5" stroke="none" fill="#1a2c3d" stroke-width="0" font-size="12" font-weight="normal" font-family="Helvetica" text-anchor="middle" alignment-baseline="middle">PCR Vault</text><text x="240.0" y="30.0" stroke="none" fill="#1a2c3d" stroke-width="0" font-size="12" font-weight="normal" font-family="Helvetica" text-anchor="start" alignment-baseline="middle">0x1001a000</text><text x="240.0" y="15.0" stroke="none" fill="#1a2c3d" stroke-width="0" font-size="12" font-weight="normal" font-family="Helvetica" text-anchor="start" alignment-baseline="middle">0x1001c000</text><rect x="0" y="0.0" width="230.0" height="15.0" fill="#d4a8b8" stroke="#8a9ab0" stroke-width="1" /><text x="115.0" y="7.5" stroke="none" fill="#1a2c3d" stroke-width="0" font-size="12" font-weight="normal" font-family="Helvetica" text-anchor="middle" alignment-baseline="middle">Data Vault</text><text x="240.0" y="15.0" stroke="none" fill="#1a2c3d" stroke-width="0" font-size="12" font-weight="normal" font-family="Helvetica" text-anchor="start" alignment-baseline="middle">0x1001c000</text><text x="240.0" y="0.0" stroke="none" fill="#1a2c3d" stroke-width="0" font-size="12" font-weight="normal" font-family="Helvetica" text-anchor="start" alignment-baseline="middle">0x1001e000</text></g><g transform="translate(400.0,671.3333333333334)"><rect x="0" y="0" width="230.0" height="25" fill="#ffffff" stroke="#8a9ab0" stroke-width="1" /><g><rect x="0" y="0.0" width="230.0" height="25.0" fill="#eaecee" /><polyline points="0,10.0 0,0.0 230.0,0.0 230.0,10.0" stroke="#c8cdd4" stroke-width="1" fill="none" /><polyline points="0,15.0 0,25.0 230.0,25.0 230.0,15.0" stroke="#c8cdd4" stroke-width="1" fill="none" /><polyline points="-10.0,8.5 -9.0,8.377582561890373 -8.0,8.04030230586814 -7.0,7.570737201667703 -6.0,7.083853163452858 -5.0,6.698856384453066 -4.0,6.510007503399555 -3.0,6.5635433127092035 -2.0,6.846356379136388 -1.0,7.289204200569221 0.0,7.783662185463227 1.0,8.208669774291259 2.0,8.460170286650365 3.0,8.476587625728023 4.0,8.253902254343304 5.0,7.846635317835026 6.0,7.354499966191386 7.0,6.897988097315176 8.0,6.588869738115323 9.0,6.5028278438036216" stroke="#c8cdd4" stroke-width="1" fill="none" /><polyline points="-10.0,18.5 -9.0,18.37758256189037 -8.0,18.04030230586814 -7.0,17.570737201667704 -6.0,17.083853163452858 -5.0,16.698856384453066 -4.0,16.510007503399553 -3.0,16.563543312709204 -2.0,16.846356379136388 -1.0,17.28920420056922 0.0,17.783662185463225 1.0,18.20866977429126 2.0,18.460170286650367 3.0,18.476587625728023 4.0,18.253902254343306 5.0,17.846635317835027 6.0,17.354499966191387 7.0,16.897988097315178 8.0,16.588869738115324 9.0,16.502827843803622" stroke="#c8cdd4" stroke-width="1" fill="none" /><polyline points="220.0,8.5 221.0,8.377582561890373 222.0,8.04030230586814 223.0,7.570737201667703 224.0,7.083853163452858 225.0,6.698856384453066 226.0,6.510007503399555 227.0,6.5635433127092035 228.0,6.846356379136388 229.0,7.289204200569221 230.0,7.783662185463227 231.0,8.208669774291259 232.0,8.460170286650365 233.0,8.476587625728023 234.0,8.253902254343304 235.0,7.846635317835026 236.0,7.354499966191386 237.0,6.897988097315176 238.0,6.588869738115323 239.0,6.5028278438036216" stroke="#c8cdd4" stroke-width="1" fill="none" /><polyline points="220.0,18.5 221.0,18.37758256189037 222.0,18.04030230586814 223.0,17.570737201667704 224.0,17.083853163452858 225.0,16.698856384453066 226.0,16.510007503399553 227.0,16.563543312709204 228.0,16.846356379136388 229.0,17.28920420056922 230.0,17.783662185463225 231.0,18.20866977429126 232.0,18.460170286650367 233.0,18.476587625728023 234.0,18.253902254343306 235.0,17.846635317835027 236.0,17.354499966191387 237.0,16.897988097315178 238.0,16.588869738115324 239.0,16.502827843803622" stroke="#c8cdd4" stroke-width="1" fill="none" /></g><text x="115.0" y="12.5" stroke="none" fill="#9aacb8" stroke-width="0" font-size="12" font-weight="normal" font-family="Helvetica" text-anchor="middle" alignment-baseline="middle">···</text></g><g transform="translate(400.0,585.0)"><rect x="0" y="0" width="230.0" height="86.33333333333333" fill="#ffffff" stroke="#8a9ab0" stroke-width="1" /><rect x="0" y="68.5" width="230.0" height="17.833333333333332" fill="#b8aad4" stroke="#8a9ab0" stroke-width="1" /><text x="115.0" y="77.41666666666667" stroke="none" fill="#1a2c3d" stroke-width="0" font-size="12" font-weight="normal" font-family="Helvetica" text-anchor="middle" alignment-baseline="middle">SHA512</text><text x="240.0" y="86.33333333333333" stroke="none" fill="#1a2c3d" stroke-width="0" font-size="12" font-weight="normal" font-family="Helvetica" text-anchor="start" alignment-baseline="middle">0x10020000</text><text x="240.0" y="68.5" stroke="none" fill="#1a2c3d" stroke-width="0" font-size="12" font-weight="normal" font-family="Helvetica" text-anchor="start" alignment-baseline="middle">0x10028000</text><rect x="0" y="50.666666666666664" width="230.0" height="17.833333333333332" fill="#b8aad4" stroke="#8a9ab0" stroke-width="1" /><text x="115.0" y="59.58333333333333" stroke="none" fill="#1a2c3d" stroke-width="0" font-size="12" font-weight="normal" font-family="Helvetica" text-anchor="middle" alignment-baseline="middle">SHA256</text><text x="240.0" y="68.5" stroke="none" fill="#1a2c3d" stroke-width="0" font-size="12" font-weight="normal" font-family="Helvetica" text-anchor="start" alignment-baseline="middle">0x10028000</text><text x="240.0" y="50.666666666666664" stroke="none" fill="#1a2c3d" stroke-width="0" font-size="12" font-weight="normal" font-family="Helvetica" text-anchor="start" alignment-baseline="middle">0x10030000</text><rect x="0" y="15.0" width="230.0" height="35.666666666666664" fill="#c4b8d8" stroke="#8a9ab0" stroke-width="1" /><text x="115.0" y="32.83333333333333" stroke="none" fill="#1a2c3d" stroke-width="0" font-size="12" font-weight="normal" font-family="Helvetica" text-anchor="middle" alignment-baseline="middle">MLDSA/MLKEM</text><text x="240.0" y="50.666666666666664" stroke="none" fill="#1a2c3d" stroke-width="0" font-size="12" font-weight="normal" font-family="Helvetica" text-anchor="start" alignment-baseline="middle">0x10030000</text><text x="240.0" y="15.0" stroke="none" fill="#1a2c3d" stroke-width="0" font-size="12" font-weight="normal" font-family="Helvetica" text-anchor="start" alignment-baseline="middle">0x10040000</text><rect x="0" y="0.0" width="230.0" height="15.0" fill="#b8aad4" stroke="#8a9ab0" stroke-width="1" /><text x="115.0" y="7.5" stroke="none" fill="#1a2c3d" stroke-width="0" font-size="12" font-weight="normal" font-family="Helvetica" text-anchor="middle" alignment-baseline="middle">SHA3</text><text x="240.0" y="15.0" stroke="none" fill="#1a2c3d" stroke-width="0" font-size="12" font-weight="normal" font-family="Helvetica" text-anchor="start" alignment-baseline="middle">0x10040000</text><text x="240.0" y="0.0" stroke="none" fill="#1a2c3d" stroke-width="0" font-size="12" font-weight="normal" font-family="Helvetica" text-anchor="start" alignment-baseline="middle">0x10041000</text></g><g transform="translate(400.0,560.0)"><rect x="0" y="0" width="230.0" height="25" fill="#ffffff" stroke="#8a9ab0" stroke-width="1" /><g><rect x="0" y="0.0" width="230.0" height="25.0" fill="#eaecee" /><polyline points="0,10.0 0,0.0 230.0,0.0 230.0,10.0" stroke="#c8cdd4" stroke-width="1" fill="none" /><polyline points="0,15.0 0,25.0 230.0,25.0 230.0,15.0" stroke="#c8cdd4" stroke-width="1" fill="none" /><polyline points="-10.0,8.5 -9.0,8.377582561890373 -8.0,8.04030230586814 -7.0,7.570737201667703 -6.0,7.083853163452858 -5.0,6.698856384453066 -4.0,6.510007503399555 -3.0,6.5635433127092035 -2.0,6.846356379136388 -1.0,7.289204200569221 0.0,7.783662185463227 1.0,8.208669774291259 2.0,8.460170286650365 3.0,8.476587625728023 4.0,8.253902254343304 5.0,7.846635317835026 6.0,7.354499966191386 7.0,6.897988097315176 8.0,6.588869738115323 9.0,6.5028278438036216" stroke="#c8cdd4" stroke-width="1" fill="none" /><polyline points="-10.0,18.5 -9.0,18.37758256189037 -8.0,18.04030230586814 -7.0,17.570737201667704 -6.0,17.083853163452858 -5.0,16.698856384453066 -4.0,16.510007503399553 -3.0,16.563543312709204 -2.0,16.846356379136388 -1.0,17.28920420056922 0.0,17.783662185463225 1.0,18.20866977429126 2.0,18.460170286650367 3.0,18.476587625728023 4.0,18.253902254343306 5.0,17.846635317835027 6.0,17.354499966191387 7.0,16.897988097315178 8.0,16.588869738115324 9.0,16.502827843803622" stroke="#c8cdd4" stroke-width="1" fill="none" /><polyline points="220.0,8.5 221.0,8.377582561890373 222.0,8.04030230586814 223.0,7.570737201667703 224.0,7.083853163452858 225.0,6.698856384453066 226.0,6.510007503399555 227.0,6.5635433127092035 228.0,6.846356379136388 229.0,7.289204200569221 230.0,7.783662185463227 231.0,8.208669774291259 232.0,8.460170286650365 233.0,8.476587625728023 234.0,8.253902254343304 235.0,7.846635317835026 236.0,7.354499966191386 237.0,6.897988097315176 238.0,6.588869738115323 239.0,6.5028278438036216" stroke="#c8cdd4" stroke-width="1" fill="none" /><polyline points="220.0,18.5 221.0,18.37758256189037 222.0,18.04030230586814 223.0,17.570737201667704 224.0,17.083853163452858 225.0,16.698856384453066 226.0,16.510007503399553 227.0,16.563543312709204 228.0,16.846356379136388 229.0,17.28920420056922 230.0,17.783662185463225 231.0,18.20866977429126 232.0,18.460170286650367 233.0,18.476587625728023 234.0,18.253902254343306 235.0,17.846635317835027 236.0,17.354499966191387 237.0,16.897988097315178 238.0,16.588869738115324 239.0,16.502827843803622" stroke="#c8cdd4" stroke-width="1" fill="none" /></g><text x="115.0" y="12.5" stroke="none" fill="#9aacb8" stroke-width="0" font-size="12" font-weight="normal" font-family="Helvetica" text-anchor="middle" alignment-baseline="middle">···</text></g></g><g><g transform="translate(50.0,344.0)" /><g transform="translate(50.0,319.0)" /><g transform="translate(50.0,304.0)" /><g transform="translate(50.0,279.0)" /><g transform="translate(50.0,264.0)" /><g transform="translate(50.0,239.0)" /><g transform="translate(50.0,224.0)" /><g transform="translate(50.0,199.0)" /><g transform="translate(50.0,184.0)" /><g transform="translate(50.0,159.0)" /><g transform="translate(50.0,144.0)" /><g transform="translate(50.0,119.0)" /><g transform="translate(50.0,60.0)" /><g transform="translate(400.0,235.0)" /><g transform="translate(400.0,190.0)" /><g transform="translate(400.0,165.0)" /><g transform="translate(400.0,60.0)" /><g transform="translate(400.0,485.0)" /><g transform="translate(400.0,335.0)" /><g transform="translate(400.0,310.0)" /><g transform="translate(400.0,766.3333333333334)" /><g transform="translate(400.0,741.3333333333334)" /><g transform="translate(400.0,696.3333333333334)" /><g transform="translate(400.0,671.3333333333334)" /><g transform="translate(400.0,585.0)" /><g transform="translate(400.0,560.0)" /></g><g><g transform="translate(50.0,344.0)"><g /></g><g transform="translate(50.0,319.0)"><g /></g><g transform="translate(50.0,304.0)"><g /></g><g transform="translate(50.0,279.0)"><g /></g><g transform="translate(50.0,264.0)"><g /></g><g transform="translate(50.0,239.0)"><g /></g><g transform="translate(50.0,224.0)"><g /></g><g transform="translate(50.0,199.0)"><g /></g><g transform="translate(50.0,184.0)"><g /></g><g transform="translate(50.0,159.0)"><g /></g><g transform="translate(50.0,144.0)"><g /></g><g transform="translate(50.0,119.0)"><g /></g><g transform="translate(50.0,60.0)"><g /></g><g transform="translate(400.0,235.0)"><g /></g><g transform="translate(400.0,190.0)"><g /><g /><g /></g><g transform="translate(400.0,165.0)"><g /></g><g transform="translate(400.0,60.0)"><g /><g /></g><g transform="translate(400.0,485.0)"><g /></g><g transform="translate(400.0,335.0)"><g /><g /></g><g transform="translate(400.0,310.0)"><g /></g><g transform="translate(400.0,766.3333333333334)"><g /><g /><g /><g /></g><g transform="translate(400.0,741.3333333333334)"><g /></g><g transform="translate(400.0,696.3333333333334)"><g /><g /><g /></g><g transform="translate(400.0,671.3333333333334)"><g /></g><g transform="translate(400.0,585.0)"><g /><g /><g /><g /></g><g transform="translate(400.0,560.0)"><g /></g></g></svg>