<?xml version="1.0" encoding="utf-8"?>
<svg xmlns="http://www.w3.org/2000/svg" width="900" height="900" viewBox="0 0 900 900"><rect x="0" y="0" width="900" height="900" fill="#1a1f2e" /><g><g><path d="M 250,737.6026785714287 L 280,737.6026785714287 L 340,550.0 L 340,50.0 L 280,733.6026785714287 L 250,733.6026785714287 Z" fill="#ffffff" stroke="none" opacity="0.15" /></g><g><path d="M 250,509.03125 L 280,509.03125 L 620,550.0 L 620,50.0 L 280,505.03125 L 250,505.03125 Z" fill="#ffffff" stroke="none" opacity="0.15" /></g></g><g /><g><text x="100.0" y="-20" stroke="black" fill="white" stroke-width="0.1" font-size="24px" font-weight="normal" font-family="Helvetica" text-anchor="middle" alignment-baseline="middle" transform="translate(50,50)">Caliptra RoT Address Space</text><g transform="translate(50,75.0)"><rect x="0" y="0" width="200" height="775.0" fill="#1a1f2e" stroke="black" stroke-width="0" /><rect x="0" y="774.9526977539062" width="200" height="0.04730224609375" fill="#e8704a" stroke="black" stroke-width="0" /><rect x="0" y="645.5810546875" width="200" height="0.2522786458333333" fill="#7b5ea7" stroke="black" stroke-width="0" /><rect x="0" y="516.6508992513021" width="200" height="0.015767415364583332" fill="#3d7ebf" stroke="black" stroke-width="0" /><rect x="0" y="387.2477213541667" width="200" height="0.2522786458333333" fill="#2e9e6b" stroke="black" stroke-width="0" /><rect x="0" y="258.2071940104167" width="200" height="0.12613932291666666" fill="#c47c3a" stroke="black" stroke-width="0" /><rect x="0" y="129.04052734375" width="200" height="0.12613932291666666" fill="#b56230" stroke="black" stroke-width="0" /><rect x="0" y="645.8175659179688" width="200" height="0.015767415364583332" fill="#3d7ebf" stroke="black" stroke-width="0" /><rect x="0" y="645.8017985026041" width="200" height="0.015767415364583332" fill="#3d7ebf" stroke="black" stroke-width="0" /><rect x="0" y="645.7998275756836" width="200" height="0.0019709269205729165" fill="#3d7ebf" stroke="black" stroke-width="0" /><rect x="0" y="645.7978566487631" width="200" height="0.0019709269205729165" fill="#3d7ebf" stroke="black" stroke-width="0" /><rect x="0" y="645.7820892333984" width="200" height="0.003941853841145833" fill="#3d7ebf" stroke="black" stroke-width="0" /><rect x="0" y="645.7781473795573" width="200" height="0.003941853841145833" fill="#3d7ebf" stroke="black" stroke-width="0" /><rect x="0" y="645.7742055257162" width="200" height="0.003941853841145833" fill="#3d7ebf" stroke="black" stroke-width="0" /><rect x="0" y="645.7544962565104" width="200" height="0.015767415364583332" fill="#3d7ebf" stroke="black" stroke-width="0" /><rect x="0" y="645.7387288411459" width="200" height="0.015767415364583332" fill="#3d7ebf" stroke="black" stroke-width="0" /><rect x="0" y="645.7071940104166" width="200" height="0.031534830729166664" fill="#3d7ebf" stroke="black" stroke-width="0" /><rect x="0" y="645.7032521565756" width="200" height="0.003941853841145833" fill="#3d7ebf" stroke="black" stroke-width="0" /><rect x="0" y="516.6607538859049" width="200" height="0.0019709269205729165" fill="#3d7ebf" stroke="black" stroke-width="0" /><rect x="0" y="516.6587829589844" width="200" height="0.0019709269205729165" fill="#3d7ebf" stroke="black" stroke-width="0" /><rect x="0" y="387.4349594116211" width="200" height="0.0019709269205729165" fill="#3d7ebf" stroke="black" stroke-width="0" /><rect x="0" y="387.4329884847005" width="200" height="0.0019709269205729165" fill="#3d7ebf" stroke="black" stroke-width="0" /><rect x="0" y="387.43101755777997" width="200" height="0.0019709269205729165" fill="#3d7ebf" stroke="black" stroke-width="0" /><rect x="0" y="387.3738606770833" width="200" height="0.031534830729166664" fill="#3d7ebf" stroke="black" stroke-width="0" /><rect x="0" y="387.2477213541667" width="200" height="0.12613932291666666" fill="#3d7ebf" stroke="black" stroke-width="0" /></g><g transform="translate(50,50.0)"><rect x="0" y="0" width="200" height="25" fill="#1a1f2e" stroke="black" stroke-width="0" /><g><rect x="0" y="0.0" width="200" height="12.506106497313143" fill="#37465b" /><polyline points="0,5.002442598925257 0,0.0 200,0.0 200,5.002442598925257" stroke="black" stroke-width="0" fill="none" /><polyline points="0,7.503663898387886 0,12.506106497313143 200,12.506106497313143 200,7.503663898387886" stroke="black" stroke-width="0" fill="none" /><polyline points="-10.0,2.2530532486565713 -9.0,2.130635810546944 -8.0,1.793355554524711 -7.0,1.3237904503242741 -6.0,0.836906412109429 -5.0,0.4519096331096376 -4.0,0.2630607520561259 -3.0,0.31659656136577496 -2.0,0.5994096277929594 -1.0,1.0422574492257917 0.0,1.5367154341197975 1.0,1.9617230229478313 2.0,2.213223535306937 3.0,2.229640874384595 4.0,2.006955502999876 5.0,1.5996885664915972 6.0,1.1075532148479579 7.0,0.6510413459717477 8.0,0.34192298677189437 9.0,0.25588109246019286" stroke="black" stroke-width="0" fill="none" /><polyline points="-10.0,12.25305324865657 -9.0,12.130635810546943 -8.0,11.79335555452471 -7.0,11.323790450324273 -6.0,10.836906412109428 -5.0,10.451909633109636 -4.0,10.263060752056125 -3.0,10.316596561365774 -2.0,10.599409627792959 -1.0,11.04225744922579 0.0,11.536715434119797 1.0,11.96172302294783 2.0,12.213223535306936 3.0,12.229640874384593 4.0,12.006955502999874 5.0,11.599688566491595 6.0,11.107553214847957 7.0,10.651041345971747 8.0,10.341922986771893 9.0,10.255881092460193" stroke="black" stroke-width="0" fill="none" /><polyline points="190.0,2.2530532486565713 191.0,2.130635810546944 192.0,1.793355554524711 193.0,1.3237904503242741 194.0,0.836906412109429 195.0,0.4519096331096376 196.0,0.2630607520561259 197.0,0.31659656136577496 198.0,0.5994096277929594 199.0,1.0422574492257917 200.0,1.5367154341197975 201.0,1.9617230229478313 202.0,2.213223535306937 203.0,2.229640874384595 204.0,2.006955502999876 205.0,1.5996885664915972 206.0,1.1075532148479579 207.0,0.6510413459717477 208.0,0.34192298677189437 209.0,0.25588109246019286" stroke="black" stroke-width="0" fill="none" /><polyline points="190.0,12.25305324865657 191.0,12.130635810546943 192.0,11.79335555452471 193.0,11.323790450324273 194.0,10.836906412109428 195.0,10.451909633109636 196.0,10.263060752056125 197.0,10.316596561365774 198.0,10.599409627792959 199.0,11.04225744922579 200.0,11.536715434119797 201.0,11.96172302294783 202.0,12.213223535306936 203.0,12.229640874384593 204.0,12.006955502999874 205.0,11.599688566491595 206.0,11.107553214847957 207.0,10.651041345971747 208.0,10.341922986771893 209.0,10.255881092460193" stroke="black" stroke-width="0" fill="none" /></g></g></g><g><text x="100.0" y="-20" stroke="black" fill="white" stroke-width="0.1" font-size="24px" font-weight="normal" font-family="Helvetica" text-anchor="middle" alignment-baseline="middle" transform="translate(340,50)">Crypto Subsystem</text><g transform="translate(340,50)"><rect x="0" y="0" width="200" height="500" fill="#1a1f2e" stroke="black" stroke-width="0" /><rect x="0" y="0.0" width="200" height="500.0" fill="#3d7ebf" stroke="black" stroke-width="0" /><text x="100.0" y="250.0" stroke="black" fill="white" stroke-width="0.1" font-size="12" font-weight="normal" font-family="Helvetica" text-anchor="middle" alignment-baseline="middle">Crypto Subsystem</text><text x="210" y="500.0" stroke="black" fill="white" stroke-width="0.1" font-size="12" font-weight="normal" font-family="Helvetica" text-anchor="start" alignment-baseline="middle">0x10000000</text><text x="2" y="2.0" stroke="black" fill="white" stroke-width="0.1" font-size="12px" font-weight="normal" font-family="Helvetica" text-anchor="start" alignment-baseline="hanging">0x80000</text><rect x="0" y="468.75" width="200" height="31.25" fill="#9b6fd4" stroke="black" stroke-width="0" /><text x="100.0" y="484.375" stroke="black" fill="white" stroke-width="0.1" font-size="12" font-weight="normal" font-family="Helvetica" text-anchor="middle" alignment-baseline="middle">DOE</text><text x="210" y="500.0" stroke="black" fill="white" stroke-width="0.1" font-size="12" font-weight="normal" font-family="Helvetica" text-anchor="start" alignment-baseline="middle">0x10000000</text><text x="2" y="470.75" stroke="black" fill="white" stroke-width="0.1" font-size="12px" font-weight="normal" font-family="Helvetica" text-anchor="start" alignment-baseline="hanging">0x8000</text><rect x="0" y="437.5" width="200" height="31.25" fill="#9b6fd4" stroke="black" stroke-width="0" /><text x="100.0" y="453.125" stroke="black" fill="white" stroke-width="0.1" font-size="12" font-weight="normal" font-family="Helvetica" text-anchor="middle" alignment-baseline="middle">ECC (Secp384)</text><text x="210" y="468.75" stroke="black" fill="white" stroke-width="0.1" font-size="12" font-weight="normal" font-family="Helvetica" text-anchor="start" alignment-baseline="middle">0x10008000</text><text x="2" y="439.5" stroke="black" fill="white" stroke-width="0.1" font-size="12px" font-weight="normal" font-family="Helvetica" text-anchor="start" alignment-baseline="hanging">0x8000</text><rect x="0" y="433.59375" width="200" height="3.90625" fill="#7b5ea7" stroke="black" stroke-width="0" /><text x="2" y="435.59375" stroke="black" fill="white" stroke-width="0.1" font-size="12px" font-weight="normal" font-family="Helvetica" text-anchor="start" alignment-baseline="hanging">0x1000</text><rect x="0" y="429.6875" width="200" height="3.90625" fill="#7b5ea7" stroke="black" stroke-width="0" /><text x="2" y="431.6875" stroke="black" fill="white" stroke-width="0.1" font-size="12px" font-weight="normal" font-family="Helvetica" text-anchor="start" alignment-baseline="hanging">0x1000</text><rect x="0" y="398.4375" width="200" height="7.8125" fill="#c04040" stroke="black" stroke-width="0" /><text x="2" y="400.4375" stroke="black" fill="white" stroke-width="0.1" font-size="12px" font-weight="normal" font-family="Helvetica" text-anchor="start" alignment-baseline="hanging">0x2000</text><rect x="0" y="390.625" width="200" height="7.8125" fill="#c04040" stroke="black" stroke-width="0" /><text x="2" y="392.625" stroke="black" fill="white" stroke-width="0.1" font-size="12px" font-weight="normal" font-family="Helvetica" text-anchor="start" alignment-baseline="hanging">0x2000</text><rect x="0" y="382.8125" width="200" height="7.8125" fill="#c04040" stroke="black" stroke-width="0" /><text x="2" y="384.8125" stroke="black" fill="white" stroke-width="0.1" font-size="12px" font-weight="normal" font-family="Helvetica" text-anchor="start" alignment-baseline="hanging">0x2000</text><rect x="0" y="343.75" width="200" height="31.25" fill="#7b5ea7" stroke="black" stroke-width="0" /><text x="100.0" y="359.375" stroke="black" fill="white" stroke-width="0.1" font-size="12" font-weight="normal" font-family="Helvetica" text-anchor="middle" alignment-baseline="middle">SHA512</text><text x="210" y="375.0" stroke="black" fill="white" stroke-width="0.1" font-size="12" font-weight="normal" font-family="Helvetica" text-anchor="start" alignment-baseline="middle">0x10020000</text><text x="2" y="345.75" stroke="black" fill="white" stroke-width="0.1" font-size="12px" font-weight="normal" font-family="Helvetica" text-anchor="start" alignment-baseline="hanging">0x8000</text><rect x="0" y="312.5" width="200" height="31.25" fill="#7b5ea7" stroke="black" stroke-width="0" /><text x="100.0" y="328.125" stroke="black" fill="white" stroke-width="0.1" font-size="12" font-weight="normal" font-family="Helvetica" text-anchor="middle" alignment-baseline="middle">SHA256</text><text x="210" y="343.75" stroke="black" fill="white" stroke-width="0.1" font-size="12" font-weight="normal" font-family="Helvetica" text-anchor="start" alignment-baseline="middle">0x10028000</text><text x="2" y="314.5" stroke="black" fill="white" stroke-width="0.1" font-size="12px" font-weight="normal" font-family="Helvetica" text-anchor="start" alignment-baseline="hanging">0x8000</text><rect x="0" y="250.0" width="200" height="62.5" fill="#9b6fd4" stroke="black" stroke-width="0" /><text x="100.0" y="281.25" stroke="black" fill="white" stroke-width="0.1" font-size="12" font-weight="normal" font-family="Helvetica" text-anchor="middle" alignment-baseline="middle">MLDSA/MLKEM</text><text x="210" y="312.5" stroke="black" fill="white" stroke-width="0.1" font-size="12" font-weight="normal" font-family="Helvetica" text-anchor="start" alignment-baseline="middle">0x10030000</text><text x="2" y="252.0" stroke="black" fill="white" stroke-width="0.1" font-size="12px" font-weight="normal" font-family="Helvetica" text-anchor="start" alignment-baseline="hanging">0x10000</text><rect x="0" y="242.1875" width="200" height="7.8125" fill="#7b5ea7" stroke="black" stroke-width="0" /><text x="2" y="244.1875" stroke="black" fill="white" stroke-width="0.1" font-size="12px" font-weight="normal" font-family="Helvetica" text-anchor="start" alignment-baseline="hanging">0x2000</text></g></g><g><text x="110.0" y="-20" stroke="black" fill="white" stroke-width="0.1" font-size="24px" font-weight="normal" font-family="Helvetica" text-anchor="middle" alignment-baseline="middle" transform="translate(620,50)">SoC Interface</text><g transform="translate(620,50)"><rect x="0" y="0" width="220" height="500" fill="#1a1f2e" stroke="black" stroke-width="0" /><rect x="0" y="0.0" width="220" height="500.0" fill="#3d7ebf" stroke="black" stroke-width="0" /><text x="110.0" y="250.0" stroke="black" fill="white" stroke-width="0.1" font-size="12" font-weight="normal" font-family="Helvetica" text-anchor="middle" alignment-baseline="middle">SoC Interface</text><text x="230" y="500.0" stroke="black" fill="white" stroke-width="0.1" font-size="12" font-weight="normal" font-family="Helvetica" text-anchor="start" alignment-baseline="middle">0x30000000</text><text x="2" y="2.0" stroke="black" fill="white" stroke-width="0.1" font-size="12px" font-weight="normal" font-family="Helvetica" text-anchor="start" alignment-baseline="hanging">0x80000</text><rect x="0" y="371.09375" width="220" height="3.90625" fill="#2e9e6b" stroke="black" stroke-width="0" /><text x="2" y="373.09375" stroke="black" fill="white" stroke-width="0.1" font-size="12px" font-weight="normal" font-family="Helvetica" text-anchor="start" alignment-baseline="hanging">0x1000</text><rect x="0" y="367.1875" width="220" height="3.90625" fill="#2e9e6b" stroke="black" stroke-width="0" /><text x="2" y="369.1875" stroke="black" fill="white" stroke-width="0.1" font-size="12px" font-weight="normal" font-family="Helvetica" text-anchor="start" alignment-baseline="hanging">0x1000</text><rect x="0" y="363.28125" width="220" height="3.90625" fill="#2e9e6b" stroke="black" stroke-width="0" /><text x="2" y="365.28125" stroke="black" fill="white" stroke-width="0.1" font-size="12px" font-weight="normal" font-family="Helvetica" text-anchor="start" alignment-baseline="hanging">0x1000</text><rect x="0" y="250.0" width="220" height="62.5" fill="#3dbe85" stroke="black" stroke-width="0" /><text x="110.0" y="281.25" stroke="black" fill="white" stroke-width="0.1" font-size="12" font-weight="normal" font-family="Helvetica" text-anchor="middle" alignment-baseline="middle">SoC IFC CSR</text><text x="230" y="312.5" stroke="black" fill="white" stroke-width="0.1" font-size="12" font-weight="normal" font-family="Helvetica" text-anchor="start" alignment-baseline="middle">0x30030000</text><text x="2" y="252.0" stroke="black" fill="white" stroke-width="0.1" font-size="12px" font-weight="normal" font-family="Helvetica" text-anchor="start" alignment-baseline="hanging">0x10000</text><rect x="0" y="0.0" width="220" height="250.0" fill="#1e7050" stroke="black" stroke-width="0" /><text x="110.0" y="125.0" stroke="black" fill="white" stroke-width="0.1" font-size="12" font-weight="normal" font-family="Helvetica" text-anchor="middle" alignment-baseline="middle">Mailbox SRAM (256 KiB)</text><text x="230" y="250.0" stroke="black" fill="white" stroke-width="0.1" font-size="12" font-weight="normal" font-family="Helvetica" text-anchor="start" alignment-baseline="middle">0x30040000</text><text x="2" y="2.0" stroke="black" fill="white" stroke-width="0.1" font-size="12px" font-weight="normal" font-family="Helvetica" text-anchor="start" alignment-baseline="hanging">0x40000</text></g></g><g><g transform="translate(50,75.0)" /><g transform="translate(50,50.0)" /><g transform="translate(340,50)" /><g transform="translate(620,50)" /></g><g><g transform="translate(50,75.0)"><g /><g /><g /><g /><g /><g /><g /><g /><g /><g /><g /><g /><g /><g /><g /><g /><g /><g /><g /><g /><g /><g /><g /><g /></g><g transform="translate(50,50.0)"><g /></g><g transform="translate(340,50)"><g /><g /><g /><g /><g /><g /><g /><g /><g /><g /><g /><g /></g><g transform="translate(620,50)"><g /><g /><g /><g /><g /><g /></g></g></svg>